<svg xmlns="http://www.w3.org/2000/svg" xmlns:xlink="http://www.w3.org/1999/xlink" width="380" zoomAndPan="magnify" viewBox="0 0 285 284.999983" height="380" preserveAspectRatio="xMidYMid meet" version="1.0"><defs><clipPath id="a6de233b64"><path d="M 44 10.425781 L 241 10.425781 L 241 136 L 44 136 Z M 44 10.425781 " clip-rule="nonzero"/></clipPath><clipPath id="97a853c544"><path d="M 126 241 L 165 241 L 165 274.425781 L 126 274.425781 Z M 126 241 " clip-rule="nonzero"/></clipPath><clipPath id="bc3aebb2c4"><path d="M 5.042969 129 L 62 129 L 62 200 L 5.042969 200 Z M 5.042969 129 " clip-rule="nonzero"/></clipPath><clipPath id="bef36f9ab2"><path d="M 223 129 L 280.292969 129 L 280.292969 200 L 223 200 Z M 223 129 " clip-rule="nonzero"/></clipPath></defs><g clip-path="url(#a6de233b64)"><path fill="#000000" d="M 237.273438 135.449219 C 235.125 135.449219 234.046875 133.839844 234.046875 132.230469 L 234.046875 88.765625 C 234.046875 39.402344 186.746094 16.863281 142.667969 16.863281 C 98.589844 16.863281 51.285156 39.402344 51.285156 88.765625 L 51.285156 132.230469 C 51.285156 133.839844 50.210938 135.449219 48.0625 135.449219 C 46.449219 135.449219 44.835938 133.839844 44.835938 132.230469 L 44.835938 88.765625 C 44.835938 64.085938 55.585938 44.230469 76.011719 29.742188 C 93.75 17.402344 117.402344 10.425781 142.667969 10.425781 C 167.929688 10.425781 191.582031 17.402344 209.320312 29.742188 C 229.746094 44.230469 240.5 64.085938 240.5 88.765625 L 240.5 132.230469 C 240.5 133.839844 238.886719 135.449219 237.273438 135.449219 Z M 237.273438 135.449219 " fill-opacity="1" fill-rule="evenodd"/></g><path fill="#000000" d="M 161.480469 261.546875 C 159.867188 261.546875 158.792969 259.9375 158.792969 258.328125 C 158.253906 256.71875 159.867188 255.109375 161.480469 255.109375 C 199.644531 251.890625 223.835938 195.546875 224.371094 195.011719 C 224.910156 193.402344 226.523438 192.328125 228.136719 192.863281 C 229.746094 193.9375 230.824219 195.546875 230.285156 197.15625 C 229.746094 197.695312 223.835938 212.71875 212.007812 227.742188 C 196.957031 248.132812 179.757812 259.9375 162.019531 261.546875 C 162.019531 261.546875 162.019531 261.546875 161.480469 261.546875 Z M 161.480469 261.546875 " fill-opacity="1" fill-rule="evenodd"/><g clip-path="url(#97a853c544)"><path fill="#000000" d="M 145.355469 274.425781 C 134.605469 274.425781 126.003906 266.914062 126.003906 258.328125 C 126.003906 249.207031 134.605469 241.695312 145.355469 241.695312 C 156.105469 241.695312 164.707031 249.207031 164.707031 258.328125 C 164.707031 266.914062 156.105469 274.425781 145.355469 274.425781 Z M 145.355469 248.132812 C 138.367188 248.132812 132.453125 252.960938 132.453125 258.328125 C 132.453125 263.695312 138.367188 267.988281 145.355469 267.988281 C 152.878906 267.988281 158.253906 263.695312 158.253906 258.328125 C 158.253906 252.960938 152.878906 248.132812 145.355469 248.132812 Z M 145.355469 248.132812 " fill-opacity="1" fill-rule="evenodd"/></g><g clip-path="url(#bc3aebb2c4)"><path fill="#000000" d="M 58.273438 199.304688 L 40.535156 199.304688 C 20.648438 199.304688 5.058594 183.742188 5.058594 163.890625 C 5.058594 144.574219 20.648438 129.011719 40.535156 129.011719 L 58.273438 129.011719 C 59.886719 129.011719 61.5 130.085938 61.5 132.230469 L 61.5 196.085938 C 61.5 197.695312 59.886719 199.304688 58.273438 199.304688 Z M 40.535156 135.449219 C 32.472656 135.449219 25.484375 138.132812 20.109375 144.035156 C 14.734375 149.402344 11.507812 156.378906 11.507812 163.890625 C 11.507812 179.988281 24.410156 192.863281 40.535156 192.863281 L 55.050781 192.863281 L 55.050781 135.449219 Z M 40.535156 135.449219 " fill-opacity="1" fill-rule="evenodd"/></g><g clip-path="url(#bef36f9ab2)"><path fill="#000000" d="M 244.800781 199.304688 L 227.058594 199.304688 C 225.449219 199.304688 223.835938 197.695312 223.835938 196.085938 L 223.835938 132.230469 C 223.835938 130.085938 225.449219 129.011719 227.058594 129.011719 L 244.800781 129.011719 C 254.472656 129.011719 263.074219 132.765625 270.0625 139.207031 C 276.511719 145.644531 280.277344 154.765625 280.277344 163.890625 C 280.277344 183.742188 264.6875 199.304688 244.800781 199.304688 Z M 230.285156 192.863281 L 244.800781 192.863281 C 260.925781 192.863281 273.824219 179.988281 273.824219 163.890625 C 273.824219 148.328125 260.925781 135.449219 244.800781 135.449219 L 230.285156 135.449219 Z M 230.285156 192.863281 " fill-opacity="1" fill-rule="evenodd"/></g><path fill="#000000" d="M 156.644531 193.402344 C 154.492188 193.402344 153.417969 191.792969 153.417969 190.183594 L 153.417969 140.816406 C 153.417969 139.207031 153.957031 138.132812 155.03125 137.597656 C 163.09375 133.839844 168.46875 126.328125 168.46875 117.742188 C 168.46875 112.378906 166.320312 107.011719 162.019531 102.71875 L 162.019531 112.378906 C 162.019531 113.449219 161.480469 114.523438 160.945312 115.058594 L 144.816406 128.476562 C 143.742188 129.546875 141.59375 129.546875 140.515625 128.476562 L 124.390625 115.058594 C 123.855469 114.523438 123.316406 113.449219 123.316406 112.378906 L 123.316406 102.71875 C 119.015625 107.011719 116.867188 112.378906 116.867188 117.742188 C 116.867188 126.328125 122.242188 133.839844 130.304688 137.597656 C 131.378906 138.132812 131.917969 139.207031 131.917969 140.816406 L 131.917969 190.183594 C 131.917969 191.792969 130.839844 193.402344 128.691406 193.402344 C 127.078125 193.402344 125.464844 191.792969 125.464844 190.183594 L 125.464844 177.304688 C 120.628906 176.230469 116.328125 174.085938 112.027344 171.9375 L 102.890625 180.523438 C 101.816406 182.132812 99.664062 182.132812 98.589844 180.523438 L 78.699219 161.207031 C 78.164062 160.671875 78.164062 159.597656 78.164062 158.523438 C 78.164062 157.988281 78.164062 156.914062 78.699219 156.378906 L 87.839844 147.792969 C 85.152344 143.5 83.539062 138.671875 81.925781 134.378906 L 69.5625 134.378906 C 67.949219 134.378906 66.335938 132.765625 66.335938 131.15625 L 66.335938 103.253906 C 66.335938 101.109375 67.949219 100.035156 69.5625 100.035156 L 81.925781 100.035156 C 83.539062 95.207031 85.152344 90.378906 87.839844 86.085938 L 78.699219 77.5 C 78.164062 76.960938 78.164062 75.890625 78.164062 75.351562 C 78.164062 74.28125 78.164062 73.742188 78.699219 73.207031 L 98.589844 53.351562 C 99.128906 52.816406 100.203125 52.28125 100.738281 52.28125 C 101.816406 52.28125 102.351562 52.816406 102.890625 53.351562 L 112.027344 61.9375 C 116.328125 59.792969 120.628906 57.644531 125.464844 56.574219 L 125.464844 44.230469 C 125.464844 42.085938 127.078125 41.011719 128.691406 41.011719 L 156.644531 41.011719 C 158.253906 41.011719 159.867188 42.085938 159.867188 44.230469 L 159.867188 56.574219 C 164.707031 57.644531 169.007812 59.792969 173.308594 61.9375 L 182.445312 53.351562 C 183.519531 52.28125 185.671875 52.28125 186.746094 53.351562 L 206.632812 73.207031 C 207.710938 74.28125 207.710938 76.425781 206.632812 77.5 L 197.496094 86.085938 C 200.183594 90.378906 201.796875 95.207031 203.410156 100.035156 L 215.773438 100.035156 C 217.382812 100.035156 218.996094 101.109375 218.996094 103.253906 L 218.996094 131.15625 C 218.996094 132.765625 217.382812 134.378906 215.773438 134.378906 L 203.410156 134.378906 C 201.796875 138.671875 200.183594 143.5 197.496094 147.792969 L 206.632812 156.378906 C 207.171875 156.914062 207.171875 157.988281 207.171875 158.523438 C 207.171875 159.597656 207.171875 160.671875 206.632812 161.207031 L 186.746094 180.523438 C 186.207031 181.058594 185.132812 181.597656 184.59375 181.597656 C 183.519531 181.597656 182.980469 181.058594 182.445312 180.523438 L 173.308594 171.9375 C 169.007812 174.085938 164.707031 176.230469 159.867188 177.304688 L 159.867188 190.183594 C 159.867188 191.792969 158.253906 193.402344 156.644531 193.402344 Z M 173.84375 164.425781 C 174.917969 164.425781 175.457031 164.960938 175.996094 165.5 L 184.59375 174.085938 L 199.644531 158.523438 L 191.582031 150.476562 C 190.507812 149.402344 189.96875 147.792969 191.046875 146.71875 C 193.734375 141.351562 196.421875 135.988281 197.496094 130.085938 C 198.035156 128.476562 199.109375 127.9375 200.722656 127.9375 L 212.546875 127.9375 L 212.546875 106.476562 L 200.722656 106.476562 C 199.109375 106.476562 198.035156 105.402344 197.496094 103.792969 C 196.421875 97.890625 193.734375 92.523438 191.046875 87.695312 C 189.96875 86.085938 190.507812 84.476562 191.582031 83.402344 L 199.644531 75.351562 L 184.59375 60.328125 L 175.996094 68.378906 C 174.917969 69.449219 173.308594 69.449219 172.230469 68.914062 C 167.394531 65.695312 161.480469 63.546875 156.105469 61.9375 C 154.492188 61.9375 153.417969 60.328125 153.417969 58.71875 L 153.417969 47.449219 L 131.917969 47.449219 L 131.917969 58.71875 C 131.917969 60.328125 130.839844 61.9375 129.230469 61.9375 C 123.855469 63.546875 117.941406 65.695312 113.101562 68.914062 C 112.027344 69.449219 110.414062 69.449219 109.339844 68.378906 L 100.738281 60.328125 L 85.6875 75.351562 L 93.75 83.402344 C 94.828125 84.476562 95.363281 86.085938 94.289062 87.695312 C 91.601562 92.523438 88.914062 97.890625 87.839844 103.792969 C 87.300781 105.402344 86.226562 106.476562 84.613281 106.476562 L 72.789062 106.476562 L 72.789062 127.9375 L 84.613281 127.9375 C 86.226562 127.9375 87.300781 128.476562 87.839844 130.085938 C 88.914062 135.988281 91.601562 141.351562 94.289062 146.71875 C 95.363281 147.792969 94.828125 149.402344 93.75 150.476562 L 85.6875 158.523438 L 100.738281 174.085938 L 109.339844 165.5 C 110.414062 164.425781 112.027344 164.425781 113.101562 164.960938 C 116.867188 167.644531 121.164062 169.253906 125.464844 170.863281 L 125.464844 142.425781 C 116.328125 137.058594 110.414062 127.9375 110.414062 117.742188 C 110.414062 108.085938 115.789062 98.960938 124.929688 93.597656 C 126.003906 93.058594 127.078125 93.058594 128.152344 93.597656 C 129.230469 94.132812 129.765625 95.207031 129.765625 96.28125 L 129.765625 111.304688 L 142.667969 122.035156 L 155.566406 111.304688 L 155.566406 96.28125 C 155.566406 95.207031 156.105469 94.132812 157.179688 93.597656 C 158.253906 93.058594 159.332031 93.058594 160.40625 93.597656 C 169.542969 98.960938 174.917969 108.085938 174.917969 117.742188 C 174.917969 127.9375 169.007812 137.058594 159.867188 142.425781 L 159.867188 170.863281 C 164.167969 169.253906 168.46875 167.644531 172.230469 164.960938 C 172.769531 164.960938 173.308594 164.425781 173.84375 164.425781 Z M 173.84375 164.425781 " fill-opacity="1" fill-rule="evenodd"/><path fill="#000000" d="M 128.691406 160.132812 C 128.691406 160.132812 128.152344 160.132812 127.617188 159.597656 C 109.339844 153.695312 97.515625 136.523438 97.515625 117.207031 C 97.515625 91.988281 117.402344 71.597656 142.667969 71.597656 C 167.929688 71.597656 187.820312 91.988281 187.820312 117.207031 C 187.820312 136.523438 175.996094 153.695312 157.71875 159.597656 C 156.644531 160.132812 155.566406 160.132812 154.492188 159.597656 C 153.957031 158.523438 153.417969 157.988281 153.417969 156.914062 L 153.417969 140.816406 C 153.417969 139.207031 153.957031 138.132812 155.03125 137.597656 C 163.09375 133.839844 168.46875 126.328125 168.46875 117.742188 C 168.46875 112.378906 166.320312 107.011719 162.019531 102.71875 L 162.019531 112.378906 C 162.019531 113.449219 161.480469 114.523438 160.945312 115.058594 L 144.816406 128.476562 C 143.742188 129.546875 141.59375 129.546875 140.515625 128.476562 L 124.390625 115.058594 C 123.855469 114.523438 123.316406 113.449219 123.316406 112.378906 L 123.316406 102.71875 C 119.015625 107.011719 116.867188 112.378906 116.867188 117.742188 C 116.867188 126.328125 122.242188 133.839844 130.304688 137.597656 C 131.378906 138.132812 131.917969 139.207031 131.917969 140.816406 L 131.917969 156.914062 C 131.917969 157.988281 131.378906 158.523438 130.839844 159.597656 C 130.304688 159.597656 129.765625 160.132812 128.691406 160.132812 Z M 159.867188 142.425781 L 159.867188 152.085938 C 172.769531 145.644531 181.371094 132.230469 181.371094 117.207031 C 181.371094 95.742188 164.167969 78.035156 142.667969 78.035156 C 121.164062 78.035156 103.964844 95.742188 103.964844 117.207031 C 103.964844 132.230469 112.566406 145.644531 125.464844 152.085938 L 125.464844 142.425781 C 116.328125 137.058594 110.414062 127.9375 110.414062 117.742188 C 110.414062 108.085938 115.789062 98.960938 124.929688 93.597656 C 126.003906 93.058594 127.078125 93.058594 128.152344 93.597656 C 129.230469 94.132812 129.765625 95.207031 129.765625 96.28125 L 129.765625 111.304688 L 142.667969 122.035156 L 155.566406 111.304688 L 155.566406 96.28125 C 155.566406 95.207031 156.105469 94.132812 157.179688 93.597656 C 158.253906 93.058594 159.332031 93.058594 160.40625 93.597656 C 169.542969 98.960938 174.917969 108.085938 174.917969 117.742188 C 174.917969 127.9375 169.007812 137.058594 159.867188 142.425781 Z M 159.867188 142.425781 " fill-opacity="1" fill-rule="evenodd"/><path fill="#000000" d="M 142.667969 232.035156 C 133.527344 232.035156 125.464844 225.058594 125.464844 216.476562 L 125.464844 142.425781 C 116.328125 137.058594 110.414062 127.9375 110.414062 117.742188 C 110.414062 108.085938 115.789062 98.960938 124.929688 93.597656 C 126.003906 93.058594 127.078125 93.058594 128.152344 93.597656 C 129.230469 94.132812 129.765625 95.207031 129.765625 96.28125 L 129.765625 111.304688 L 142.667969 122.035156 L 155.566406 111.304688 L 155.566406 96.28125 C 155.566406 95.207031 156.105469 94.132812 157.179688 93.597656 C 158.253906 93.058594 159.332031 93.058594 160.40625 93.597656 C 169.542969 98.960938 174.917969 108.085938 174.917969 117.742188 C 174.917969 127.9375 169.007812 137.058594 159.867188 142.425781 L 159.867188 216.476562 C 159.867188 225.058594 151.804688 232.035156 142.667969 232.035156 Z M 123.316406 102.71875 C 119.015625 107.011719 116.867188 112.378906 116.867188 117.742188 C 116.867188 126.328125 122.242188 133.839844 130.304688 137.597656 C 131.378906 138.132812 131.917969 139.207031 131.917969 140.816406 L 131.917969 216.476562 C 131.917969 221.304688 136.753906 225.597656 142.667969 225.597656 C 148.582031 225.597656 153.417969 221.304688 153.417969 216.476562 L 153.417969 140.816406 C 153.417969 139.207031 153.957031 138.132812 155.03125 137.597656 C 163.09375 133.839844 168.46875 126.328125 168.46875 117.742188 C 168.46875 112.378906 166.320312 107.011719 162.019531 102.71875 L 162.019531 112.378906 C 162.019531 113.449219 161.480469 114.523438 160.945312 115.058594 L 144.816406 128.476562 C 143.742188 129.546875 141.59375 129.546875 140.515625 128.476562 L 124.390625 115.058594 C 123.855469 114.523438 123.316406 113.449219 123.316406 112.378906 Z M 123.316406 102.71875 " fill-opacity="1" fill-rule="evenodd"/></svg>