<svg xmlns="http://www.w3.org/2000/svg" xmlns:xlink="http://www.w3.org/1999/xlink" width="380" zoomAndPan="magnify" viewBox="0 0 285 284.999983" height="380" preserveAspectRatio="xMidYMid meet" version="1.0"><defs><clipPath id="8fca0c4d12"><path d="M 5.308594 17.65625 L 277.558594 17.65625 L 277.558594 265.90625 L 5.308594 265.90625 Z M 5.308594 17.65625 " clip-rule="nonzero"/></clipPath></defs><g clip-path="url(#8fca0c4d12)"><path fill="#000000" d="M 48.945312 265.847656 L 233.921875 265.847656 L 233.921875 251.554688 C 233.921875 243.699219 225.890625 237.265625 216.074219 237.265625 L 184.21875 237.265625 L 184.21875 203.945312 L 256.628906 203.945312 C 268.140625 203.945312 277.558594 194.507812 277.558594 182.972656 L 277.558594 38.691406 C 277.558594 27.15625 268.140625 17.71875 256.628906 17.71875 L 26.238281 17.71875 C 14.726562 17.71875 5.308594 27.15625 5.308594 38.691406 L 5.308594 182.972656 C 5.308594 194.507812 14.726562 203.945312 26.238281 203.945312 L 98.652344 203.945312 L 98.652344 237.265625 L 66.792969 237.265625 C 56.976562 237.265625 48.945312 243.695312 48.945312 251.554688 Z M 101.765625 65.335938 C 107.195312 66.402344 112.238281 68.546875 116.671875 71.527344 L 124.621094 67.988281 L 131.464844 74.847656 L 127.9375 82.808594 C 130.914062 87.253906 133.050781 92.308594 134.117188 97.75 L 142.226562 100.878906 L 142.226562 110.574219 L 134.113281 113.703125 C 133.046875 119.144531 130.910156 124.199219 127.933594 128.640625 L 131.464844 136.605469 L 124.621094 143.464844 L 116.675781 139.925781 C 112.242188 142.910156 107.195312 145.050781 101.765625 146.121094 L 98.644531 154.246094 L 88.964844 154.246094 L 85.84375 146.117188 C 80.414062 145.050781 75.371094 142.910156 70.9375 139.925781 L 62.988281 143.464844 L 56.144531 136.609375 L 59.675781 128.644531 C 56.695312 124.203125 54.5625 119.144531 53.496094 113.703125 L 45.382812 110.578125 L 45.382812 100.878906 L 53.496094 97.75 C 54.5625 92.308594 56.699219 87.253906 59.675781 82.8125 L 56.144531 74.847656 L 62.988281 67.988281 L 70.9375 71.527344 C 75.371094 68.546875 80.414062 66.402344 85.84375 65.335938 L 88.964844 57.207031 L 98.644531 57.207031 Z M 93.804688 84.304688 C 105.613281 84.304688 115.183594 93.898438 115.183594 105.726562 C 115.183594 117.558594 105.613281 127.148438 93.804688 127.148438 C 82 127.148438 72.429688 117.558594 72.429688 105.726562 C 72.429688 93.898438 82 84.304688 93.804688 84.304688 Z M 199.054688 57.382812 C 203.191406 50.199219 210.503906 46.695312 217.996094 47.105469 L 207.65625 65.046875 L 213.019531 74.355469 L 223.746094 74.355469 L 234.082031 56.410156 C 238.183594 62.707031 238.8125 70.808594 234.675781 77.988281 C 230.535156 85.171875 222.242188 89.144531 214.273438 88.132812 L 189.402344 131.296875 C 194.261719 137.707031 194.976562 146.890625 190.835938 154.074219 C 186.699219 161.253906 179.382812 164.757812 171.894531 164.351562 L 182.230469 146.40625 L 176.871094 137.097656 L 166.144531 137.097656 L 155.804688 155.042969 C 151.707031 148.746094 151.078125 140.648438 155.214844 133.464844 C 159.355469 126.285156 167.648438 122.3125 175.617188 123.320312 L 200.484375 80.15625 C 195.628906 73.746094 194.914062 64.5625 199.054688 57.382812 Z M 25.714844 35.253906 L 257.15625 35.253906 C 258.753906 35.253906 260.058594 36.566406 260.058594 38.164062 L 260.058594 176.199219 L 22.8125 176.199219 L 22.8125 38.164062 C 22.8125 36.5625 24.117188 35.253906 25.714844 35.253906 Z M 25.714844 35.253906 " fill-opacity="1" fill-rule="evenodd"/></g></svg>