<svg xmlns="http://www.w3.org/2000/svg" xmlns:xlink="http://www.w3.org/1999/xlink" width="380" zoomAndPan="magnify" viewBox="0 0 285 284.999983" height="380" preserveAspectRatio="xMidYMid meet" version="1.0"><defs><clipPath id="115e0a9333"><path d="M 16.878906 16.878906 L 268.128906 16.878906 L 268.128906 268.128906 L 16.878906 268.128906 Z M 16.878906 16.878906 " clip-rule="nonzero"/></clipPath><clipPath id="bc786c3860"><path d="M 230.441406 192.753906 C 223.773438 192.753906 217.503906 194.503906 212.0625 197.558594 L 201.078125 182.914062 C 209.027344 171.429688 213.691406 157.503906 213.691406 142.503906 C 213.691406 127.59375 209.078125 113.738281 201.210938 102.285156 L 214.699219 88.796875 C 219.492188 91.011719 224.824219 92.253906 230.441406 92.253906 C 251.222656 92.253906 268.128906 75.347656 268.128906 54.566406 C 268.128906 33.789062 251.222656 16.878906 230.441406 16.878906 C 209.664062 16.878906 192.753906 33.789062 192.753906 54.566406 C 192.753906 66.648438 198.476562 77.410156 207.339844 84.3125 L 196.027344 95.625 C 182.96875 80.734375 163.820312 71.316406 142.503906 71.316406 C 121.191406 71.316406 102.039062 80.734375 88.984375 95.625 L 77.671875 84.3125 C 86.535156 77.410156 92.253906 66.648438 92.253906 54.566406 C 92.253906 33.789062 75.347656 16.878906 54.566406 16.878906 C 33.789062 16.878906 16.878906 33.789062 16.878906 54.566406 C 16.878906 75.347656 33.789062 92.253906 54.566406 92.253906 C 60.1875 92.253906 65.515625 91.011719 70.3125 88.796875 L 83.800781 102.285156 C 75.933594 113.738281 71.316406 127.59375 71.316406 142.503906 C 71.316406 157.503906 75.984375 171.425781 83.933594 182.914062 L 72.949219 197.558594 C 67.507812 194.503906 61.238281 192.753906 54.566406 192.753906 C 33.789062 192.753906 16.878906 209.664062 16.878906 230.441406 C 16.878906 251.222656 33.789062 268.128906 54.566406 268.128906 C 75.347656 268.128906 92.253906 251.222656 92.253906 230.441406 C 92.253906 219.339844 87.425781 209.34375 79.757812 202.4375 L 89.289062 189.730469 C 102.339844 204.421875 121.359375 213.691406 142.503906 213.691406 C 163.652344 213.691406 182.671875 204.421875 195.722656 189.730469 L 205.253906 202.4375 C 197.585938 209.34375 192.753906 219.339844 192.753906 230.441406 C 192.753906 251.222656 209.664062 268.128906 230.441406 268.128906 C 251.222656 268.128906 268.128906 251.222656 268.128906 230.441406 C 268.128906 209.664062 251.222656 192.753906 230.441406 192.753906 Z M 217.878906 81.046875 L 217.878906 75.503906 C 217.878906 68.578125 223.515625 62.941406 230.441406 62.941406 C 237.371094 62.941406 243.003906 68.578125 243.003906 75.503906 L 243.003906 81.046875 C 239.195312 82.863281 234.9375 83.878906 230.441406 83.878906 C 225.949219 83.878906 221.691406 82.863281 217.878906 81.046875 Z M 222.066406 46.191406 C 222.066406 41.574219 225.824219 37.816406 230.441406 37.816406 C 235.0625 37.816406 238.816406 41.574219 238.816406 46.191406 C 238.816406 50.8125 235.0625 54.566406 230.441406 54.566406 C 225.824219 54.566406 222.066406 50.8125 222.066406 46.191406 Z M 201.128906 54.566406 C 201.128906 38.40625 214.28125 25.253906 230.441406 25.253906 C 246.605469 25.253906 259.753906 38.40625 259.753906 54.566406 C 259.753906 62.542969 256.550781 69.777344 251.371094 75.066406 C 251.222656 68.039062 247.601562 61.847656 242.152344 58.15625 C 245.257812 55.113281 247.191406 50.875 247.191406 46.191406 C 247.191406 36.957031 239.679688 29.441406 230.441406 29.441406 C 221.207031 29.441406 213.691406 36.957031 213.691406 46.191406 C 213.691406 50.875 215.625 55.113281 218.734375 58.15625 C 213.285156 61.847656 209.664062 68.035156 209.515625 75.066406 C 204.335938 69.777344 201.128906 62.542969 201.128906 54.566406 Z M 25.253906 54.566406 C 25.253906 38.40625 38.40625 25.253906 54.566406 25.253906 C 70.730469 25.253906 83.878906 38.40625 83.878906 54.566406 C 83.878906 62.542969 80.675781 69.777344 75.496094 75.066406 C 75.347656 68.039062 71.726562 61.847656 66.277344 58.15625 C 69.382812 55.113281 71.316406 50.875 71.316406 46.191406 C 71.316406 36.957031 63.804688 29.441406 54.566406 29.441406 C 45.332031 29.441406 37.816406 36.957031 37.816406 46.191406 C 37.816406 50.875 39.75 55.113281 42.859375 58.15625 C 37.410156 61.847656 33.789062 68.035156 33.640625 75.066406 C 28.460938 69.777344 25.253906 62.542969 25.253906 54.566406 Z M 46.191406 46.191406 C 46.191406 41.574219 49.949219 37.816406 54.566406 37.816406 C 59.1875 37.816406 62.941406 41.574219 62.941406 46.191406 C 62.941406 50.8125 59.1875 54.566406 54.566406 54.566406 C 49.949219 54.566406 46.191406 50.8125 46.191406 46.191406 Z M 42.003906 81.046875 L 42.003906 75.503906 C 42.003906 68.578125 47.640625 62.941406 54.566406 62.941406 C 61.496094 62.941406 67.128906 68.578125 67.128906 75.503906 L 67.128906 81.046875 C 63.320312 82.863281 59.0625 83.878906 54.566406 83.878906 C 50.074219 83.878906 45.816406 82.863281 42.003906 81.046875 Z M 42.003906 256.921875 L 42.003906 251.378906 C 42.003906 244.453125 47.640625 238.816406 54.566406 238.816406 C 61.496094 238.816406 67.128906 244.453125 67.128906 251.378906 L 67.128906 256.921875 C 63.320312 258.738281 59.0625 259.753906 54.566406 259.753906 C 50.074219 259.753906 45.816406 258.738281 42.003906 256.921875 Z M 46.191406 222.066406 C 46.191406 217.449219 49.949219 213.691406 54.566406 213.691406 C 59.1875 213.691406 62.941406 217.449219 62.941406 222.066406 C 62.941406 226.6875 59.1875 230.441406 54.566406 230.441406 C 49.949219 230.441406 46.191406 226.6875 46.191406 222.066406 Z M 83.878906 230.441406 C 83.878906 238.417969 80.675781 245.652344 75.496094 250.941406 C 75.347656 243.914062 71.726562 237.722656 66.277344 234.03125 C 69.382812 230.988281 71.316406 226.75 71.316406 222.066406 C 71.316406 212.832031 63.804688 205.316406 54.566406 205.316406 C 45.332031 205.316406 37.816406 212.832031 37.816406 222.066406 C 37.816406 226.75 39.75 230.988281 42.859375 234.03125 C 37.410156 237.722656 33.789062 243.910156 33.640625 250.941406 C 28.460938 245.652344 25.253906 238.417969 25.253906 230.441406 C 25.253906 214.28125 38.40625 201.128906 54.566406 201.128906 C 70.730469 201.128906 83.878906 214.28125 83.878906 230.441406 Z M 79.835938 146.691406 L 92.347656 146.691406 C 92.75 156.589844 94.570312 166.109375 97.664062 174.765625 C 95.171875 175.648438 92.761719 176.601562 90.460938 177.636719 C 84.402344 168.6875 80.589844 158.101562 79.835938 146.691406 Z M 90.460938 107.375 C 92.761719 108.410156 95.171875 109.363281 97.664062 110.246094 C 94.570312 118.902344 92.75 128.421875 92.347656 138.316406 L 79.835938 138.316406 C 80.589844 126.910156 84.402344 116.320312 90.460938 107.375 Z M 205.175781 138.316406 L 192.660156 138.316406 C 192.261719 128.421875 190.441406 118.902344 187.347656 110.246094 C 189.839844 109.363281 192.25 108.410156 194.550781 107.375 C 200.609375 116.320312 204.421875 126.910156 205.175781 138.316406 Z M 184.277344 138.316406 L 163.40625 138.316406 C 163.289062 130.605469 162.855469 123.125 162.121094 116.128906 C 168.121094 115.347656 173.902344 114.214844 179.359375 112.742188 C 182.203125 120.582031 183.878906 129.261719 184.277344 138.316406 Z M 142.503906 205.316406 C 142.46875 205.316406 138.53125 204.09375 134.722656 188.867188 C 133.773438 185.0625 132.957031 180.863281 132.277344 176.363281 C 135.636719 176.128906 139.050781 176.003906 142.503906 176.003906 C 145.960938 176.003906 149.375 176.128906 152.734375 176.363281 C 152.054688 180.863281 151.238281 185.0625 150.289062 188.867188 C 146.480469 204.09375 142.542969 205.316406 142.503906 205.316406 Z M 142.503906 167.628906 C 138.695312 167.628906 134.929688 167.769531 131.222656 168.039062 C 130.515625 161.328125 130.09375 154.136719 129.980469 146.691406 L 155.03125 146.691406 C 154.917969 154.136719 154.496094 161.328125 153.792969 168.039062 C 150.082031 167.769531 146.316406 167.628906 142.503906 167.628906 Z M 129.980469 138.316406 C 130.09375 130.875 130.515625 123.683594 131.21875 116.972656 C 134.929688 117.242188 138.695312 117.378906 142.503906 117.378906 C 146.316406 117.378906 150.082031 117.242188 153.789062 116.972656 C 154.496094 123.683594 154.917969 130.878906 155.03125 138.316406 Z M 142.503906 79.691406 C 142.542969 79.691406 146.480469 80.917969 150.289062 96.144531 C 151.238281 99.949219 152.058594 104.148438 152.734375 108.652344 C 149.378906 108.886719 145.960938 109.003906 142.503906 109.003906 C 139.050781 109.003906 135.636719 108.882812 132.277344 108.648438 C 132.957031 104.148438 133.773438 99.949219 134.722656 96.144531 C 138.53125 80.917969 142.46875 79.691406 142.503906 79.691406 Z M 161.074219 107.816406 C 160.34375 102.886719 159.453125 98.28125 158.414062 94.113281 C 157.257812 89.488281 155.953125 85.566406 154.507812 82.339844 C 160.855469 85.210938 166.714844 90.355469 171.625 97.503906 C 173.234375 99.839844 174.695312 102.335938 176.011719 104.960938 C 171.273438 106.1875 166.265625 107.140625 161.074219 107.816406 Z M 130.507812 82.339844 C 129.0625 85.5625 127.757812 89.488281 126.597656 94.113281 C 125.558594 98.28125 124.667969 102.886719 123.9375 107.820312 C 118.746094 107.144531 113.738281 106.1875 108.996094 104.960938 C 110.316406 102.335938 111.777344 99.839844 113.386719 97.5 C 118.296875 90.355469 124.160156 85.210938 130.507812 82.339844 Z M 122.890625 116.128906 C 122.15625 123.125 121.71875 130.605469 121.605469 138.316406 L 100.734375 138.316406 C 101.132812 129.261719 102.808594 120.582031 105.652344 112.742188 C 111.109375 114.214844 116.890625 115.347656 122.890625 116.128906 Z M 100.734375 146.691406 L 121.605469 146.691406 C 121.71875 154.40625 122.15625 161.886719 122.890625 168.882812 C 116.890625 169.664062 111.109375 170.796875 105.652344 172.269531 C 102.808594 164.429688 101.132812 155.75 100.734375 146.691406 Z M 123.9375 177.1875 C 124.667969 182.121094 125.558594 186.730469 126.597656 190.898438 C 127.757812 195.527344 129.066406 199.449219 130.511719 202.675781 C 124.164062 199.804688 118.300781 194.65625 113.386719 187.507812 C 111.777344 185.171875 110.316406 182.671875 108.996094 180.050781 C 113.738281 178.824219 118.742188 177.863281 123.9375 177.1875 Z M 154.503906 202.671875 C 155.949219 199.449219 157.253906 195.527344 158.414062 190.898438 C 159.453125 186.730469 160.34375 182.121094 161.074219 177.1875 C 166.269531 177.863281 171.273438 178.824219 176.015625 180.050781 C 174.695312 182.671875 173.234375 185.171875 171.625 187.507812 C 166.710938 194.65625 160.851562 199.804688 154.503906 202.671875 Z M 162.121094 168.882812 C 162.855469 161.886719 163.289062 154.40625 163.40625 146.691406 L 184.277344 146.691406 C 183.878906 155.75 182.203125 164.429688 179.359375 172.269531 C 173.902344 170.796875 168.121094 169.664062 162.121094 168.882812 Z M 192.660156 146.691406 L 205.175781 146.691406 C 204.421875 158.101562 200.609375 168.6875 194.550781 177.636719 C 192.25 176.601562 189.839844 175.648438 187.347656 174.765625 C 190.441406 166.109375 192.261719 156.589844 192.660156 146.691406 Z M 189.210938 100.550781 C 187.566406 101.242188 185.871094 101.898438 184.125 102.507812 C 182.476562 99.0625 180.613281 95.792969 178.527344 92.757812 C 177.742188 91.613281 176.933594 90.515625 176.101562 89.457031 C 180.964844 92.546875 185.375 96.285156 189.210938 100.550781 Z M 108.917969 89.449219 C 108.085938 90.511719 107.273438 91.609375 106.484375 92.757812 C 104.398438 95.792969 102.539062 99.058594 100.886719 102.5 C 99.144531 101.890625 97.445312 101.242188 95.804688 100.550781 C 99.640625 96.28125 104.054688 92.542969 108.917969 89.449219 Z M 95.792969 184.449219 C 97.4375 183.761719 99.136719 183.113281 100.882812 182.503906 C 102.535156 185.949219 104.398438 189.21875 106.484375 192.253906 C 107.273438 193.398438 108.082031 194.5 108.914062 195.558594 C 104.046875 192.464844 99.632812 188.722656 95.792969 184.449219 Z M 176.101562 195.558594 C 176.929688 194.5 177.742188 193.398438 178.527344 192.253906 C 180.613281 189.21875 182.476562 185.949219 184.125 182.503906 C 185.875 183.113281 187.574219 183.761719 189.21875 184.449219 C 185.378906 188.722656 180.964844 192.464844 176.101562 195.558594 Z M 217.878906 256.921875 L 217.878906 251.378906 C 217.878906 244.453125 223.515625 238.816406 230.441406 238.816406 C 237.371094 238.816406 243.003906 244.453125 243.003906 251.378906 L 243.003906 256.921875 C 239.195312 258.738281 234.9375 259.753906 230.441406 259.753906 C 225.949219 259.753906 221.691406 258.738281 217.878906 256.921875 Z M 222.066406 222.066406 C 222.066406 217.449219 225.824219 213.691406 230.441406 213.691406 C 235.0625 213.691406 238.816406 217.449219 238.816406 222.066406 C 238.816406 226.6875 235.0625 230.441406 230.441406 230.441406 C 225.824219 230.441406 222.066406 226.6875 222.066406 222.066406 Z M 251.371094 250.941406 C 251.222656 243.914062 247.601562 237.722656 242.152344 234.03125 C 245.257812 230.988281 247.191406 226.75 247.191406 222.066406 C 247.191406 212.832031 239.679688 205.316406 230.441406 205.316406 C 221.207031 205.316406 213.691406 212.832031 213.691406 222.066406 C 213.691406 226.75 215.625 230.988281 218.734375 234.03125 C 213.285156 237.722656 209.664062 243.910156 209.515625 250.941406 C 204.335938 245.652344 201.128906 238.417969 201.128906 230.441406 C 201.128906 214.28125 214.28125 201.128906 230.441406 201.128906 C 246.605469 201.128906 259.753906 214.28125 259.753906 230.441406 C 259.753906 238.417969 256.550781 245.652344 251.371094 250.941406 Z M 96.886719 44.320312 L 105.261719 27.570312 C 106.292969 25.503906 108.808594 24.664062 110.878906 25.699219 C 112.945312 26.730469 113.785156 29.246094 112.75 31.316406 L 108.957031 38.90625 C 119.753906 35.40625 131.011719 33.628906 142.503906 33.628906 C 156.015625 33.628906 169.203125 36.078125 181.703125 40.902344 C 183.859375 41.734375 184.933594 44.15625 184.101562 46.316406 C 183.457031 47.976562 181.875 48.996094 180.191406 48.996094 C 179.691406 48.996094 179.179688 48.90625 178.6875 48.714844 C 167.152344 44.261719 154.980469 42.003906 142.503906 42.003906 C 131.855469 42.003906 121.425781 43.65625 111.425781 46.910156 L 119.253906 50.824219 C 121.320312 51.855469 122.160156 54.371094 121.125 56.441406 C 120.394531 57.910156 118.914062 58.757812 117.378906 58.757812 C 116.75 58.757812 116.109375 58.613281 115.507812 58.3125 L 98.757812 49.9375 C 96.691406 48.90625 95.851562 46.390625 96.886719 44.320312 Z M 188.125 240.691406 L 179.75 257.441406 C 179.019531 258.910156 177.539062 259.757812 176.003906 259.757812 C 175.371094 259.757812 174.734375 259.613281 174.132812 259.3125 C 172.0625 258.277344 171.226562 255.765625 172.261719 253.695312 L 176.054688 246.105469 C 165.257812 249.605469 154 251.378906 142.503906 251.378906 C 128.996094 251.378906 115.808594 248.933594 103.308594 244.109375 C 101.152344 243.277344 100.078125 240.855469 100.910156 238.695312 C 101.742188 236.539062 104.167969 235.464844 106.324219 236.296875 C 117.859375 240.75 130.03125 243.003906 142.503906 243.003906 C 153.15625 243.003906 163.585938 241.355469 173.585938 238.101562 L 165.757812 234.1875 C 163.6875 233.152344 162.851562 230.640625 163.886719 228.570312 C 164.917969 226.503906 167.433594 225.664062 169.503906 226.699219 L 186.253906 235.074219 C 188.320312 236.105469 189.160156 238.621094 188.125 240.691406 Z M 253.695312 112.75 L 246.105469 108.957031 C 249.605469 119.753906 251.378906 131.011719 251.378906 142.503906 C 251.378906 156.015625 248.933594 169.203125 244.109375 181.703125 C 243.46875 183.363281 241.882812 184.382812 240.203125 184.382812 C 239.703125 184.382812 239.191406 184.292969 238.695312 184.101562 C 236.539062 183.265625 235.464844 180.84375 236.296875 178.683594 C 240.75 167.15625 243.003906 154.980469 243.003906 142.503906 C 243.003906 131.851562 241.355469 121.421875 238.101562 111.425781 L 234.1875 119.253906 C 233.457031 120.722656 231.976562 121.570312 230.441406 121.570312 C 229.8125 121.570312 229.171875 121.425781 228.570312 121.125 C 226.503906 120.089844 225.664062 117.578125 226.699219 115.507812 L 235.074219 98.757812 C 236.105469 96.691406 238.621094 95.851562 240.691406 96.886719 L 257.441406 105.261719 C 259.507812 106.292969 260.347656 108.808594 259.3125 110.878906 C 258.28125 112.945312 255.765625 113.785156 253.695312 112.75 Z M 31.316406 172.261719 L 38.90625 176.054688 C 35.40625 165.257812 33.628906 154 33.628906 142.503906 C 33.628906 128.996094 36.078125 115.808594 40.902344 103.308594 C 41.734375 101.152344 44.15625 100.078125 46.316406 100.910156 C 48.472656 101.746094 49.546875 104.167969 48.714844 106.328125 C 44.261719 117.855469 42.003906 130.03125 42.003906 142.503906 C 42.003906 153.160156 43.65625 163.585938 46.910156 173.585938 L 50.824219 165.757812 C 51.855469 163.691406 54.371094 162.851562 56.441406 163.886719 C 58.507812 164.917969 59.347656 167.433594 58.3125 169.503906 L 49.9375 186.253906 C 49.207031 187.722656 47.726562 188.570312 46.191406 188.570312 C 45.558594 188.570312 44.921875 188.425781 44.320312 188.125 L 27.570312 179.75 C 25.5 178.714844 24.664062 176.203125 25.699219 174.132812 C 26.730469 172.066406 29.246094 171.226562 31.316406 172.261719 Z M 31.316406 172.261719 " clip-rule="nonzero"/></clipPath><linearGradient x1="15.99999" gradientTransform="matrix(0.523437, 0, 0, 0.523437, 8.505778, 8.505759)" y1="496.00001" x2="496.000007" gradientUnits="userSpaceOnUse" y2="15.999993" id="3e92185447"><stop stop-opacity="1" stop-color="rgb(36.898804%, 73.699951%, 89.7995%)" offset="0"/><stop stop-opacity="1" stop-color="rgb(36.898804%, 73.699951%, 89.7995%)" offset="0.03125"/><stop stop-opacity="1" stop-color="rgb(37.005615%, 73.617554%, 89.7995%)" offset="0.046875"/><stop stop-opacity="1" stop-color="rgb(37.400818%, 73.312378%, 89.804077%)" offset="0.0507812"/><stop stop-opacity="1" stop-color="rgb(37.690735%, 73.0896%, 89.808655%)" offset="0.0546875"/><stop stop-opacity="1" stop-color="rgb(37.979126%, 72.866821%, 89.811707%)" offset="0.0585937"/><stop stop-opacity="1" stop-color="rgb(38.267517%, 72.644043%, 89.814758%)" offset="0.0625"/><stop stop-opacity="1" stop-color="rgb(38.555908%, 72.421265%, 89.81781%)" offset="0.0664062"/><stop stop-opacity="1" stop-color="rgb(38.844299%, 72.200012%, 89.822388%)" offset="0.0703125"/><stop stop-opacity="1" stop-color="rgb(39.13269%, 71.977234%, 89.825439%)" offset="0.0742187"/><stop stop-opacity="1" stop-color="rgb(39.421082%, 71.754456%, 89.828491%)" offset="0.078125"/><stop stop-opacity="1" stop-color="rgb(39.709473%, 71.531677%, 89.831543%)" offset="0.0820312"/><stop stop-opacity="1" stop-color="rgb(39.99939%, 71.308899%, 89.834595%)" offset="0.0859375"/><stop stop-opacity="1" stop-color="rgb(40.287781%, 71.086121%, 89.837646%)" offset="0.0898437"/><stop stop-opacity="1" stop-color="rgb(40.576172%, 70.864868%, 89.842224%)" offset="0.09375"/><stop stop-opacity="1" stop-color="rgb(40.864563%, 70.64209%, 89.845276%)" offset="0.0976562"/><stop stop-opacity="1" stop-color="rgb(41.152954%, 70.419312%, 89.848328%)" offset="0.101562"/><stop stop-opacity="1" stop-color="rgb(41.441345%, 70.196533%, 89.851379%)" offset="0.105469"/><stop stop-opacity="1" stop-color="rgb(41.731262%, 69.973755%, 89.855957%)" offset="0.109375"/><stop stop-opacity="1" stop-color="rgb(42.019653%, 69.750977%, 89.859009%)" offset="0.113281"/><stop stop-opacity="1" stop-color="rgb(42.308044%, 69.529724%, 89.862061%)" offset="0.117188"/><stop stop-opacity="1" stop-color="rgb(42.596436%, 69.306946%, 89.865112%)" offset="0.121094"/><stop stop-opacity="1" stop-color="rgb(42.884827%, 69.084167%, 89.868164%)" offset="0.125"/><stop stop-opacity="1" stop-color="rgb(43.173218%, 68.861389%, 89.871216%)" offset="0.128906"/><stop stop-opacity="1" stop-color="rgb(43.461609%, 68.638611%, 89.875793%)" offset="0.132812"/><stop stop-opacity="1" stop-color="rgb(43.75%, 68.415833%, 89.878845%)" offset="0.136719"/><stop stop-opacity="1" stop-color="rgb(44.039917%, 68.19458%, 89.881897%)" offset="0.140625"/><stop stop-opacity="1" stop-color="rgb(44.328308%, 67.971802%, 89.884949%)" offset="0.144531"/><stop stop-opacity="1" stop-color="rgb(44.616699%, 67.749023%, 89.888%)" offset="0.148437"/><stop stop-opacity="1" stop-color="rgb(44.90509%, 67.526245%, 89.891052%)" offset="0.152344"/><stop stop-opacity="1" stop-color="rgb(45.193481%, 67.303467%, 89.89563%)" offset="0.15625"/><stop stop-opacity="1" stop-color="rgb(45.481873%, 67.080688%, 89.898682%)" offset="0.160156"/><stop stop-opacity="1" stop-color="rgb(45.770264%, 66.859436%, 89.901733%)" offset="0.164062"/><stop stop-opacity="1" stop-color="rgb(46.058655%, 66.636658%, 89.904785%)" offset="0.167969"/><stop stop-opacity="1" stop-color="rgb(46.348572%, 66.413879%, 89.909363%)" offset="0.171875"/><stop stop-opacity="1" stop-color="rgb(46.636963%, 66.191101%, 89.912415%)" offset="0.175781"/><stop stop-opacity="1" stop-color="rgb(46.925354%, 65.968323%, 89.915466%)" offset="0.179687"/><stop stop-opacity="1" stop-color="rgb(47.213745%, 65.745544%, 89.918518%)" offset="0.183594"/><stop stop-opacity="1" stop-color="rgb(47.502136%, 65.524292%, 89.92157%)" offset="0.1875"/><stop stop-opacity="1" stop-color="rgb(47.790527%, 65.301514%, 89.924622%)" offset="0.191406"/><stop stop-opacity="1" stop-color="rgb(48.080444%, 65.078735%, 89.929199%)" offset="0.195312"/><stop stop-opacity="1" stop-color="rgb(48.368835%, 64.855957%, 89.932251%)" offset="0.199219"/><stop stop-opacity="1" stop-color="rgb(48.657227%, 64.633179%, 89.935303%)" offset="0.203125"/><stop stop-opacity="1" stop-color="rgb(48.945618%, 64.4104%, 89.938354%)" offset="0.207031"/><stop stop-opacity="1" stop-color="rgb(49.234009%, 64.189148%, 89.942932%)" offset="0.210937"/><stop stop-opacity="1" stop-color="rgb(49.5224%, 63.96637%, 89.945984%)" offset="0.214844"/><stop stop-opacity="1" stop-color="rgb(49.810791%, 63.743591%, 89.949036%)" offset="0.21875"/><stop stop-opacity="1" stop-color="rgb(50.099182%, 63.520813%, 89.952087%)" offset="0.222656"/><stop stop-opacity="1" stop-color="rgb(50.389099%, 63.298035%, 89.955139%)" offset="0.226562"/><stop stop-opacity="1" stop-color="rgb(50.67749%, 63.075256%, 89.958191%)" offset="0.230469"/><stop stop-opacity="1" stop-color="rgb(50.965881%, 62.854004%, 89.962769%)" offset="0.234375"/><stop stop-opacity="1" stop-color="rgb(51.254272%, 62.631226%, 89.96582%)" offset="0.238281"/><stop stop-opacity="1" stop-color="rgb(51.542664%, 62.408447%, 89.968872%)" offset="0.242187"/><stop stop-opacity="1" stop-color="rgb(51.831055%, 62.185669%, 89.971924%)" offset="0.246094"/><stop stop-opacity="1" stop-color="rgb(52.119446%, 61.964417%, 89.974976%)" offset="0.25"/><stop stop-opacity="1" stop-color="rgb(52.407837%, 61.741638%, 89.978027%)" offset="0.253906"/><stop stop-opacity="1" stop-color="rgb(52.697754%, 61.51886%, 89.982605%)" offset="0.257812"/><stop stop-opacity="1" stop-color="rgb(52.986145%, 61.296082%, 89.985657%)" offset="0.261719"/><stop stop-opacity="1" stop-color="rgb(53.274536%, 61.073303%, 89.988708%)" offset="0.265625"/><stop stop-opacity="1" stop-color="rgb(53.562927%, 60.850525%, 89.99176%)" offset="0.269531"/><stop stop-opacity="1" stop-color="rgb(53.851318%, 60.629272%, 89.996338%)" offset="0.273438"/><stop stop-opacity="1" stop-color="rgb(54.139709%, 60.406494%, 89.99939%)" offset="0.277344"/><stop stop-opacity="1" stop-color="rgb(54.429626%, 60.183716%, 90.002441%)" offset="0.28125"/><stop stop-opacity="1" stop-color="rgb(54.718018%, 59.960938%, 90.005493%)" offset="0.285156"/><stop stop-opacity="1" stop-color="rgb(55.006409%, 59.738159%, 90.008545%)" offset="0.289062"/><stop stop-opacity="1" stop-color="rgb(55.2948%, 59.515381%, 90.011597%)" offset="0.292969"/><stop stop-opacity="1" stop-color="rgb(55.583191%, 59.294128%, 90.016174%)" offset="0.296875"/><stop stop-opacity="1" stop-color="rgb(55.871582%, 59.07135%, 90.019226%)" offset="0.300781"/><stop stop-opacity="1" stop-color="rgb(56.159973%, 58.848572%, 90.022278%)" offset="0.304687"/><stop stop-opacity="1" stop-color="rgb(56.448364%, 58.625793%, 90.02533%)" offset="0.308594"/><stop stop-opacity="1" stop-color="rgb(56.738281%, 58.403015%, 90.029907%)" offset="0.3125"/><stop stop-opacity="1" stop-color="rgb(57.026672%, 58.180237%, 90.032959%)" offset="0.316406"/><stop stop-opacity="1" stop-color="rgb(57.315063%, 57.958984%, 90.036011%)" offset="0.320312"/><stop stop-opacity="1" stop-color="rgb(57.603455%, 57.736206%, 90.039062%)" offset="0.324219"/><stop stop-opacity="1" stop-color="rgb(57.891846%, 57.513428%, 90.042114%)" offset="0.328125"/><stop stop-opacity="1" stop-color="rgb(58.180237%, 57.290649%, 90.045166%)" offset="0.332031"/><stop stop-opacity="1" stop-color="rgb(58.468628%, 57.067871%, 90.049744%)" offset="0.335937"/><stop stop-opacity="1" stop-color="rgb(58.757019%, 56.845093%, 90.052795%)" offset="0.339844"/><stop stop-opacity="1" stop-color="rgb(59.046936%, 56.62384%, 90.055847%)" offset="0.34375"/><stop stop-opacity="1" stop-color="rgb(59.335327%, 56.401062%, 90.058899%)" offset="0.347656"/><stop stop-opacity="1" stop-color="rgb(59.623718%, 56.178284%, 90.061951%)" offset="0.351562"/><stop stop-opacity="1" stop-color="rgb(59.912109%, 55.955505%, 90.065002%)" offset="0.355469"/><stop stop-opacity="1" stop-color="rgb(60.2005%, 55.732727%, 90.06958%)" offset="0.359375"/><stop stop-opacity="1" stop-color="rgb(60.488892%, 55.509949%, 90.072632%)" offset="0.363281"/><stop stop-opacity="1" stop-color="rgb(60.778809%, 55.288696%, 90.075684%)" offset="0.367187"/><stop stop-opacity="1" stop-color="rgb(61.0672%, 55.065918%, 90.078735%)" offset="0.371094"/><stop stop-opacity="1" stop-color="rgb(61.355591%, 54.84314%, 90.083313%)" offset="0.375"/><stop stop-opacity="1" stop-color="rgb(61.643982%, 54.620361%, 90.086365%)" offset="0.378906"/><stop stop-opacity="1" stop-color="rgb(61.932373%, 54.397583%, 90.089417%)" offset="0.382812"/><stop stop-opacity="1" stop-color="rgb(62.220764%, 54.174805%, 90.092468%)" offset="0.386719"/><stop stop-opacity="1" stop-color="rgb(62.509155%, 53.953552%, 90.09552%)" offset="0.390625"/><stop stop-opacity="1" stop-color="rgb(62.797546%, 53.730774%, 90.098572%)" offset="0.394531"/><stop stop-opacity="1" stop-color="rgb(63.087463%, 53.507996%, 90.103149%)" offset="0.398437"/><stop stop-opacity="1" stop-color="rgb(63.375854%, 53.285217%, 90.106201%)" offset="0.402344"/><stop stop-opacity="1" stop-color="rgb(63.664246%, 53.062439%, 90.109253%)" offset="0.40625"/><stop stop-opacity="1" stop-color="rgb(63.952637%, 52.839661%, 90.112305%)" offset="0.410156"/><stop stop-opacity="1" stop-color="rgb(64.241028%, 52.618408%, 90.116882%)" offset="0.414062"/><stop stop-opacity="1" stop-color="rgb(64.529419%, 52.39563%, 90.119934%)" offset="0.417969"/><stop stop-opacity="1" stop-color="rgb(64.819336%, 52.172852%, 90.122986%)" offset="0.421875"/><stop stop-opacity="1" stop-color="rgb(65.107727%, 51.950073%, 90.126038%)" offset="0.425781"/><stop stop-opacity="1" stop-color="rgb(65.396118%, 51.727295%, 90.129089%)" offset="0.429687"/><stop stop-opacity="1" stop-color="rgb(65.684509%, 51.504517%, 90.132141%)" offset="0.433594"/><stop stop-opacity="1" stop-color="rgb(65.9729%, 51.283264%, 90.136719%)" offset="0.4375"/><stop stop-opacity="1" stop-color="rgb(66.261292%, 51.060486%, 90.139771%)" offset="0.441406"/><stop stop-opacity="1" stop-color="rgb(66.549683%, 50.837708%, 90.142822%)" offset="0.445312"/><stop stop-opacity="1" stop-color="rgb(66.838074%, 50.614929%, 90.145874%)" offset="0.449219"/><stop stop-opacity="1" stop-color="rgb(67.127991%, 50.392151%, 90.150452%)" offset="0.453125"/><stop stop-opacity="1" stop-color="rgb(67.416382%, 50.169373%, 90.153503%)" offset="0.457031"/><stop stop-opacity="1" stop-color="rgb(67.704773%, 49.94812%, 90.156555%)" offset="0.460937"/><stop stop-opacity="1" stop-color="rgb(67.993164%, 49.725342%, 90.159607%)" offset="0.464844"/><stop stop-opacity="1" stop-color="rgb(68.281555%, 49.502563%, 90.162659%)" offset="0.46875"/><stop stop-opacity="1" stop-color="rgb(68.569946%, 49.279785%, 90.16571%)" offset="0.472656"/><stop stop-opacity="1" stop-color="rgb(68.858337%, 49.057007%, 90.170288%)" offset="0.476562"/><stop stop-opacity="1" stop-color="rgb(69.146729%, 48.834229%, 90.17334%)" offset="0.480469"/><stop stop-opacity="1" stop-color="rgb(69.436646%, 48.612976%, 90.176392%)" offset="0.484375"/><stop stop-opacity="1" stop-color="rgb(69.725037%, 48.390198%, 90.179443%)" offset="0.488281"/><stop stop-opacity="1" stop-color="rgb(70.013428%, 48.167419%, 90.182495%)" offset="0.492187"/><stop stop-opacity="1" stop-color="rgb(70.301819%, 47.944641%, 90.185547%)" offset="0.496094"/><stop stop-opacity="1" stop-color="rgb(70.59021%, 47.723389%, 90.190125%)" offset="0.5"/><stop stop-opacity="1" stop-color="rgb(70.878601%, 47.50061%, 90.193176%)" offset="0.503906"/><stop stop-opacity="1" stop-color="rgb(71.168518%, 47.277832%, 90.196228%)" offset="0.507812"/><stop stop-opacity="1" stop-color="rgb(71.374512%, 47.128296%, 89.923096%)" offset="0.511719"/><stop stop-opacity="1" stop-color="rgb(71.580505%, 46.97876%, 89.649963%)" offset="0.515625"/><stop stop-opacity="1" stop-color="rgb(71.731567%, 46.878052%, 89.1922%)" offset="0.519531"/><stop stop-opacity="1" stop-color="rgb(71.882629%, 46.77887%, 88.734436%)" offset="0.523438"/><stop stop-opacity="1" stop-color="rgb(72.032166%, 46.678162%, 88.275146%)" offset="0.527344"/><stop stop-opacity="1" stop-color="rgb(72.183228%, 46.578979%, 87.817383%)" offset="0.53125"/><stop stop-opacity="1" stop-color="rgb(72.33429%, 46.478271%, 87.359619%)" offset="0.535156"/><stop stop-opacity="1" stop-color="rgb(72.485352%, 46.379089%, 86.901855%)" offset="0.539062"/><stop stop-opacity="1" stop-color="rgb(72.636414%, 46.278381%, 86.442566%)" offset="0.542969"/><stop stop-opacity="1" stop-color="rgb(72.787476%, 46.179199%, 85.984802%)" offset="0.546875"/><stop stop-opacity="1" stop-color="rgb(72.938538%, 46.078491%, 85.527039%)" offset="0.550781"/><stop stop-opacity="1" stop-color="rgb(73.0896%, 45.979309%, 85.069275%)" offset="0.554687"/><stop stop-opacity="1" stop-color="rgb(73.240662%, 45.878601%, 84.609985%)" offset="0.558594"/><stop stop-opacity="1" stop-color="rgb(73.391724%, 45.779419%, 84.152222%)" offset="0.5625"/><stop stop-opacity="1" stop-color="rgb(73.542786%, 45.678711%, 83.694458%)" offset="0.566406"/><stop stop-opacity="1" stop-color="rgb(73.693848%, 45.578003%, 83.236694%)" offset="0.570312"/><stop stop-opacity="1" stop-color="rgb(73.84491%, 45.477295%, 82.777405%)" offset="0.574219"/><stop stop-opacity="1" stop-color="rgb(73.995972%, 45.378113%, 82.319641%)" offset="0.578125"/><stop stop-opacity="1" stop-color="rgb(74.147034%, 45.277405%, 81.861877%)" offset="0.582031"/><stop stop-opacity="1" stop-color="rgb(74.298096%, 45.178223%, 81.404114%)" offset="0.585938"/><stop stop-opacity="1" stop-color="rgb(74.447632%, 45.077515%, 80.944824%)" offset="0.589844"/><stop stop-opacity="1" stop-color="rgb(74.598694%, 44.978333%, 80.487061%)" offset="0.59375"/><stop stop-opacity="1" stop-color="rgb(74.749756%, 44.877625%, 80.029297%)" offset="0.597656"/><stop stop-opacity="1" stop-color="rgb(74.900818%, 44.778442%, 79.571533%)" offset="0.601562"/><stop stop-opacity="1" stop-color="rgb(75.05188%, 44.677734%, 79.112244%)" offset="0.605469"/><stop stop-opacity="1" stop-color="rgb(75.202942%, 44.578552%, 78.65448%)" offset="0.609375"/><stop stop-opacity="1" stop-color="rgb(75.354004%, 44.477844%, 78.196716%)" offset="0.613281"/><stop stop-opacity="1" stop-color="rgb(75.505066%, 44.378662%, 77.738953%)" offset="0.617187"/><stop stop-opacity="1" stop-color="rgb(75.656128%, 44.277954%, 77.279663%)" offset="0.621094"/><stop stop-opacity="1" stop-color="rgb(75.80719%, 44.177246%, 76.821899%)" offset="0.625"/><stop stop-opacity="1" stop-color="rgb(75.958252%, 44.076538%, 76.364136%)" offset="0.628906"/><stop stop-opacity="1" stop-color="rgb(76.109314%, 43.977356%, 75.906372%)" offset="0.632812"/><stop stop-opacity="1" stop-color="rgb(76.260376%, 43.876648%, 75.447083%)" offset="0.636719"/><stop stop-opacity="1" stop-color="rgb(76.411438%, 43.777466%, 74.989319%)" offset="0.640625"/><stop stop-opacity="1" stop-color="rgb(76.560974%, 43.676758%, 74.531555%)" offset="0.644531"/><stop stop-opacity="1" stop-color="rgb(76.712036%, 43.577576%, 74.073792%)" offset="0.648438"/><stop stop-opacity="1" stop-color="rgb(76.863098%, 43.476868%, 73.614502%)" offset="0.652344"/><stop stop-opacity="1" stop-color="rgb(77.01416%, 43.377686%, 73.156738%)" offset="0.65625"/><stop stop-opacity="1" stop-color="rgb(77.165222%, 43.276978%, 72.698975%)" offset="0.660156"/><stop stop-opacity="1" stop-color="rgb(77.316284%, 43.177795%, 72.241211%)" offset="0.664062"/><stop stop-opacity="1" stop-color="rgb(77.467346%, 43.077087%, 71.781921%)" offset="0.667969"/><stop stop-opacity="1" stop-color="rgb(77.618408%, 42.977905%, 71.324158%)" offset="0.671875"/><stop stop-opacity="1" stop-color="rgb(77.76947%, 42.877197%, 70.866394%)" offset="0.675781"/><stop stop-opacity="1" stop-color="rgb(77.920532%, 42.776489%, 70.40863%)" offset="0.679688"/><stop stop-opacity="1" stop-color="rgb(78.071594%, 42.675781%, 69.949341%)" offset="0.683594"/><stop stop-opacity="1" stop-color="rgb(78.222656%, 42.576599%, 69.491577%)" offset="0.6875"/><stop stop-opacity="1" stop-color="rgb(78.373718%, 42.475891%, 69.033813%)" offset="0.691406"/><stop stop-opacity="1" stop-color="rgb(78.52478%, 42.376709%, 68.57605%)" offset="0.695312"/><stop stop-opacity="1" stop-color="rgb(78.674316%, 42.276001%, 68.11676%)" offset="0.699219"/><stop stop-opacity="1" stop-color="rgb(78.825378%, 42.176819%, 67.658997%)" offset="0.703125"/><stop stop-opacity="1" stop-color="rgb(78.97644%, 42.076111%, 67.201233%)" offset="0.707031"/><stop stop-opacity="1" stop-color="rgb(79.127502%, 41.976929%, 66.743469%)" offset="0.710937"/><stop stop-opacity="1" stop-color="rgb(79.278564%, 41.876221%, 66.28418%)" offset="0.714844"/><stop stop-opacity="1" stop-color="rgb(79.429626%, 41.777039%, 65.826416%)" offset="0.71875"/><stop stop-opacity="1" stop-color="rgb(79.580688%, 41.676331%, 65.368652%)" offset="0.722656"/><stop stop-opacity="1" stop-color="rgb(79.73175%, 41.577148%, 64.910889%)" offset="0.726562"/><stop stop-opacity="1" stop-color="rgb(79.882812%, 41.47644%, 64.451599%)" offset="0.730469"/><stop stop-opacity="1" stop-color="rgb(80.033875%, 41.375732%, 63.993835%)" offset="0.734375"/><stop stop-opacity="1" stop-color="rgb(80.184937%, 41.275024%, 63.536072%)" offset="0.738281"/><stop stop-opacity="1" stop-color="rgb(80.335999%, 41.175842%, 63.078308%)" offset="0.742188"/><stop stop-opacity="1" stop-color="rgb(80.487061%, 41.075134%, 62.619019%)" offset="0.746094"/><stop stop-opacity="1" stop-color="rgb(80.638123%, 40.975952%, 62.161255%)" offset="0.75"/><stop stop-opacity="1" stop-color="rgb(80.789185%, 40.875244%, 61.703491%)" offset="0.753906"/><stop stop-opacity="1" stop-color="rgb(80.940247%, 40.776062%, 61.245728%)" offset="0.757812"/><stop stop-opacity="1" stop-color="rgb(81.089783%, 40.675354%, 60.786438%)" offset="0.761719"/><stop stop-opacity="1" stop-color="rgb(81.240845%, 40.576172%, 60.328674%)" offset="0.765625"/><stop stop-opacity="1" stop-color="rgb(81.391907%, 40.475464%, 59.870911%)" offset="0.769531"/><stop stop-opacity="1" stop-color="rgb(81.542969%, 40.376282%, 59.413147%)" offset="0.773437"/><stop stop-opacity="1" stop-color="rgb(81.694031%, 40.275574%, 58.953857%)" offset="0.777344"/><stop stop-opacity="1" stop-color="rgb(81.845093%, 40.176392%, 58.496094%)" offset="0.78125"/><stop stop-opacity="1" stop-color="rgb(81.996155%, 40.075684%, 58.03833%)" offset="0.785156"/><stop stop-opacity="1" stop-color="rgb(82.147217%, 39.974976%, 57.580566%)" offset="0.789062"/><stop stop-opacity="1" stop-color="rgb(82.298279%, 39.874268%, 57.121277%)" offset="0.792969"/><stop stop-opacity="1" stop-color="rgb(82.449341%, 39.775085%, 56.663513%)" offset="0.796875"/><stop stop-opacity="1" stop-color="rgb(82.600403%, 39.674377%, 56.20575%)" offset="0.800781"/><stop stop-opacity="1" stop-color="rgb(82.751465%, 39.575195%, 55.747986%)" offset="0.804687"/><stop stop-opacity="1" stop-color="rgb(82.902527%, 39.474487%, 55.288696%)" offset="0.808594"/><stop stop-opacity="1" stop-color="rgb(83.053589%, 39.375305%, 54.830933%)" offset="0.8125"/><stop stop-opacity="1" stop-color="rgb(83.203125%, 39.274597%, 54.373169%)" offset="0.816406"/><stop stop-opacity="1" stop-color="rgb(83.354187%, 39.175415%, 53.915405%)" offset="0.820312"/><stop stop-opacity="1" stop-color="rgb(83.505249%, 39.074707%, 53.456116%)" offset="0.824219"/><stop stop-opacity="1" stop-color="rgb(83.656311%, 38.975525%, 52.998352%)" offset="0.828125"/><stop stop-opacity="1" stop-color="rgb(83.807373%, 38.874817%, 52.540588%)" offset="0.832031"/><stop stop-opacity="1" stop-color="rgb(83.958435%, 38.775635%, 52.082825%)" offset="0.835937"/><stop stop-opacity="1" stop-color="rgb(84.109497%, 38.674927%, 51.623535%)" offset="0.839844"/><stop stop-opacity="1" stop-color="rgb(84.260559%, 38.574219%, 51.165771%)" offset="0.84375"/><stop stop-opacity="1" stop-color="rgb(84.411621%, 38.473511%, 50.708008%)" offset="0.847656"/><stop stop-opacity="1" stop-color="rgb(84.562683%, 38.374329%, 50.250244%)" offset="0.851562"/><stop stop-opacity="1" stop-color="rgb(84.713745%, 38.273621%, 49.790955%)" offset="0.855469"/><stop stop-opacity="1" stop-color="rgb(84.864807%, 38.174438%, 49.333191%)" offset="0.859375"/><stop stop-opacity="1" stop-color="rgb(85.015869%, 38.07373%, 48.875427%)" offset="0.863281"/><stop stop-opacity="1" stop-color="rgb(85.166931%, 37.974548%, 48.417664%)" offset="0.867187"/><stop stop-opacity="1" stop-color="rgb(85.317993%, 37.87384%, 47.958374%)" offset="0.871094"/><stop stop-opacity="1" stop-color="rgb(85.469055%, 37.774658%, 47.50061%)" offset="0.875"/><stop stop-opacity="1" stop-color="rgb(85.618591%, 37.67395%, 47.042847%)" offset="0.878906"/><stop stop-opacity="1" stop-color="rgb(85.769653%, 37.574768%, 46.585083%)" offset="0.882812"/><stop stop-opacity="1" stop-color="rgb(85.920715%, 37.47406%, 46.125793%)" offset="0.886719"/><stop stop-opacity="1" stop-color="rgb(86.071777%, 37.374878%, 45.66803%)" offset="0.890625"/><stop stop-opacity="1" stop-color="rgb(86.222839%, 37.27417%, 45.210266%)" offset="0.894531"/><stop stop-opacity="1" stop-color="rgb(86.373901%, 37.173462%, 44.752502%)" offset="0.898437"/><stop stop-opacity="1" stop-color="rgb(86.524963%, 37.072754%, 44.293213%)" offset="0.902344"/><stop stop-opacity="1" stop-color="rgb(86.676025%, 36.973572%, 43.835449%)" offset="0.90625"/><stop stop-opacity="1" stop-color="rgb(86.827087%, 36.872864%, 43.377686%)" offset="0.910156"/><stop stop-opacity="1" stop-color="rgb(86.978149%, 36.773682%, 42.919922%)" offset="0.914062"/><stop stop-opacity="1" stop-color="rgb(87.129211%, 36.672974%, 42.460632%)" offset="0.917969"/><stop stop-opacity="1" stop-color="rgb(87.280273%, 36.573792%, 42.002869%)" offset="0.921875"/><stop stop-opacity="1" stop-color="rgb(87.431335%, 36.473083%, 41.545105%)" offset="0.925781"/><stop stop-opacity="1" stop-color="rgb(87.582397%, 36.373901%, 41.087341%)" offset="0.929688"/><stop stop-opacity="1" stop-color="rgb(87.731934%, 36.273193%, 40.628052%)" offset="0.933594"/><stop stop-opacity="1" stop-color="rgb(87.882996%, 36.174011%, 40.170288%)" offset="0.9375"/><stop stop-opacity="1" stop-color="rgb(88.034058%, 36.073303%, 39.712524%)" offset="0.941406"/><stop stop-opacity="1" stop-color="rgb(88.18512%, 35.974121%, 39.254761%)" offset="0.945312"/><stop stop-opacity="1" stop-color="rgb(88.336182%, 35.873413%, 38.795471%)" offset="0.949219"/><stop stop-opacity="1" stop-color="rgb(88.487244%, 35.772705%, 38.337708%)" offset="0.953125"/><stop stop-opacity="1" stop-color="rgb(88.542175%, 35.736084%, 38.168335%)" offset="0.96875"/><stop stop-opacity="1" stop-color="rgb(88.598633%, 35.699463%, 37.998962%)" offset="1"/></linearGradient></defs><g clip-path="url(#115e0a9333)"><g clip-path="url(#bc786c3860)"><path fill="url(#3e92185447)" d="M 16.878906 16.878906 L 16.878906 268.128906 L 268.128906 268.128906 L 268.128906 16.878906 Z M 16.878906 16.878906 " fill-rule="nonzero"/></g></g></svg>