<svg xmlns="http://www.w3.org/2000/svg" xmlns:xlink="http://www.w3.org/1999/xlink" width="380" zoomAndPan="magnify" viewBox="0 0 285 284.999983" height="380" preserveAspectRatio="xMidYMid meet" version="1.0"><defs><clipPath id="08467a1bdd"><path d="M 120.636719 124 L 145.800781 124 L 145.800781 126.878906 L 120.636719 126.878906 Z M 120.636719 124 " clip-rule="nonzero"/></clipPath><clipPath id="57f6206bdf"><path d="M 120.71875 122.359375 C 120.71875 122.359375 122.894531 126.464844 133.085938 126.585938 C 133.085938 126.585938 143.328125 127.503906 145.6875 122.984375 L 145.6875 118.003906 L 121.449219 116.519531 L 120.71875 122.359375 " clip-rule="nonzero"/></clipPath><clipPath id="a2dff929bb"><path d="M 122.617188 118.667969 L 142.40625 118.667969 L 142.40625 126.59375 L 122.617188 126.59375 Z M 122.617188 118.667969 " clip-rule="nonzero"/></clipPath><clipPath id="cedd35291c"><path d="M 120.71875 122.359375 C 120.71875 122.359375 122.894531 126.464844 133.085938 126.585938 C 133.085938 126.585938 143.328125 127.503906 145.6875 122.984375 L 145.6875 118.003906 L 121.449219 116.519531 L 120.71875 122.359375 " clip-rule="nonzero"/></clipPath><clipPath id="801b906b6d"><path d="M 136.46875 253.445312 L 170.960938 253.445312 L 170.960938 276.515625 L 136.46875 276.515625 Z M 136.46875 253.445312 " clip-rule="nonzero"/></clipPath><clipPath id="cee458b0e6"><path d="M 136.46875 263.074219 L 170.394531 263.074219 L 170.394531 276.515625 L 136.46875 276.515625 Z M 136.46875 263.074219 " clip-rule="nonzero"/></clipPath><clipPath id="c283c15700"><path d="M 91.238281 253.445312 L 125.726562 253.445312 L 125.726562 276.515625 L 91.238281 276.515625 Z M 91.238281 253.445312 " clip-rule="nonzero"/></clipPath><clipPath id="352cfe7335"><path d="M 91.804688 263.074219 L 125.726562 263.074219 L 125.726562 276.515625 L 91.804688 276.515625 Z M 91.804688 263.074219 " clip-rule="nonzero"/></clipPath><clipPath id="3b087afcf2"><path d="M 100.285156 87 L 122.617188 87 L 122.617188 109.324219 L 100.285156 109.324219 Z M 100.285156 87 " clip-rule="nonzero"/></clipPath><clipPath id="2d971ea7a6"><path d="M 111.378906 109.257812 C 110.472656 109.257812 109.550781 109.144531 108.632812 108.910156 C 102.753906 107.398438 99.210938 101.398438 100.722656 95.507812 C 101.996094 90.539062 106.464844 87.234375 111.359375 87.234375 C 112.265625 87.234375 113.1875 87.347656 114.101562 87.585938 C 119.984375 89.097656 123.523438 95.097656 122.015625 100.984375 C 120.738281 105.957031 116.273438 109.257812 111.378906 109.257812 " clip-rule="nonzero"/></clipPath><clipPath id="e68a8b00e4"><path d="M 111.378906 109.257812 C 110.472656 109.257812 109.550781 109.144531 108.632812 108.910156 C 102.753906 107.398438 99.210938 101.398438 100.722656 95.507812 C 101.996094 90.539062 106.464844 87.234375 111.359375 87.234375 C 112.265625 87.234375 113.1875 87.347656 114.101562 87.585938 C 119.984375 89.097656 123.523438 95.097656 122.015625 100.984375 C 120.738281 105.957031 116.273438 109.257812 111.378906 109.257812 " clip-rule="nonzero"/></clipPath><clipPath id="9af08138fb"><path d="M 128.824219 88.597656 L 122.019531 115.125 L 93.914062 107.894531 L 100.71875 81.367188 Z M 128.824219 88.597656 " clip-rule="nonzero"/></clipPath><radialGradient gradientTransform="matrix(-0.967787, -0.248989, -0.248594, 0.969327, 111.369783, 98.248334)" gradientUnits="userSpaceOnUse" r="10.999943" cx="0" id="d77c9d2daf" cy="0" fx="0" fy="0"><stop stop-opacity="1" stop-color="rgb(95.89386%, 62.895203%, 50.59967%)" offset="0"/><stop stop-opacity="1" stop-color="rgb(96.09375%, 63.179016%, 50.683594%)" offset="0.015625"/><stop stop-opacity="1" stop-color="rgb(96.099854%, 63.383484%, 50.883484%)" offset="0.0273438"/><stop stop-opacity="1" stop-color="rgb(96.185303%, 63.5849%, 51.0849%)" offset="0.0546875"/><stop stop-opacity="1" stop-color="rgb(96.385193%, 63.78479%, 51.28479%)" offset="0.0820312"/><stop stop-opacity="1" stop-color="rgb(96.499634%, 63.986206%, 51.486206%)" offset="0.109375"/><stop stop-opacity="1" stop-color="rgb(96.635437%, 64.186096%, 51.686096%)" offset="0.136719"/><stop stop-opacity="1" stop-color="rgb(96.835327%, 64.299011%, 51.799011%)" offset="0.160156"/><stop stop-opacity="1" stop-color="rgb(96.899414%, 64.431763%, 51.931763%)" offset="0.183594"/><stop stop-opacity="1" stop-color="rgb(96.899414%, 64.698792%, 52.182007%)" offset="0.195312"/><stop stop-opacity="1" stop-color="rgb(96.899414%, 64.96582%, 52.400208%)" offset="0.21875"/><stop stop-opacity="1" stop-color="rgb(96.899414%, 65.196228%, 52.597046%)" offset="0.265625"/><stop stop-opacity="1" stop-color="rgb(97.058105%, 65.397644%, 52.796936%)" offset="0.273438"/><stop stop-opacity="1" stop-color="rgb(97.257996%, 65.661621%, 52.89917%)" offset="0.292969"/><stop stop-opacity="1" stop-color="rgb(97.299194%, 65.942383%, 52.978516%)" offset="0.3125"/><stop stop-opacity="1" stop-color="rgb(97.299194%, 66.178894%, 53.178406%)" offset="0.332031"/><stop stop-opacity="1" stop-color="rgb(97.299194%, 66.299438%, 53.29895%)" offset="0.351562"/><stop stop-opacity="1" stop-color="rgb(97.299194%, 66.299438%, 53.40271%)" offset="0.359375"/><stop stop-opacity="1" stop-color="rgb(97.299194%, 66.456604%, 53.6026%)" offset="0.367188"/><stop stop-opacity="1" stop-color="rgb(97.299194%, 66.656494%, 53.849792%)" offset="0.386719"/><stop stop-opacity="1" stop-color="rgb(97.410583%, 66.848755%, 54.049683%)" offset="0.402344"/><stop stop-opacity="1" stop-color="rgb(97.561646%, 67.114258%, 54.098511%)" offset="0.417969"/><stop stop-opacity="1" stop-color="rgb(97.599792%, 67.364502%, 54.244995%)" offset="0.433594"/><stop stop-opacity="1" stop-color="rgb(97.599792%, 67.648315%, 54.5578%)" offset="0.46875"/><stop stop-opacity="1" stop-color="rgb(97.599792%, 67.799377%, 54.811096%)" offset="0.535156"/><stop stop-opacity="1" stop-color="rgb(97.599792%, 67.991638%, 54.898071%)" offset="0.546875"/><stop stop-opacity="1" stop-color="rgb(97.599792%, 68.191528%, 54.983521%)" offset="0.558594"/><stop stop-opacity="1" stop-color="rgb(97.599792%, 68.327332%, 55.183411%)" offset="0.570312"/><stop stop-opacity="1" stop-color="rgb(97.599792%, 68.595886%, 55.366516%)" offset="0.59375"/><stop stop-opacity="1" stop-color="rgb(97.599792%, 68.867493%, 55.566406%)" offset="0.617188"/><stop stop-opacity="1" stop-color="rgb(97.599792%, 69.07959%, 55.780029%)" offset="0.640625"/><stop stop-opacity="1" stop-color="rgb(97.599792%, 69.27948%, 55.979919%)" offset="0.660156"/><stop stop-opacity="1" stop-color="rgb(97.599792%, 69.500732%, 56.098938%)" offset="0.679688"/><stop stop-opacity="1" stop-color="rgb(97.599792%, 69.702148%, 56.196594%)" offset="0.699219"/><stop stop-opacity="1" stop-color="rgb(97.599792%, 69.898987%, 56.396484%)" offset="0.714844"/><stop stop-opacity="1" stop-color="rgb(97.599792%, 70.098877%, 56.498718%)" offset="0.730469"/><stop stop-opacity="1" stop-color="rgb(97.727966%, 70.327759%, 56.626892%)" offset="0.746094"/><stop stop-opacity="1" stop-color="rgb(97.927856%, 70.582581%, 56.88324%)" offset="0.761719"/><stop stop-opacity="1" stop-color="rgb(97.999573%, 70.854187%, 57.154846%)" offset="0.773438"/><stop stop-opacity="1" stop-color="rgb(97.999573%, 71.081543%, 57.36084%)" offset="0.800781"/><stop stop-opacity="1" stop-color="rgb(97.999573%, 71.281433%, 57.591248%)" offset="0.824219"/><stop stop-opacity="1" stop-color="rgb(97.999573%, 71.502686%, 57.879639%)" offset="0.84375"/><stop stop-opacity="1" stop-color="rgb(97.999573%, 71.801758%, 58.097839%)" offset="0.863281"/><stop stop-opacity="1" stop-color="rgb(97.999573%, 72.097778%, 58.297729%)" offset="0.878906"/><stop stop-opacity="1" stop-color="rgb(97.999573%, 72.315979%, 58.555603%)" offset="0.90625"/><stop stop-opacity="1" stop-color="rgb(97.999573%, 72.467041%, 58.755493%)" offset="0.929688"/><stop stop-opacity="1" stop-color="rgb(97.999573%, 72.499084%, 58.810425%)" offset="0.964844"/><stop stop-opacity="1" stop-color="rgb(97.999573%, 72.499084%, 59.010315%)" offset="0.980469"/><stop stop-opacity="1" stop-color="rgb(97.999573%, 72.499084%, 59.199524%)" offset="1"/></radialGradient><clipPath id="5d7eb0ed1e"><path d="M 145.800781 88.371094 L 168 88.371094 L 168 110.738281 L 145.800781 110.738281 Z M 145.800781 88.371094 " clip-rule="nonzero"/></clipPath><clipPath id="0dc5dd3b3d"><path d="M 156.90625 110.59375 C 156 110.59375 155.082031 110.480469 154.164062 110.242188 C 148.285156 108.730469 144.742188 102.730469 146.25 96.84375 C 147.527344 91.871094 151.992188 88.570312 156.890625 88.570312 C 157.796875 88.570312 158.714844 88.683594 159.632812 88.917969 C 165.511719 90.429688 169.054688 96.429688 167.542969 102.320312 C 166.269531 107.289062 161.804688 110.59375 156.90625 110.59375 " clip-rule="nonzero"/></clipPath><clipPath id="db460ba75b"><path d="M 156.90625 110.59375 C 156 110.59375 155.082031 110.480469 154.164062 110.242188 C 148.285156 108.730469 144.742188 102.730469 146.25 96.84375 C 147.527344 91.871094 151.992188 88.570312 156.890625 88.570312 C 157.796875 88.570312 158.714844 88.683594 159.632812 88.917969 C 165.511719 90.429688 169.054688 96.429688 167.542969 102.320312 C 166.269531 107.289062 161.804688 110.59375 156.90625 110.59375 " clip-rule="nonzero"/></clipPath><clipPath id="49e8d4e16d"><path d="M 174.351562 89.933594 L 167.550781 116.460938 L 139.445312 109.230469 L 146.246094 82.703125 Z M 174.351562 89.933594 " clip-rule="nonzero"/></clipPath><radialGradient gradientTransform="matrix(-0.967787, -0.248989, -0.248594, 0.969327, 156.898559, 99.581514)" gradientUnits="userSpaceOnUse" r="11.000225" cx="0" id="e9445a8de9" cy="0" fx="0" fy="0"><stop stop-opacity="1" stop-color="rgb(95.89386%, 62.895203%, 50.59967%)" offset="0"/><stop stop-opacity="1" stop-color="rgb(96.09375%, 63.179016%, 50.683594%)" offset="0.015625"/><stop stop-opacity="1" stop-color="rgb(96.099854%, 63.383484%, 50.883484%)" offset="0.0273438"/><stop stop-opacity="1" stop-color="rgb(96.185303%, 63.5849%, 51.0849%)" offset="0.0546875"/><stop stop-opacity="1" stop-color="rgb(96.385193%, 63.78479%, 51.28479%)" offset="0.0820312"/><stop stop-opacity="1" stop-color="rgb(96.499634%, 63.986206%, 51.486206%)" offset="0.109375"/><stop stop-opacity="1" stop-color="rgb(96.635437%, 64.186096%, 51.686096%)" offset="0.136719"/><stop stop-opacity="1" stop-color="rgb(96.835327%, 64.299011%, 51.799011%)" offset="0.160156"/><stop stop-opacity="1" stop-color="rgb(96.899414%, 64.431763%, 51.931763%)" offset="0.183594"/><stop stop-opacity="1" stop-color="rgb(96.899414%, 64.698792%, 52.182007%)" offset="0.195312"/><stop stop-opacity="1" stop-color="rgb(96.899414%, 64.96582%, 52.400208%)" offset="0.21875"/><stop stop-opacity="1" stop-color="rgb(96.899414%, 65.196228%, 52.597046%)" offset="0.265625"/><stop stop-opacity="1" stop-color="rgb(97.058105%, 65.397644%, 52.796936%)" offset="0.273438"/><stop stop-opacity="1" stop-color="rgb(97.257996%, 65.661621%, 52.89917%)" offset="0.292969"/><stop stop-opacity="1" stop-color="rgb(97.299194%, 65.942383%, 52.978516%)" offset="0.3125"/><stop stop-opacity="1" stop-color="rgb(97.299194%, 66.178894%, 53.178406%)" offset="0.332031"/><stop stop-opacity="1" stop-color="rgb(97.299194%, 66.299438%, 53.29895%)" offset="0.351562"/><stop stop-opacity="1" stop-color="rgb(97.299194%, 66.299438%, 53.40271%)" offset="0.359375"/><stop stop-opacity="1" stop-color="rgb(97.299194%, 66.456604%, 53.6026%)" offset="0.367188"/><stop stop-opacity="1" stop-color="rgb(97.299194%, 66.656494%, 53.849792%)" offset="0.386719"/><stop stop-opacity="1" stop-color="rgb(97.410583%, 66.848755%, 54.049683%)" offset="0.402344"/><stop stop-opacity="1" stop-color="rgb(97.561646%, 67.114258%, 54.098511%)" offset="0.417969"/><stop stop-opacity="1" stop-color="rgb(97.599792%, 67.364502%, 54.244995%)" offset="0.433594"/><stop stop-opacity="1" stop-color="rgb(97.599792%, 67.648315%, 54.5578%)" offset="0.46875"/><stop stop-opacity="1" stop-color="rgb(97.599792%, 67.799377%, 54.811096%)" offset="0.535156"/><stop stop-opacity="1" stop-color="rgb(97.599792%, 67.991638%, 54.898071%)" offset="0.546875"/><stop stop-opacity="1" stop-color="rgb(97.599792%, 68.191528%, 54.983521%)" offset="0.558594"/><stop stop-opacity="1" stop-color="rgb(97.599792%, 68.327332%, 55.183411%)" offset="0.570312"/><stop stop-opacity="1" stop-color="rgb(97.599792%, 68.595886%, 55.366516%)" offset="0.59375"/><stop stop-opacity="1" stop-color="rgb(97.599792%, 68.867493%, 55.566406%)" offset="0.617188"/><stop stop-opacity="1" stop-color="rgb(97.599792%, 69.07959%, 55.780029%)" offset="0.640625"/><stop stop-opacity="1" stop-color="rgb(97.599792%, 69.27948%, 55.979919%)" offset="0.660156"/><stop stop-opacity="1" stop-color="rgb(97.599792%, 69.500732%, 56.098938%)" offset="0.679688"/><stop stop-opacity="1" stop-color="rgb(97.599792%, 69.702148%, 56.196594%)" offset="0.699219"/><stop stop-opacity="1" stop-color="rgb(97.599792%, 69.898987%, 56.396484%)" offset="0.714844"/><stop stop-opacity="1" stop-color="rgb(97.599792%, 70.098877%, 56.498718%)" offset="0.730469"/><stop stop-opacity="1" stop-color="rgb(97.727966%, 70.327759%, 56.626892%)" offset="0.746094"/><stop stop-opacity="1" stop-color="rgb(97.927856%, 70.582581%, 56.88324%)" offset="0.761719"/><stop stop-opacity="1" stop-color="rgb(97.999573%, 70.854187%, 57.154846%)" offset="0.773438"/><stop stop-opacity="1" stop-color="rgb(97.999573%, 71.081543%, 57.36084%)" offset="0.800781"/><stop stop-opacity="1" stop-color="rgb(97.999573%, 71.281433%, 57.591248%)" offset="0.824219"/><stop stop-opacity="1" stop-color="rgb(97.999573%, 71.502686%, 57.879639%)" offset="0.84375"/><stop stop-opacity="1" stop-color="rgb(97.999573%, 71.801758%, 58.097839%)" offset="0.863281"/><stop stop-opacity="1" stop-color="rgb(97.999573%, 72.097778%, 58.297729%)" offset="0.878906"/><stop stop-opacity="1" stop-color="rgb(97.999573%, 72.315979%, 58.555603%)" offset="0.90625"/><stop stop-opacity="1" stop-color="rgb(97.999573%, 72.467041%, 58.755493%)" offset="0.929688"/><stop stop-opacity="1" stop-color="rgb(97.999573%, 72.499084%, 58.810425%)" offset="0.964844"/><stop stop-opacity="1" stop-color="rgb(97.999573%, 72.499084%, 59.010315%)" offset="0.980469"/><stop stop-opacity="1" stop-color="rgb(97.999573%, 72.499084%, 59.199524%)" offset="1"/></radialGradient><clipPath id="1aafa01936"><path d="M 187.074219 138.203125 L 255.511719 138.203125 L 255.511719 192.285156 L 187.074219 192.285156 Z M 187.074219 138.203125 " clip-rule="nonzero"/></clipPath></defs><path fill="#e28d6c" d="M 204.011719 175.3125 C 204.011719 175.3125 211.804688 175.160156 211.9375 174.707031 C 212.066406 174.257812 211.09375 171.277344 204.210938 171.449219 L 210.1875 171.351562 C 210.1875 171.351562 211.175781 168.140625 203.957031 168.042969 L 198.839844 168.289062 C 198.839844 168.289062 200.714844 174.46875 204.011719 175.3125 " fill-opacity="1" fill-rule="nonzero"/><path fill="#faba97" d="M 190.535156 172.859375 L 211.742188 180.417969 C 211.742188 180.417969 215.304688 177.777344 207.410156 174.777344 C 207.410156 174.777344 199.542969 170.136719 201.296875 167.339844 C 201.296875 167.339844 208.203125 163.886719 207.144531 161.445312 C 207.144531 161.445312 207.5 160.628906 205.214844 161.441406 C 202.933594 162.25 192.441406 163.027344 192.441406 163.027344 L 190.535156 172.859375 " fill-opacity="1" fill-rule="nonzero"/><path fill="#f3cc26" d="M 192.621094 161.082031 C 192.621094 161.082031 194.273438 172.683594 189.484375 177.1875 C 189.484375 177.1875 171.097656 178.140625 167.695312 172.796875 C 163.96875 166.945312 155.039062 145.105469 155.039062 145.105469 L 151.925781 126.5625 C 151.925781 126.5625 166.574219 130.015625 172.46875 142.691406 C 172.707031 143.210938 173.789062 145.535156 174.085938 146.171875 C 174.109375 146.21875 174.132812 146.269531 174.152344 146.316406 C 174.410156 146.871094 174.988281 148.113281 175.007812 148.152344 C 175.289062 148.757812 178.042969 156.648438 178.339844 157.285156 L 192.621094 161.082031 " fill-opacity="1" fill-rule="nonzero"/><path fill="#f3cc26" d="M 114.773438 125.605469 C 114.773438 125.605469 104.703125 127.691406 99.328125 132.746094 C 93.957031 137.804688 89.941406 144.246094 89.941406 144.246094 L 65.796875 133.941406 L 62.703125 146.570312 C 62.703125 146.570312 83.3125 165.226562 95.960938 160.15625 C 108.613281 155.089844 113.167969 141.242188 113.167969 141.242188 L 114.773438 125.605469 " fill-opacity="1" fill-rule="nonzero"/><path fill="#f3cc26" d="M 155.234375 175.679688 C 123.550781 180.316406 110.707031 176.535156 110.707031 176.535156 C 108.875 159.066406 111.617188 131.417969 114.117188 126.660156 C 115.3125 125.613281 116.761719 124.738281 116.761719 124.738281 C 116.894531 124.726562 117.03125 124.710938 117.164062 124.699219 C 128.503906 123.570312 139.941406 124.589844 146.09375 125.355469 C 148.984375 125.714844 150.703125 126.019531 150.703125 126.019531 C 159.394531 146.535156 155.234375 175.679688 155.234375 175.679688 " fill-opacity="1" fill-rule="nonzero"/><path fill="#e0561d" d="M 130.996094 135.53125 C 130.996094 136.300781 131.617188 136.921875 132.386719 136.921875 C 133.152344 136.921875 133.773438 136.300781 133.773438 135.53125 C 133.773438 134.765625 133.152344 134.140625 132.386719 134.140625 C 131.617188 134.140625 130.996094 134.765625 130.996094 135.53125 " fill-opacity="1" fill-rule="nonzero"/><path fill="#e0561d" d="M 130.996094 144.015625 C 130.996094 144.78125 131.617188 145.40625 132.386719 145.40625 C 133.152344 145.40625 133.773438 144.78125 133.773438 144.015625 C 133.773438 143.246094 133.152344 142.625 132.386719 142.625 C 131.617188 142.625 130.996094 143.246094 130.996094 144.015625 " fill-opacity="1" fill-rule="nonzero"/><path fill="#162838" d="M 157.726562 258.121094 C 151.117188 259.324219 141.625 258.121094 141.625 258.121094 C 140.023438 252.398438 137.601562 228.621094 136.054688 216.195312 C 134.898438 206.921875 134.125 198.820312 134.277344 196.441406 C 134.679688 190.179688 150.351562 190.171875 153.371094 191.460938 C 156.332031 192.730469 157.535156 203.214844 157.933594 214.886719 C 158.480469 230.785156 157.726562 258.121094 157.726562 258.121094 " fill-opacity="1" fill-rule="nonzero"/><path fill="#162838" d="M 127.652344 216.078125 C 126.101562 228.53125 122.753906 251.628906 121.148438 257.367188 C 121.148438 257.367188 111.65625 258.574219 105.042969 257.367188 C 105.042969 257.367188 105.1875 230.402344 105.773438 214.390625 C 106.191406 202.917969 107.398438 192.710938 110.320312 191.460938 C 113.339844 190.171875 129.011719 190.179688 129.410156 196.441406 C 129.5625 198.8125 128.796875 206.851562 127.652344 216.078125 " fill-opacity="1" fill-rule="nonzero"/><path fill="#d4d3d2" d="M 146.734375 125.4375 C 146.527344 125.410156 146.316406 125.382812 146.09375 125.355469 C 141.910156 124.835938 135.273438 124.199219 127.886719 124.199219 C 125.109375 124.199219 122.226562 124.289062 119.328125 124.507812 L 119.710938 122.984375 L 146.519531 123.410156 L 146.734375 125.4375 " fill-opacity="1" fill-rule="nonzero"/><path fill="#c6a71d" d="M 125.253906 135.1875 C 125.222656 135.1875 125.191406 135.1875 125.160156 135.1875 C 117.621094 135.109375 118.066406 129.496094 118.066406 129.496094 L 119.328125 124.507812 C 122.226562 124.289062 125.109375 124.199219 127.886719 124.199219 C 135.273438 124.199219 141.910156 124.835938 146.09375 125.355469 C 146.316406 125.382812 146.527344 125.410156 146.734375 125.4375 L 147.117188 129.019531 C 147.117188 129.019531 146.773438 135.1875 141.445312 135.1875 C 132.683594 135.1875 132.589844 129.085938 132.589844 129.085938 C 132.589844 129.085938 131.472656 135.1875 125.253906 135.1875 " fill-opacity="1" fill-rule="nonzero"/><path fill="#c2212b" d="M 106.164062 157.445312 C 113.5625 155.445312 118.972656 144.761719 118.972656 144.761719 L 148.570312 144.761719 C 148.570312 144.761719 153.984375 155.445312 161.378906 157.445312 L 169.585938 215.636719 L 97.957031 215.636719 L 106.164062 157.445312 " fill-opacity="1" fill-rule="nonzero"/><path fill="#c2212b" d="M 145.460938 148.742188 L 151.714844 150.761719 L 158.117188 127.324219 L 151.859375 125.308594 L 145.460938 148.742188 " fill-opacity="1" fill-rule="nonzero"/><path fill="#c2212b" d="M 121.054688 148.742188 L 114.796875 150.761719 L 107.027344 126.59375 L 113.285156 124.578125 L 121.054688 148.742188 " fill-opacity="1" fill-rule="nonzero"/><path fill="#a91c25" d="M 117.347656 189.859375 L 131.933594 194.917969 L 146.519531 189.859375 L 146.519531 175.359375 L 117.347656 175.359375 L 117.347656 189.859375 " fill-opacity="1" fill-rule="nonzero"/><path fill="#ffffff" d="M 146.519531 122.144531 L 119.710938 121.71875 L 118.25 129.019531 C 118.25 129.019531 117.859375 133.210938 125.753906 133.628906 C 131.378906 133.925781 132.589844 127.757812 132.589844 127.757812 C 132.589844 127.757812 133.785156 134.226562 141.222656 133.777344 C 146.105469 133.480469 147.117188 129.019531 147.117188 129.019531 L 146.519531 122.144531 " fill-opacity="1" fill-rule="nonzero"/><path fill="#cedddb" d="M 145.6875 122.984375 L 120.71875 122.359375 C 120.71875 122.359375 122.894531 126.464844 133.082031 126.585938 C 133.082031 126.585938 143.328125 127.503906 145.6875 122.984375 " fill-opacity="1" fill-rule="nonzero"/><g clip-path="url(#08467a1bdd)"><g clip-path="url(#57f6206bdf)"><path fill="#e28d6c" d="M 119.710938 124.035156 C 119.710938 124.035156 125.269531 131.925781 134.058594 131.078125 C 134.058594 131.078125 141.652344 131.0625 145.6875 124.726562 L 119.710938 124.035156 " fill-opacity="1" fill-rule="nonzero"/></g></g><g clip-path="url(#a2dff929bb)"><g clip-path="url(#cedd35291c)"><path fill="#e28d6c" d="M 122.84375 126.585938 L 142.34375 126.585938 L 142.34375 118.933594 L 122.84375 118.933594 L 122.84375 126.585938 " fill-opacity="1" fill-rule="nonzero"/></g></g><g clip-path="url(#801b906b6d)"><path fill="#c2212b" d="M 136.523438 263.171875 C 136.515625 263.9375 136.550781 264.761719 136.636719 265.636719 C 136.636719 265.636719 137.492188 266.332031 138.960938 267.375 C 139.242188 267.574219 140.171875 266.6875 140.5 266.90625 C 140.953125 267.214844 140.816406 268.640625 141.34375 268.980469 C 147.183594 272.75 157.410156 278.097656 165.996094 276.070312 C 165.996094 276.070312 169.023438 275.351562 170.300781 272.652344 C 171.078125 271.007812 171.210938 268.625 169.605469 265.222656 C 169.605469 265.222656 168.457031 262.898438 166.523438 261.59375 C 166.234375 261.402344 165.929688 261.230469 165.609375 261.09375 C 165.609375 261.09375 165.582031 261.054688 165.53125 260.984375 C 165.335938 260.714844 164.789062 259.964844 164.074219 259.09375 C 163.867188 258.839844 163.648438 258.574219 163.414062 258.308594 C 162.910156 257.730469 162.363281 257.140625 161.8125 256.625 C 161.480469 256.3125 161.144531 256.027344 160.820312 255.789062 C 160.28125 255.394531 159.765625 255.125 159.324219 255.074219 C 159.324219 255.074219 154.925781 254.21875 151.730469 256.980469 C 149.820312 258.628906 144.171875 257.65625 143.015625 255.789062 C 141.640625 253.574219 139.976562 253.632812 139.976562 253.632812 C 139.976562 253.632812 136.589844 256.386719 136.523438 263.171875 " fill-opacity="1" fill-rule="nonzero"/></g><g clip-path="url(#cee458b0e6)"><path fill="#171413" d="M 136.523438 263.171875 C 136.515625 263.9375 136.550781 264.761719 136.636719 265.636719 C 136.636719 265.636719 137.492188 266.332031 138.964844 267.375 C 139.242188 267.574219 140.171875 266.6875 140.5 266.90625 C 140.953125 267.214844 140.816406 268.640625 141.34375 268.980469 C 147.183594 272.75 157.410156 278.097656 165.996094 276.070312 C 165.996094 276.070312 169.023438 275.351562 170.300781 272.652344 C 168.300781 273.496094 164.429688 274.671875 160.148438 273.535156 C 154.246094 271.960938 144.4375 269.183594 136.523438 263.171875 " fill-opacity="1" fill-rule="nonzero"/></g><g clip-path="url(#c283c15700)"><path fill="#c2212b" d="M 125.589844 263.171875 C 125.59375 263.9375 125.558594 264.761719 125.472656 265.636719 C 125.472656 265.636719 124.621094 266.332031 123.148438 267.375 C 122.867188 267.574219 121.9375 266.6875 121.613281 266.90625 C 121.160156 267.214844 121.292969 268.640625 120.765625 268.980469 C 114.929688 272.75 104.699219 278.097656 96.113281 276.070312 C 96.113281 276.070312 93.089844 275.351562 91.8125 272.652344 C 91.03125 271.007812 90.902344 268.625 92.503906 265.222656 C 92.503906 265.222656 93.65625 262.898438 95.589844 261.59375 C 95.875 261.402344 96.179688 261.230469 96.5 261.09375 C 96.5 261.09375 96.53125 261.054688 96.582031 260.984375 C 96.773438 260.714844 97.320312 259.964844 98.035156 259.09375 C 98.242188 258.839844 98.464844 258.574219 98.695312 258.308594 C 99.199219 257.730469 99.75 257.140625 100.300781 256.625 C 100.628906 256.3125 100.964844 256.027344 101.289062 255.789062 C 101.828125 255.394531 102.34375 255.125 102.785156 255.074219 C 102.785156 255.074219 107.183594 254.21875 110.382812 256.980469 C 112.292969 258.628906 117.941406 257.65625 119.097656 255.789062 C 120.46875 253.574219 122.136719 253.632812 122.136719 253.632812 C 122.136719 253.632812 125.519531 256.386719 125.589844 263.171875 " fill-opacity="1" fill-rule="nonzero"/></g><g clip-path="url(#352cfe7335)"><path fill="#171413" d="M 125.589844 263.171875 C 125.597656 263.9375 125.558594 264.761719 125.472656 265.636719 C 125.472656 265.636719 124.621094 266.332031 123.148438 267.375 C 122.867188 267.574219 121.9375 266.6875 121.613281 266.90625 C 121.160156 267.214844 121.292969 268.640625 120.765625 268.980469 C 114.929688 272.75 104.703125 278.097656 96.113281 276.070312 C 96.113281 276.070312 93.089844 275.351562 91.8125 272.652344 C 93.808594 273.496094 97.679688 274.671875 101.960938 273.535156 C 107.863281 271.960938 117.671875 269.183594 125.589844 263.171875 " fill-opacity="1" fill-rule="nonzero"/></g><path fill="#875b4f" d="M 151.859375 104.707031 C 151.859375 114.984375 159.875 123.316406 169.765625 123.316406 C 179.652344 123.316406 187.667969 114.984375 187.667969 104.707031 C 187.667969 94.425781 179.652344 86.09375 169.765625 86.09375 C 159.875 86.09375 151.859375 94.425781 151.859375 104.707031 " fill-opacity="1" fill-rule="nonzero"/><path fill="#ab796d" d="M 186.496094 101.273438 C 186.496094 101.273438 187.257812 111.410156 180.28125 119.40625 C 180.28125 119.40625 183.054688 114.851562 183.925781 109.976562 C 183.925781 109.976562 182.035156 113.820312 179.839844 115.46875 C 179.839844 115.46875 182.625 109.867188 181.484375 107.503906 C 181.484375 107.503906 179.371094 110.851562 178.082031 111.601562 C 178.082031 111.601562 183.074219 99.742188 181.78125 95.617188 C 181.78125 95.617188 183.328125 101.144531 183.089844 103.566406 C 183.089844 103.566406 184.007812 101.738281 184.199219 100.847656 C 184.390625 99.957031 184.246094 104.460938 183.832031 107.027344 C 183.832031 107.027344 186.035156 104.558594 186.496094 101.273438 " fill-opacity="1" fill-rule="nonzero"/><path fill="#d3d4d3" d="M 105.914062 260.367188 C 105.851562 260.359375 105.789062 260.335938 105.734375 260.292969 C 102.492188 257.664062 99.445312 258.109375 99.414062 258.113281 C 99.21875 258.144531 99.039062 258.011719 99.007812 257.820312 C 98.980469 257.628906 99.109375 257.445312 99.304688 257.417969 C 99.441406 257.394531 102.695312 256.921875 106.179688 259.742188 C 106.332031 259.867188 106.355469 260.089844 106.230469 260.238281 C 106.152344 260.339844 106.03125 260.382812 105.914062 260.367188 " fill-opacity="1" fill-rule="nonzero"/><path fill="#d3d4d3" d="M 104.0625 262.492188 C 104 262.484375 103.9375 262.457031 103.882812 262.414062 C 100.65625 259.800781 97.589844 260.234375 97.5625 260.238281 C 97.367188 260.265625 97.1875 260.132812 97.160156 259.941406 C 97.128906 259.75 97.257812 259.570312 97.453125 259.539062 C 97.589844 259.515625 100.84375 259.042969 104.328125 261.867188 C 104.480469 261.988281 104.503906 262.210938 104.378906 262.363281 C 104.300781 262.460938 104.179688 262.507812 104.0625 262.492188 " fill-opacity="1" fill-rule="nonzero"/><path fill="#d3d4d3" d="M 101.558594 264.789062 C 101.496094 264.777344 101.433594 264.753906 101.378906 264.710938 C 98.152344 262.097656 95.089844 262.527344 95.058594 262.535156 C 94.863281 262.5625 94.683594 262.429688 94.65625 262.238281 C 94.625 262.046875 94.753906 261.867188 94.949219 261.835938 C 95.085938 261.8125 98.339844 261.339844 101.824219 264.160156 C 101.976562 264.285156 102 264.507812 101.878906 264.660156 C 101.796875 264.757812 101.675781 264.800781 101.558594 264.789062 " fill-opacity="1" fill-rule="nonzero"/><path fill="#d3d4d3" d="M 156.816406 260.367188 C 156.878906 260.359375 156.941406 260.335938 156.996094 260.292969 C 160.238281 257.664062 163.285156 258.109375 163.316406 258.113281 C 163.511719 258.144531 163.691406 258.011719 163.722656 257.820312 C 163.75 257.628906 163.621094 257.445312 163.425781 257.417969 C 163.289062 257.394531 160.035156 256.921875 156.550781 259.742188 C 156.398438 259.867188 156.375 260.089844 156.5 260.238281 C 156.578125 260.339844 156.699219 260.382812 156.816406 260.367188 " fill-opacity="1" fill-rule="nonzero"/><path fill="#d3d4d3" d="M 158.667969 262.492188 C 158.730469 262.484375 158.792969 262.457031 158.847656 262.414062 C 162.074219 259.800781 165.140625 260.234375 165.167969 260.238281 C 165.359375 260.265625 165.542969 260.132812 165.570312 259.941406 C 165.601562 259.75 165.472656 259.570312 165.277344 259.539062 C 165.140625 259.515625 161.886719 259.042969 158.402344 261.867188 C 158.25 261.988281 158.226562 262.210938 158.347656 262.363281 C 158.429688 262.460938 158.550781 262.507812 158.667969 262.492188 " fill-opacity="1" fill-rule="nonzero"/><path fill="#d3d4d3" d="M 161.171875 264.789062 C 161.234375 264.777344 161.296875 264.753906 161.351562 264.710938 C 164.578125 262.097656 167.640625 262.527344 167.671875 262.535156 C 167.867188 262.5625 168.046875 262.429688 168.074219 262.238281 C 168.105469 262.046875 167.976562 261.867188 167.78125 261.835938 C 167.644531 261.8125 164.390625 261.339844 160.90625 264.160156 C 160.753906 264.285156 160.730469 264.507812 160.855469 264.660156 C 160.933594 264.757812 161.054688 264.800781 161.171875 264.789062 " fill-opacity="1" fill-rule="nonzero"/><path fill="#875b4f" d="M 91.300781 88.433594 L 174.625 92.257812 C 179.835938 87.859375 188.226562 72.285156 180.917969 53.777344 C 179.527344 50.257812 177.566406 46.632812 174.910156 42.957031 C 172.742188 39.960938 170.46875 37.511719 168.152344 35.527344 C 152.699219 22.28125 135.386719 29.484375 135.386719 29.484375 C 119.488281 22.941406 106.988281 31.703125 106.988281 31.703125 C 106.375 32.132812 105.769531 32.558594 105.191406 32.992188 C 96.601562 39.332031 91.460938 46.003906 88.578125 52.433594 C 80.027344 71.492188 91.300781 88.433594 91.300781 88.433594 " fill-opacity="1" fill-rule="nonzero"/><path fill="#faba97" d="M 171.546875 86.695312 C 171.546875 86.695312 177.738281 83.179688 179.636719 87.878906 C 181.257812 91.886719 179.425781 102.289062 168.546875 101.140625 L 171.546875 86.695312 " fill-opacity="1" fill-rule="nonzero"/><path fill="#faba97" d="M 96.9375 86.355469 C 96.9375 86.355469 90.976562 82.460938 88.789062 87.03125 C 86.925781 90.933594 88.113281 101.429688 99.042969 100.957031 L 96.9375 86.355469 " fill-opacity="1" fill-rule="nonzero"/><path fill="#faba97" d="M 136.34375 121.304688 C 168.488281 119.894531 173.300781 95.390625 173.625 82.707031 C 173.738281 78.238281 173.292969 75.238281 173.292969 75.238281 C 173.292969 75.238281 174.527344 46.082031 139.15625 41.03125 C 103.78125 35.980469 97.15625 74.273438 97.15625 74.273438 C 96.964844 75.976562 96.734375 78.277344 96.625 80.941406 C 96.019531 96.027344 99.386719 122.929688 136.34375 121.304688 " fill-opacity="1" fill-rule="nonzero"/><path fill="#e28d6c" d="M 96.625 80.941406 C 97.375 83.324219 98.15625 84.578125 98.15625 84.578125 C 99.050781 80.4375 101.746094 74.730469 104.292969 73.816406 C 124.523438 66.566406 131.78125 51.867188 131.78125 51.867188 C 131.039062 66.300781 123.035156 78.195312 123.035156 78.195312 C 144.007812 73.640625 151.65625 49.59375 151.65625 49.59375 C 166.183594 61.414062 170.8125 86.695312 170.8125 86.695312 C 172.007812 85.5 172.925781 84.148438 173.625 82.707031 C 173.738281 78.238281 173.292969 75.238281 173.292969 75.238281 C 173.292969 75.238281 174.527344 46.082031 139.15625 41.03125 C 103.78125 35.980469 97.15625 74.273438 97.15625 74.273438 C 96.964844 75.976562 96.734375 78.277344 96.625 80.941406 " fill-opacity="1" fill-rule="nonzero"/><g clip-path="url(#3b087afcf2)"><g clip-path="url(#2d971ea7a6)"><g clip-path="url(#e68a8b00e4)"><g clip-path="url(#9af08138fb)"><path fill="url(#d77c9d2daf)" d="M 127.914062 88.597656 L 121.234375 114.648438 L 94.984375 107.894531 L 101.667969 81.84375 Z M 127.914062 88.597656 " fill-rule="nonzero"/></g></g></g></g><g clip-path="url(#5d7eb0ed1e)"><g clip-path="url(#0dc5dd3b3d)"><g clip-path="url(#db460ba75b)"><g clip-path="url(#49e8d4e16d)"><path fill="url(#e9445a8de9)" d="M 173.429688 89.933594 L 166.75 115.984375 L 140.5 109.230469 L 147.179688 83.179688 Z M 173.429688 89.933594 " fill-rule="nonzero"/></g></g></g></g><path fill="#e28d6c" d="M 137.351562 96.367188 C 136.574219 94.941406 134.929688 93.707031 133.234375 94.074219 C 132.808594 94.148438 129.746094 96.019531 130.773438 96.613281 C 131.132812 96.820312 133.265625 95.15625 133.984375 95.179688 C 134.976562 95.253906 135.863281 95.917969 136.566406 96.566406 C 136.792969 96.777344 137.722656 97.042969 137.351562 96.367188 " fill-opacity="1" fill-rule="nonzero"/><path fill="#875b4f" d="M 158.566406 72.347656 C 157.695312 70.851562 156.019531 69.953125 154.378906 69.574219 C 152.863281 69.179688 151.238281 69.324219 149.789062 69.886719 C 148.964844 70.230469 149.160156 70.710938 149.925781 70.820312 C 151.398438 70.988281 152.847656 71.25 154.273438 71.65625 C 154.507812 71.730469 159.085938 73.390625 158.566406 72.347656 " fill-opacity="1" fill-rule="nonzero"/><path fill="#875b4f" d="M 107.90625 72.59375 C 108.761719 71.089844 110.429688 70.171875 112.0625 69.773438 C 113.574219 69.363281 115.203125 69.488281 116.65625 70.03125 C 117.484375 70.367188 117.296875 70.851562 116.53125 70.964844 C 115.0625 71.148438 113.613281 71.433594 112.195312 71.855469 C 111.960938 71.933594 107.402344 73.644531 107.90625 72.59375 " fill-opacity="1" fill-rule="nonzero"/><path fill="#e28d6c" d="M 95.542969 96.660156 C 95.757812 96.667969 95.972656 96.550781 96.078125 96.34375 C 96.222656 96.058594 96.109375 95.707031 95.824219 95.5625 C 94.488281 94.875 92.945312 93.488281 92.707031 92.058594 C 92.589844 91.351562 92.8125 90.71875 93.386719 90.125 C 94.210938 89.269531 95.382812 90.183594 95.433594 90.222656 C 95.683594 90.421875 96.050781 90.378906 96.25 90.128906 C 96.449219 89.878906 96.40625 89.511719 96.15625 89.3125 C 95.449219 88.753906 93.792969 88.03125 92.550781 89.316406 C 91.730469 90.167969 91.386719 91.183594 91.5625 92.25 C 91.867188 94.085938 93.65625 95.753906 95.296875 96.597656 C 95.375 96.636719 95.457031 96.660156 95.542969 96.660156 " fill-opacity="1" fill-rule="nonzero"/><path fill="#e28d6c" d="M 173.476562 96.871094 C 173.261719 96.867188 173.054688 96.738281 172.960938 96.527344 C 172.835938 96.230469 172.96875 95.886719 173.261719 95.761719 C 174.636719 95.160156 176.265625 93.867188 176.589844 92.457031 C 176.75 91.757812 176.570312 91.113281 176.03125 90.480469 C 175.261719 89.578125 174.035156 90.417969 173.984375 90.457031 C 173.722656 90.640625 173.359375 90.574219 173.175781 90.3125 C 172.992188 90.046875 173.058594 89.6875 173.320312 89.503906 C 174.058594 88.988281 175.757812 88.371094 176.914062 89.726562 C 177.683594 90.628906 177.964844 91.664062 177.71875 92.714844 C 177.304688 94.53125 175.414062 96.085938 173.726562 96.824219 C 173.644531 96.859375 173.558594 96.875 173.476562 96.871094 " fill-opacity="1" fill-rule="nonzero"/><path fill="#875b4f" d="M 173.988281 60.296875 C 173.988281 60.296875 179.550781 76.71875 171.011719 85.277344 C 171.011719 85.277344 166.382812 59.992188 151.855469 48.167969 C 151.855469 48.167969 144.207031 72.21875 123.234375 76.773438 C 123.234375 76.773438 131.238281 64.875 131.980469 50.445312 C 131.980469 50.445312 124.722656 65.144531 104.492188 72.394531 C 101.945312 73.308594 99.25 79.015625 98.355469 83.15625 C 98.355469 83.15625 89.882812 69.570312 101.964844 46.625 C 101.964844 46.625 148.917969 20.652344 173.988281 60.296875 " fill-opacity="1" fill-rule="nonzero"/><path fill="#ab796d" d="M 164.625 34.09375 C 164.625 34.09375 176.492188 41.351562 179.808594 55.523438 C 179.808594 55.523438 176.964844 48.785156 172.242188 43.917969 C 172.242188 43.917969 175.003906 49.097656 175.078125 52.863281 C 175.078125 52.863281 171.078125 45.277344 167.539062 44.664062 C 167.539062 44.664062 169.574219 49.699219 169.375 51.730469 C 169.375 51.730469 160.1875 36.6875 154.566406 34.835938 C 154.566406 34.835938 161.949219 37.527344 164.449219 39.726562 C 164.449219 39.726562 163.152344 37.242188 162.3125 36.316406 C 161.476562 35.390625 166.363281 39.152344 168.882812 41.664062 C 168.882812 41.664062 167.90625 37.234375 164.625 34.09375 " fill-opacity="1" fill-rule="nonzero"/><path fill="#ab796d" d="M 109.296875 54.792969 L 103.683594 57.605469 C 103.683594 57.605469 103.898438 52.65625 105.398438 51.355469 C 106.898438 50.054688 99.699219 55.210938 98.320312 57.4375 C 98.320312 57.4375 98.539062 47.605469 101.699219 44.554688 C 101.699219 44.554688 95.691406 50.1875 93.707031 54.425781 C 93.707031 54.425781 92.386719 47.816406 94.203125 45.480469 C 94.203125 45.480469 87.832031 52.503906 86.824219 62.578125 C 86.824219 62.578125 89.417969 55.847656 90.617188 55.765625 C 90.617188 55.765625 88.539062 61.199219 90.21875 64.714844 C 90.21875 64.714844 93.480469 59.730469 96.097656 56.292969 C 96.097656 56.292969 94.855469 61.871094 96.265625 64.304688 C 96.265625 64.304688 98.933594 60.328125 100.417969 58.816406 C 100.417969 58.816406 98.449219 61.625 98.675781 63.542969 L 103.863281 59.523438 C 103.863281 59.523438 102.335938 64.136719 102.519531 65.097656 C 102.519531 65.097656 105.25 59.683594 109.296875 54.792969 " fill-opacity="1" fill-rule="nonzero"/><path fill="#ffffff" d="M 146.632812 88.84375 C 147.960938 92.472656 152.328125 92.609375 155.960938 91.277344 C 160.871094 89.472656 160.691406 86.460938 159.792969 84.011719 C 158.464844 80.382812 154.441406 78.523438 150.808594 79.855469 C 147.175781 81.191406 145.304688 85.214844 146.632812 88.84375 " fill-opacity="1" fill-rule="nonzero"/><path fill="#351a17" d="M 161.097656 88.289062 L 163.96875 85.820312 C 164.160156 85.65625 164.210938 85.328125 164.078125 85.085938 C 163.960938 84.867188 163.734375 84.800781 163.546875 84.914062 L 160.429688 86.835938 C 160.09375 87.042969 159.953125 87.546875 160.117188 87.96875 C 160.277344 88.386719 160.679688 88.558594 161.015625 88.351562 C 161.042969 88.332031 161.074219 88.3125 161.097656 88.289062 " fill-opacity="1" fill-rule="nonzero"/><path fill="#875b4f" d="M 157.546875 84.074219 C 158.699219 87.21875 157.085938 90.707031 153.945312 91.859375 C 150.804688 93.011719 147.324219 91.394531 146.171875 88.25 C 145.023438 85.105469 146.632812 81.621094 149.777344 80.464844 C 152.917969 79.3125 156.394531 80.929688 157.546875 84.074219 " fill-opacity="1" fill-rule="nonzero"/><path fill="#ffffff" d="M 147.769531 84.664062 C 148.078125 85.511719 149.015625 85.945312 149.859375 85.636719 C 150.703125 85.324219 151.140625 84.386719 150.828125 83.539062 C 150.519531 82.695312 149.582031 82.257812 148.738281 82.570312 C 147.894531 82.878906 147.457031 83.816406 147.769531 84.664062 " fill-opacity="1" fill-rule="nonzero"/><path fill="#352019" d="M 147.660156 81.757812 C 150.902344 79.945312 155.015625 79.3125 157.722656 82.375 C 158.828125 83.695312 159.636719 85.300781 159.800781 87.035156 C 159.816406 87.214844 159.359375 90.316406 160.054688 89.582031 C 161.242188 89.441406 161.164062 86.113281 161.050781 85.46875 C 160.675781 83.324219 159.21875 81.113281 157.355469 79.949219 C 155.160156 78.523438 152.445312 78.542969 150.082031 79.53125 C 149.398438 79.8125 146.261719 81.144531 147.660156 81.757812 " fill-opacity="1" fill-rule="nonzero"/><path fill="#ffffff" d="M 120.5625 86.917969 C 120.363281 90.78125 116.230469 92.203125 112.367188 92 C 107.144531 91.730469 106.429688 88.796875 106.5625 86.195312 C 106.761719 82.332031 110.058594 79.367188 113.921875 79.566406 C 117.789062 79.765625 120.761719 83.058594 120.5625 86.917969 " fill-opacity="1" fill-rule="nonzero"/><path fill="#875b4f" d="M 121.242188 86.386719 C 121.070312 89.730469 118.222656 92.304688 114.882812 92.132812 C 111.542969 91.957031 108.972656 89.105469 109.144531 85.761719 C 109.316406 82.414062 112.167969 79.84375 115.507812 80.015625 C 118.847656 80.1875 121.414062 83.042969 121.242188 86.386719 " fill-opacity="1" fill-rule="nonzero"/><path fill="#352019" d="M 117.488281 80.453125 C 113.859375 79.679688 109.742188 80.292969 108.058594 84.019531 C 107.390625 85.605469 107.09375 87.378906 107.449219 89.082031 C 107.484375 89.261719 108.835938 92.089844 107.953125 91.59375 C 106.78125 91.808594 105.875 88.609375 105.792969 87.960938 C 105.515625 85.796875 106.257812 83.253906 107.691406 81.59375 C 109.367188 79.578125 111.972656 78.796875 114.519531 79.042969 C 115.253906 79.105469 118.644531 79.453125 117.488281 80.453125 " fill-opacity="1" fill-rule="nonzero"/><path fill="#351a17" d="M 106.578125 90.667969 L 103.109375 89.15625 C 102.875 89.054688 102.730469 88.757812 102.785156 88.488281 C 102.832031 88.246094 103.03125 88.109375 103.242188 88.164062 L 106.789062 89.082031 C 107.167969 89.179688 107.453125 89.621094 107.421875 90.066406 C 107.390625 90.515625 107.054688 90.796875 106.675781 90.699219 C 106.644531 90.691406 106.605469 90.679688 106.578125 90.667969 " fill-opacity="1" fill-rule="nonzero"/><path fill="#ffffff" d="M 115.707031 83.398438 C 115.660156 84.296875 116.351562 85.066406 117.25 85.113281 C 118.148438 85.160156 118.914062 84.46875 118.960938 83.566406 C 119.007812 82.664062 118.316406 81.898438 117.417969 81.851562 C 116.519531 81.804688 115.753906 82.496094 115.707031 83.398438 " fill-opacity="1" fill-rule="nonzero"/><path fill="#be1c2d" d="M 126.59375 105.695312 C 127.835938 109.746094 132.117188 113.144531 136.582031 110.984375 C 138.710938 109.90625 139.976562 107.765625 140.960938 105.625 C 140.960938 105.625 141.390625 104.742188 141.164062 103.902344 C 141.132812 103.785156 141.089844 103.664062 141.023438 103.550781 C 140.652344 102.855469 139.679688 102.292969 137.429688 102.441406 C 136.503906 102.5 135.152344 102.539062 133.761719 102.550781 C 132.375 102.550781 131.019531 102.527344 130.097656 102.476562 C 128.035156 102.359375 127.050781 102.832031 126.617188 103.445312 C 126.5 103.613281 126.421875 103.792969 126.375 103.976562 C 126.15625 104.816406 126.59375 105.695312 126.59375 105.695312 " fill-opacity="1" fill-rule="nonzero"/><path fill="#ffffff" d="M 126.617188 103.445312 C 126.976562 104.085938 127.652344 104.523438 128.4375 104.535156 L 139.101562 104.703125 C 139.9375 104.71875 140.667969 104.25 141.023438 103.550781 C 140.652344 102.855469 139.679688 102.292969 137.429688 102.441406 C 136.503906 102.5 135.152344 102.539062 133.761719 102.550781 C 132.375 102.550781 131.019531 102.527344 130.097656 102.476562 C 128.035156 102.359375 127.050781 102.832031 126.617188 103.445312 " fill-opacity="1" fill-rule="nonzero"/><path fill="#3e94c9" d="M 71.714844 163.1875 C 72.214844 163.113281 72.640625 162.8125 72.941406 162.375 C 73.242188 161.9375 73.414062 161.363281 73.398438 160.734375 C 73.152344 149.039062 72.972656 137.039062 70.398438 125.699219 C 70.078125 124.28125 68.957031 123.328125 67.8125 123.503906 L 63.503906 124.167969 C 62.359375 124.347656 61.574219 125.59375 61.695312 127.042969 C 62.621094 138.253906 65.863281 149.371094 69.042969 160.246094 C 69.152344 160.617188 69.261719 160.984375 69.367188 161.355469 C 69.722656 162.566406 70.714844 163.34375 71.714844 163.1875 " fill-opacity="1" fill-rule="nonzero"/><path fill="#469cdc" d="M 70.804688 161.0625 C 71.277344 160.992188 71.679688 160.710938 71.964844 160.296875 C 72.246094 159.886719 72.410156 159.34375 72.398438 158.746094 C 72.164062 147.707031 71.992188 136.386719 69.566406 125.679688 C 69.265625 124.34375 68.203125 123.445312 67.121094 123.609375 L 63.503906 124.167969 C 62.359375 124.347656 61.574219 125.59375 61.695312 127.042969 C 62.621094 138.253906 65.863281 149.371094 69.042969 160.246094 C 69.492188 160.839844 70.148438 161.167969 70.804688 161.0625 " fill-opacity="1" fill-rule="nonzero"/><path fill="#a5a5a4" d="M 65.914062 125.496094 C 66.445312 125.414062 66.941406 125.296875 67.375 125.152344 C 67.738281 125.035156 68.058594 124.898438 68.320312 124.753906 C 68.601562 124.601562 68.820312 124.4375 68.960938 124.273438 C 69.089844 124.121094 69.148438 123.964844 69.125 123.816406 C 69.121094 123.78125 69.109375 123.742188 69.09375 123.707031 L 66.273438 114.375 L 62.226562 114.996094 L 62.34375 124.75 C 62.335938 124.789062 62.339844 124.828125 62.34375 124.863281 C 62.367188 125.007812 62.464844 125.132812 62.625 125.238281 C 63.175781 125.601562 64.460938 125.722656 65.914062 125.496094 " fill-opacity="1" fill-rule="nonzero"/><path fill="#b9b7b6" d="M 67.375 125.152344 C 67.738281 125.035156 68.058594 124.898438 68.320312 124.753906 L 65.511719 114.492188 L 64.910156 114.582031 L 67.375 125.152344 " fill-opacity="1" fill-rule="nonzero"/><path fill="#858a8b" d="M 68.960938 124.273438 C 69.089844 124.121094 69.148438 123.964844 69.125 123.816406 C 69.121094 123.78125 69.109375 123.742188 69.09375 123.707031 L 66.273438 114.375 L 65.964844 114.421875 L 68.960938 124.273438 " fill-opacity="1" fill-rule="nonzero"/><path fill="#858a8b" d="M 62.625 125.238281 L 62.503906 114.953125 L 62.226562 114.996094 L 62.34375 124.75 C 62.335938 124.789062 62.339844 124.828125 62.34375 124.863281 C 62.367188 125.007812 62.464844 125.132812 62.625 125.238281 " fill-opacity="1" fill-rule="nonzero"/><path fill="#bd7532" d="M 64.4375 115.921875 C 66.183594 115.652344 67.3125 113.570312 66.957031 111.273438 C 66.605469 108.972656 64.902344 107.328125 63.160156 107.597656 C 61.414062 107.867188 60.285156 109.949219 60.640625 112.25 C 60.992188 114.546875 62.695312 116.191406 64.4375 115.921875 " fill-opacity="1" fill-rule="nonzero"/><path fill="#d19041" d="M 61.417969 114.320312 C 61.125 114.242188 59.050781 109.925781 61.203125 101.566406 C 61.203125 101.566406 61.96875 98.503906 61.738281 96.191406 C 61.738281 96.191406 67.878906 108.59375 67.003906 112.585938 C 67.003906 112.585938 65.234375 115.3125 61.417969 114.320312 " fill-opacity="1" fill-rule="nonzero"/><path fill="#e28d6c" d="M 57.914062 130.96875 C 57.914062 130.96875 59.34375 127.300781 64.417969 127.574219 C 64.417969 127.574219 70.9375 127.640625 70.6875 129.621094 C 70.6875 129.621094 70.636719 130.847656 66 131.535156 C 66 131.535156 71.023438 132 71.023438 134.082031 C 71.023438 134.082031 70.566406 135.78125 67.496094 135.550781 C 67.496094 135.550781 69.90625 136.421875 69.179688 137.570312 C 69.179688 137.570312 68.320312 139.226562 66.164062 139.230469 C 66.164062 139.230469 67.964844 139.507812 67.746094 140.328125 C 67.746094 140.328125 68.066406 144.753906 60.617188 143.128906 C 57.578125 142.46875 54.457031 139.34375 57.914062 130.96875 " fill-opacity="1" fill-rule="nonzero"/><path fill="#faba97" d="M 57.414062 130.527344 C 57.414062 130.527344 58.847656 126.859375 63.921875 127.132812 C 63.921875 127.132812 70.441406 127.199219 70.1875 129.179688 C 70.1875 129.179688 70.136719 130.40625 65.503906 131.09375 C 65.503906 131.09375 70.527344 131.558594 70.523438 133.640625 C 70.523438 133.640625 70.066406 135.339844 67 135.109375 C 67 135.109375 69.410156 135.980469 68.683594 137.128906 C 68.683594 137.128906 67.824219 138.785156 65.667969 138.789062 C 65.667969 138.789062 67.46875 139.066406 67.25 139.890625 C 67.25 139.890625 67.570312 144.3125 60.121094 142.6875 C 57.082031 142.027344 53.960938 138.902344 57.414062 130.527344 " fill-opacity="1" fill-rule="nonzero"/><path fill="#e28d6c" d="M 61.691406 131.292969 C 61.71875 131.296875 61.746094 131.296875 61.773438 131.292969 C 62.707031 131.15625 65.15625 131.316406 65.179688 131.316406 C 65.332031 131.328125 65.476562 131.222656 65.507812 131.082031 C 65.535156 130.941406 65.4375 130.820312 65.285156 130.808594 C 65.183594 130.800781 62.746094 130.644531 61.75 130.792969 C 61.59375 130.816406 61.476562 130.945312 61.484375 131.082031 C 61.488281 131.199219 61.578125 131.28125 61.691406 131.292969 " fill-opacity="1" fill-rule="nonzero"/><path fill="#e28d6c" d="M 61.34375 134.800781 C 61.386719 134.804688 61.429688 134.800781 61.472656 134.785156 C 61.804688 134.703125 64.328125 134.957031 66.574219 135.253906 L 66.578125 135.253906 C 66.726562 135.273438 66.875 135.175781 66.914062 135.039062 C 66.953125 134.898438 66.867188 134.769531 66.71875 134.75 C 65.601562 134.601562 61.90625 134.136719 61.351562 134.308594 C 61.203125 134.355469 61.109375 134.5 61.140625 134.632812 C 61.164062 134.726562 61.246094 134.789062 61.34375 134.800781 " fill-opacity="1" fill-rule="nonzero"/><path fill="#e28d6c" d="M 60.667969 138.753906 L 60.730469 138.753906 C 61.792969 138.660156 65.210938 138.964844 65.246094 138.96875 C 65.394531 138.980469 65.542969 138.878906 65.574219 138.738281 C 65.609375 138.601562 65.511719 138.480469 65.363281 138.460938 C 65.222656 138.449219 61.859375 138.148438 60.742188 138.246094 C 60.589844 138.261719 60.460938 138.382812 60.457031 138.523438 C 60.453125 138.644531 60.546875 138.738281 60.667969 138.753906 " fill-opacity="1" fill-rule="nonzero"/><path fill="#ea8d44" d="M 194.164062 161.308594 C 196.578125 158.917969 200.839844 159.3125 203.6875 162.191406 C 206.53125 165.070312 206.878906 169.34375 204.464844 171.738281 C 202.050781 174.132812 197.789062 173.738281 194.941406 170.855469 C 192.097656 167.976562 191.75 163.703125 194.164062 161.308594 M 188.550781 156.546875 C 187.714844 158.019531 187.140625 159.597656 186.835938 161.21875 L 186.828125 161.253906 C 185.945312 165.988281 187.316406 171.058594 190.949219 174.738281 C 193.308594 177.125 196.257812 178.5625 199.332031 179.050781 C 199.824219 179.195312 200.316406 179.253906 200.808594 179.214844 L 200.8125 179.214844 C 201.367188 179.246094 201.925781 179.25 202.480469 179.222656 C 208.855469 179.761719 215.449219 185.769531 215.449219 185.769531 C 224.417969 194.847656 239.035156 194.925781 248.097656 185.941406 C 254.582031 179.515625 256.46875 170.1875 253.726562 162.078125 L 253.710938 162.03125 C 253.695312 161.984375 253.679688 161.9375 253.664062 161.890625 C 248.230469 146.066406 229.332031 135.621094 209.925781 140.042969 C 197.007812 142.984375 191.085938 151.246094 188.550781 156.546875 " fill-opacity="1" fill-rule="nonzero"/><g clip-path="url(#1aafa01936)"><path fill="#f9a754" d="M 194.730469 160.746094 C 197.144531 158.355469 201.40625 158.75 204.253906 161.628906 C 207.097656 164.507812 207.445312 168.785156 205.03125 171.175781 C 202.617188 173.570312 198.355469 173.175781 195.511719 170.292969 C 192.664062 167.414062 192.316406 163.140625 194.730469 160.746094 M 189.117188 155.988281 C 188.28125 157.457031 187.707031 159.035156 187.402344 160.660156 L 187.394531 160.691406 L 187.394531 160.695312 C 186.511719 165.425781 187.882812 170.496094 191.515625 174.175781 C 193.875 176.5625 196.828125 178 199.902344 178.488281 C 200.394531 178.632812 200.886719 178.691406 201.375 178.652344 L 201.382812 178.652344 C 201.9375 178.683594 202.492188 178.6875 203.046875 178.660156 C 209.421875 179.199219 216.019531 185.207031 216.019531 185.207031 C 224.984375 194.285156 239.601562 194.363281 248.664062 185.378906 C 255.152344 178.953125 257.035156 169.628906 254.292969 161.515625 L 254.277344 161.46875 C 254.261719 161.421875 254.246094 161.375 254.230469 161.328125 C 248.796875 145.503906 229.898438 135.058594 210.496094 139.480469 C 197.574219 142.421875 191.65625 150.683594 189.117188 155.988281 " fill-opacity="1" fill-rule="nonzero"/></g><path fill="#ea1c24" d="M 240.425781 155.804688 C 238.898438 157.316406 239.40625 160.308594 241.558594 162.488281 C 243.707031 164.664062 246.691406 165.199219 248.21875 163.6875 C 249.746094 162.171875 249.238281 159.183594 247.085938 157.003906 C 244.9375 154.824219 241.957031 154.289062 240.425781 155.804688 " fill-opacity="1" fill-rule="nonzero"/><path fill="#f3671a" d="M 245.097656 164.464844 C 245.097656 164.464844 245.097656 164.464844 245.09375 164.464844 C 245.097656 164.464844 245.097656 164.464844 245.097656 164.464844 M 245.085938 164.464844 C 245.082031 164.464844 245.078125 164.464844 245.074219 164.460938 C 245.078125 164.464844 245.082031 164.464844 245.085938 164.464844 M 245.070312 164.460938 C 245.066406 164.460938 245.0625 164.460938 245.054688 164.457031 C 245.0625 164.460938 245.066406 164.460938 245.070312 164.460938 M 245.054688 164.457031 C 243.871094 164.230469 242.613281 163.554688 241.554688 162.488281 C 240.441406 161.359375 239.769531 160.015625 239.59375 158.769531 C 239.769531 160.015625 240.445312 161.359375 241.558594 162.488281 C 242.613281 163.554688 243.871094 164.230469 245.054688 164.457031 M 244.125 155.164062 C 244.125 155.164062 244.121094 155.164062 244.117188 155.164062 C 244.121094 155.164062 244.125 155.164062 244.125 155.164062 M 244.113281 155.160156 C 244.109375 155.160156 244.101562 155.15625 244.097656 155.15625 C 244.101562 155.15625 244.109375 155.160156 244.113281 155.160156 M 244.097656 155.15625 C 243.621094 155.015625 243.148438 154.945312 242.699219 154.945312 C 242.535156 154.945312 242.375 154.953125 242.214844 154.972656 C 242.375 154.953125 242.535156 154.945312 242.699219 154.945312 C 243.148438 154.945312 243.621094 155.015625 244.097656 155.15625 " fill-opacity="1" fill-rule="nonzero"/><path fill="#de1d25" d="M 245.871094 164.546875 C 245.617188 164.542969 245.359375 164.515625 245.097656 164.464844 C 245.097656 164.464844 245.097656 164.464844 245.09375 164.464844 C 245.09375 164.464844 245.085938 164.464844 245.085938 164.464844 C 245.082031 164.464844 245.078125 164.464844 245.074219 164.460938 C 245.074219 164.460938 245.070312 164.460938 245.070312 164.460938 C 245.066406 164.460938 245.0625 164.460938 245.054688 164.457031 C 243.871094 164.230469 242.613281 163.554688 241.558594 162.488281 C 240.445312 161.359375 239.769531 160.015625 239.59375 158.769531 C 239.425781 157.609375 239.691406 156.53125 240.429688 155.804688 C 240.90625 155.328125 241.523438 155.058594 242.214844 154.972656 C 242.375 154.953125 242.535156 154.945312 242.699219 154.945312 C 243.148438 154.945312 243.621094 155.015625 244.097656 155.15625 C 244.101562 155.15625 244.109375 155.160156 244.113281 155.160156 C 244.113281 155.160156 244.117188 155.160156 244.117188 155.164062 C 244.121094 155.164062 244.125 155.164062 244.125 155.164062 C 244.1875 155.183594 244.25 155.203125 244.3125 155.222656 C 244.289062 155.222656 244.265625 155.222656 244.242188 155.222656 C 243.355469 155.222656 242.554688 155.503906 241.96875 156.082031 C 240.441406 157.597656 240.945312 160.589844 243.097656 162.769531 C 243.941406 163.621094 244.910156 164.222656 245.871094 164.546875 " fill-opacity="1" fill-rule="nonzero"/><path fill="#f03e53" d="M 248.074219 162.261719 C 247.691406 162.261719 247.289062 161.835938 247.132812 161.238281 C 246.960938 160.574219 247.15625 159.949219 247.570312 159.839844 C 247.613281 159.828125 247.65625 159.824219 247.699219 159.824219 C 248.082031 159.824219 248.480469 160.246094 248.640625 160.84375 C 248.8125 161.507812 248.617188 162.136719 248.203125 162.246094 C 248.160156 162.253906 248.117188 162.261719 248.074219 162.261719 " fill-opacity="1" fill-rule="nonzero"/><path fill="#f3cc26" d="M 243.839844 167.195312 C 241.691406 167.160156 239.90625 169.613281 239.855469 172.675781 C 239.804688 175.738281 241.503906 178.25 243.652344 178.285156 C 245.800781 178.324219 247.585938 175.867188 247.636719 172.804688 C 247.6875 169.746094 245.988281 167.230469 243.839844 167.195312 " fill-opacity="1" fill-rule="nonzero"/><path fill="#f3671a" d="M 240.710938 176.265625 C 240.710938 176.265625 240.710938 176.261719 240.710938 176.261719 C 240.710938 176.261719 240.710938 176.265625 240.710938 176.265625 M 240.707031 176.253906 C 240.703125 176.25 240.703125 176.246094 240.699219 176.242188 C 240.703125 176.246094 240.703125 176.25 240.707031 176.253906 M 240.699219 176.242188 C 240.152344 175.273438 239.832031 174.027344 239.855469 172.675781 C 239.882812 171.132812 240.347656 169.746094 241.078125 168.75 C 240.347656 169.746094 239.882812 171.132812 239.855469 172.675781 C 239.832031 174.027344 240.152344 175.273438 240.699219 176.242188 M 246.8125 169.269531 C 246.808594 169.269531 246.808594 169.269531 246.808594 169.265625 C 246.808594 169.269531 246.808594 169.269531 246.8125 169.269531 M 246.804688 169.261719 C 246.386719 168.507812 245.828125 167.914062 245.183594 167.5625 C 245.828125 167.914062 246.386719 168.507812 246.804688 169.261719 M 245.179688 167.558594 C 245.179688 167.558594 245.175781 167.558594 245.171875 167.554688 C 245.175781 167.558594 245.179688 167.558594 245.179688 167.558594 M 245.171875 167.554688 C 245.167969 167.554688 245.164062 167.550781 245.164062 167.550781 C 245.164062 167.550781 245.167969 167.554688 245.171875 167.554688 M 245.15625 167.546875 L 245.15625 167.546875 " fill-opacity="1" fill-rule="nonzero"/><path fill="#eda110" d="M 241.398438 177.207031 C 241.144531 176.933594 240.914062 176.617188 240.710938 176.265625 C 240.710938 176.265625 240.710938 176.261719 240.710938 176.261719 C 240.707031 176.257812 240.707031 176.257812 240.707031 176.253906 C 240.703125 176.25 240.703125 176.246094 240.699219 176.242188 C 240.152344 175.273438 239.832031 174.027344 239.855469 172.675781 C 239.882812 171.132812 240.347656 169.746094 241.078125 168.75 C 241.785156 167.785156 242.746094 167.195312 243.792969 167.195312 C 243.808594 167.195312 243.824219 167.195312 243.839844 167.195312 C 244.304688 167.203125 244.746094 167.328125 245.15625 167.546875 C 245.160156 167.546875 245.160156 167.550781 245.164062 167.550781 C 245.164062 167.550781 245.167969 167.554688 245.171875 167.554688 C 245.175781 167.558594 245.179688 167.558594 245.179688 167.558594 C 245.183594 167.558594 245.183594 167.5625 245.183594 167.5625 C 245.828125 167.914062 246.386719 168.507812 246.804688 169.261719 C 246.808594 169.261719 246.808594 169.265625 246.808594 169.265625 C 246.808594 169.269531 246.808594 169.269531 246.8125 169.269531 C 246.867188 169.371094 246.917969 169.472656 246.96875 169.578125 C 246.339844 168.910156 245.5625 168.511719 244.714844 168.496094 C 244.699219 168.496094 244.683594 168.496094 244.667969 168.496094 C 242.539062 168.496094 240.78125 170.9375 240.730469 173.976562 C 240.710938 175.175781 240.960938 176.289062 241.398438 177.207031 " fill-opacity="1" fill-rule="nonzero"/><path fill="#f5dc5c" d="M 244.949219 177.339844 C 244.847656 177.339844 244.753906 177.316406 244.671875 177.265625 C 244.304688 177.046875 244.292969 176.390625 244.644531 175.800781 C 244.917969 175.34375 245.332031 175.0625 245.675781 175.0625 C 245.773438 175.0625 245.867188 175.085938 245.949219 175.132812 C 246.320312 175.355469 246.332031 176.011719 245.980469 176.601562 C 245.703125 177.058594 245.292969 177.339844 244.949219 177.339844 " fill-opacity="1" fill-rule="nonzero"/><path fill="#e0561d" d="M 229.386719 180.628906 C 229.089844 182.761719 231.304688 184.832031 234.332031 185.257812 C 237.363281 185.679688 240.058594 184.292969 240.355469 182.164062 C 240.648438 180.03125 238.4375 177.960938 235.40625 177.535156 C 232.378906 177.113281 229.683594 178.5 229.386719 180.628906 " fill-opacity="1" fill-rule="nonzero"/><path fill="#f57a28" d="M 235.414062 185.332031 C 235.0625 185.332031 234.699219 185.308594 234.332031 185.257812 C 232.441406 184.992188 230.863281 184.082031 230.023438 182.921875 C 230.863281 184.082031 232.441406 184.992188 234.332031 185.257812 C 234.699219 185.308594 235.0625 185.332031 235.414062 185.332031 C 236.296875 185.332031 237.125 185.179688 237.839844 184.902344 C 237.125 185.179688 236.296875 185.332031 235.414062 185.332031 M 237.84375 184.902344 C 237.847656 184.902344 237.847656 184.898438 237.851562 184.898438 C 237.847656 184.898438 237.847656 184.902344 237.84375 184.902344 M 237.859375 184.894531 C 237.859375 184.894531 237.859375 184.894531 237.863281 184.894531 C 237.859375 184.894531 237.859375 184.894531 237.859375 184.894531 " fill-opacity="1" fill-rule="nonzero"/><path fill="#d12a23" d="M 235.414062 185.332031 C 235.0625 185.332031 234.699219 185.308594 234.332031 185.257812 C 232.441406 184.992188 230.863281 184.082031 230.023438 182.921875 C 229.515625 182.222656 229.273438 181.429688 229.386719 180.628906 C 229.566406 179.335938 230.632812 178.3125 232.125 177.808594 C 231.386719 178.351562 230.898438 179.078125 230.78125 179.917969 C 230.484375 182.050781 232.699219 184.121094 235.726562 184.542969 C 236.09375 184.59375 236.457031 184.617188 236.8125 184.617188 C 237.601562 184.617188 238.34375 184.496094 239.007812 184.273438 C 238.671875 184.519531 238.285156 184.730469 237.863281 184.894531 C 237.859375 184.894531 237.859375 184.894531 237.859375 184.894531 C 237.855469 184.898438 237.851562 184.898438 237.851562 184.898438 C 237.847656 184.898438 237.847656 184.902344 237.84375 184.902344 C 237.84375 184.902344 237.84375 184.902344 237.839844 184.902344 C 237.125 185.179688 236.296875 185.332031 235.414062 185.332031 " fill-opacity="1" fill-rule="nonzero"/><path fill="#ea873c" d="M 238.953125 181.242188 C 238.664062 181.242188 238.320312 181.117188 238.011719 180.875 C 237.46875 180.453125 237.246094 179.835938 237.507812 179.496094 C 237.621094 179.351562 237.808594 179.28125 238.023438 179.28125 C 238.3125 179.28125 238.65625 179.40625 238.964844 179.644531 C 239.507812 180.070312 239.730469 180.6875 239.46875 181.027344 C 239.355469 181.171875 239.167969 181.242188 238.953125 181.242188 " fill-opacity="1" fill-rule="nonzero"/><path fill="#459cdc" d="M 216.789062 173.335938 C 215.289062 174.878906 215.851562 177.859375 218.042969 179.996094 C 220.234375 182.132812 223.222656 182.617188 224.722656 181.074219 C 226.222656 179.535156 225.660156 176.550781 223.472656 174.414062 C 221.28125 172.277344 218.289062 171.792969 216.789062 173.335938 " fill-opacity="1" fill-rule="nonzero"/><path fill="#f3671a" d="M 221.199219 181.824219 C 220.121094 181.554688 219.003906 180.9375 218.042969 179.996094 C 215.910156 177.917969 215.324219 175.039062 216.671875 173.464844 C 215.324219 175.039062 215.910156 177.917969 218.042969 179.996094 C 219.003906 180.9375 220.121094 181.554688 221.199219 181.824219 M 217.726562 172.699219 C 218.152344 172.519531 218.625 172.433594 219.125 172.433594 C 219.222656 172.433594 219.320312 172.4375 219.421875 172.445312 C 219.320312 172.4375 219.222656 172.433594 219.125 172.433594 C 218.625 172.433594 218.152344 172.519531 217.726562 172.699219 M 219.511719 172.449219 L 219.511719 172.449219 M 219.5 172.449219 C 219.5 172.449219 219.5 172.449219 219.496094 172.449219 C 219.5 172.449219 219.5 172.449219 219.5 172.449219 M 219.488281 172.449219 C 219.484375 172.449219 219.480469 172.449219 219.476562 172.449219 C 219.480469 172.449219 219.484375 172.449219 219.488281 172.449219 M 219.46875 172.445312 C 219.464844 172.445312 219.464844 172.445312 219.460938 172.445312 C 219.464844 172.445312 219.464844 172.445312 219.46875 172.445312 M 219.457031 172.445312 C 219.445312 172.445312 219.433594 172.445312 219.425781 172.445312 C 219.433594 172.445312 219.445312 172.445312 219.457031 172.445312 " fill-opacity="1" fill-rule="nonzero"/><path fill="#3552ab" d="M 222.386719 181.976562 C 222.003906 181.976562 221.605469 181.925781 221.199219 181.824219 C 220.121094 181.554688 219.003906 180.9375 218.042969 179.996094 C 215.910156 177.917969 215.324219 175.039062 216.671875 173.464844 C 216.710938 173.421875 216.75 173.378906 216.789062 173.335938 C 217.058594 173.058594 217.375 172.847656 217.726562 172.699219 C 218.152344 172.519531 218.625 172.433594 219.125 172.433594 C 219.222656 172.433594 219.320312 172.4375 219.421875 172.445312 C 219.421875 172.445312 219.425781 172.445312 219.425781 172.445312 C 219.433594 172.445312 219.445312 172.445312 219.457031 172.445312 C 219.457031 172.445312 219.457031 172.445312 219.460938 172.445312 C 219.464844 172.445312 219.464844 172.445312 219.46875 172.445312 C 219.472656 172.445312 219.472656 172.445312 219.476562 172.449219 C 219.480469 172.449219 219.484375 172.449219 219.488281 172.449219 C 219.492188 172.449219 219.492188 172.449219 219.496094 172.449219 C 219.5 172.449219 219.5 172.449219 219.5 172.449219 C 219.503906 172.449219 219.507812 172.449219 219.511719 172.449219 C 219.519531 172.453125 219.527344 172.453125 219.535156 172.453125 C 219.902344 172.488281 220.285156 172.5625 220.664062 172.6875 C 219.75 172.6875 218.925781 172.980469 218.335938 173.589844 C 216.835938 175.128906 217.398438 178.113281 219.585938 180.25 C 220.445312 181.085938 221.425781 181.667969 222.394531 181.976562 C 222.390625 181.976562 222.390625 181.976562 222.386719 181.976562 " fill-opacity="1" fill-rule="nonzero"/><path fill="#66c0eb" d="M 224.546875 179.652344 C 224.167969 179.652344 223.761719 179.238281 223.59375 178.648438 C 223.410156 177.988281 223.59375 177.355469 224.007812 177.238281 C 224.050781 177.226562 224.097656 177.21875 224.144531 177.21875 C 224.523438 177.21875 224.925781 177.636719 225.09375 178.226562 C 225.28125 178.886719 225.09375 179.515625 224.679688 179.632812 C 224.636719 179.644531 224.589844 179.652344 224.546875 179.652344 " fill-opacity="1" fill-rule="nonzero"/><path fill="#3b393d" d="M 227.320312 149.234375 C 226.25 151.191406 227.640625 153.886719 230.425781 155.257812 C 233.210938 156.625 236.335938 156.152344 237.402344 154.195312 C 238.472656 152.238281 237.082031 149.539062 234.296875 148.171875 C 231.511719 146.800781 228.386719 147.277344 227.320312 149.234375 " fill-opacity="1" fill-rule="nonzero"/><path fill="#f3671a" d="M 233.664062 156.039062 C 232.625 156.039062 231.5 155.785156 230.425781 155.257812 C 228.945312 154.53125 227.859375 153.429688 227.328125 152.261719 C 227.859375 153.429688 228.945312 154.53125 230.425781 155.257812 C 231.5 155.785156 232.625 156.039062 233.664062 156.039062 C 233.96875 156.039062 234.265625 156.015625 234.554688 155.972656 C 234.265625 156.015625 233.96875 156.039062 233.664062 156.039062 M 234.5625 155.972656 C 234.5625 155.972656 234.5625 155.972656 234.566406 155.972656 C 234.5625 155.972656 234.5625 155.972656 234.5625 155.972656 M 228.296875 148.164062 C 228.296875 148.164062 228.296875 148.164062 228.300781 148.160156 C 228.296875 148.164062 228.296875 148.164062 228.296875 148.164062 M 228.300781 148.160156 C 228.957031 147.707031 229.800781 147.445312 230.734375 147.398438 C 229.804688 147.449219 228.957031 147.707031 228.300781 148.160156 M 230.734375 147.398438 C 230.734375 147.398438 230.738281 147.398438 230.738281 147.398438 C 230.738281 147.398438 230.734375 147.398438 230.734375 147.398438 " fill-opacity="1" fill-rule="nonzero"/><path fill="#171514" d="M 233.664062 156.039062 C 232.625 156.039062 231.5 155.785156 230.425781 155.257812 C 228.945312 154.53125 227.859375 153.429688 227.328125 152.261719 C 226.859375 151.230469 226.820312 150.152344 227.320312 149.234375 C 227.554688 148.804688 227.886719 148.445312 228.296875 148.164062 C 228.296875 148.164062 228.296875 148.164062 228.300781 148.160156 C 228.957031 147.707031 229.804688 147.449219 230.734375 147.398438 C 230.734375 147.398438 230.738281 147.398438 230.738281 147.398438 C 230.828125 147.394531 230.917969 147.390625 231.011719 147.390625 C 230.097656 147.679688 229.355469 148.222656 228.933594 148.992188 C 227.863281 150.949219 229.257812 153.644531 232.042969 155.015625 C 233.117188 155.542969 234.242188 155.796875 235.277344 155.796875 C 235.292969 155.796875 235.3125 155.796875 235.328125 155.796875 C 235.082031 155.875 234.828125 155.933594 234.566406 155.972656 C 234.5625 155.972656 234.5625 155.972656 234.5625 155.972656 C 234.558594 155.972656 234.558594 155.972656 234.554688 155.972656 C 234.265625 156.015625 233.96875 156.039062 233.664062 156.039062 " fill-opacity="1" fill-rule="nonzero"/><path fill="#747578" d="M 236.640625 152.90625 C 236.292969 152.90625 235.878906 152.644531 235.601562 152.210938 C 235.230469 151.632812 235.238281 150.96875 235.621094 150.726562 C 235.714844 150.664062 235.824219 150.636719 235.9375 150.636719 C 236.289062 150.636719 236.703125 150.898438 236.980469 151.332031 C 237.347656 151.910156 237.339844 152.574219 236.960938 152.820312 C 236.867188 152.878906 236.757812 152.90625 236.640625 152.90625 " fill-opacity="1" fill-rule="nonzero"/><path fill="#29933f" d="M 211.1875 151.425781 C 211.675781 153.523438 214.484375 154.660156 217.464844 153.96875 C 220.441406 153.273438 222.460938 151.011719 221.976562 148.917969 C 221.488281 146.820312 218.679688 145.683594 215.703125 146.375 C 212.722656 147.070312 210.703125 149.332031 211.1875 151.425781 " fill-opacity="1" fill-rule="nonzero"/><path fill="#f3671a" d="M 215.722656 154.171875 C 215 154.171875 214.316406 154.0625 213.710938 153.859375 C 214.316406 154.0625 215 154.171875 215.722656 154.171875 C 216.285156 154.171875 216.871094 154.105469 217.464844 153.96875 C 218.851562 153.644531 220.035156 152.980469 220.851562 152.148438 C 220.035156 152.980469 218.851562 153.644531 217.460938 153.96875 C 216.871094 154.105469 216.285156 154.171875 215.722656 154.171875 M 220.851562 152.144531 C 220.855469 152.144531 220.855469 152.140625 220.859375 152.140625 C 220.859375 152.140625 220.855469 152.144531 220.851562 152.144531 M 211.1875 151.425781 C 211.1875 151.425781 211.1875 151.421875 211.1875 151.417969 C 211.1875 151.421875 211.1875 151.425781 211.1875 151.425781 M 211.183594 151.414062 C 211.183594 151.410156 211.183594 151.40625 211.183594 151.402344 C 211.183594 151.40625 211.183594 151.410156 211.183594 151.414062 M 211.183594 151.398438 C 211.183594 151.398438 211.183594 151.394531 211.183594 151.394531 C 211.183594 151.394531 211.183594 151.398438 211.183594 151.398438 M 211.179688 151.386719 C 211.179688 151.382812 211.179688 151.382812 211.179688 151.382812 C 211.179688 151.382812 211.179688 151.382812 211.179688 151.386719 M 211.320312 149.703125 C 211.320312 149.699219 211.324219 149.699219 211.324219 149.699219 C 211.324219 149.699219 211.320312 149.699219 211.320312 149.703125 M 211.328125 149.691406 C 211.328125 149.6875 211.328125 149.6875 211.328125 149.683594 C 211.328125 149.6875 211.328125 149.6875 211.328125 149.691406 M 211.332031 149.679688 C 211.332031 149.675781 211.332031 149.675781 211.335938 149.671875 C 211.332031 149.675781 211.332031 149.675781 211.332031 149.679688 M 211.335938 149.667969 C 211.335938 149.664062 211.335938 149.660156 211.339844 149.660156 C 211.335938 149.660156 211.335938 149.664062 211.335938 149.667969 M 211.339844 149.65625 C 211.339844 149.652344 211.34375 149.648438 211.34375 149.644531 C 211.34375 149.648438 211.339844 149.652344 211.339844 149.65625 M 211.34375 149.644531 C 211.347656 149.636719 211.351562 149.628906 211.351562 149.621094 C 211.351562 149.628906 211.347656 149.636719 211.34375 149.644531 M 211.351562 149.621094 C 211.480469 149.304688 211.65625 148.996094 211.875 148.703125 C 211.65625 148.996094 211.480469 149.304688 211.351562 149.621094 M 211.875 148.703125 C 211.878906 148.699219 211.882812 148.695312 211.886719 148.691406 C 211.882812 148.695312 211.878906 148.699219 211.875 148.703125 M 211.886719 148.691406 C 211.886719 148.6875 211.890625 148.6875 211.890625 148.683594 C 211.890625 148.6875 211.886719 148.6875 211.886719 148.691406 M 211.894531 148.679688 C 211.898438 148.675781 211.898438 148.675781 211.898438 148.671875 C 211.898438 148.675781 211.898438 148.675781 211.894531 148.679688 M 211.902344 148.667969 C 211.90625 148.667969 211.90625 148.667969 211.90625 148.667969 C 211.90625 148.667969 211.90625 148.667969 211.902344 148.667969 " fill-opacity="1" fill-rule="nonzero"/><path fill="#1c361c" d="M 215.722656 154.171875 C 215 154.171875 214.316406 154.0625 213.710938 153.859375 C 212.410156 153.429688 211.453125 152.570312 211.1875 151.425781 C 211.1875 151.425781 211.1875 151.421875 211.1875 151.417969 C 211.1875 151.414062 211.1875 151.414062 211.183594 151.414062 C 211.183594 151.410156 211.183594 151.40625 211.183594 151.402344 C 211.183594 151.402344 211.183594 151.402344 211.183594 151.398438 C 211.183594 151.398438 211.183594 151.394531 211.183594 151.394531 C 211.179688 151.390625 211.179688 151.386719 211.179688 151.386719 C 211.179688 151.382812 211.179688 151.382812 211.179688 151.382812 C 211.058594 150.824219 211.117188 150.257812 211.316406 149.714844 C 211.320312 149.710938 211.320312 149.707031 211.320312 149.703125 C 211.320312 149.699219 211.324219 149.699219 211.324219 149.699219 C 211.324219 149.695312 211.324219 149.691406 211.328125 149.691406 C 211.328125 149.6875 211.328125 149.6875 211.328125 149.683594 C 211.328125 149.683594 211.328125 149.679688 211.332031 149.679688 C 211.332031 149.675781 211.332031 149.675781 211.335938 149.671875 C 211.335938 149.667969 211.335938 149.667969 211.335938 149.667969 C 211.335938 149.664062 211.335938 149.660156 211.339844 149.660156 C 211.339844 149.660156 211.339844 149.65625 211.339844 149.65625 C 211.339844 149.652344 211.34375 149.648438 211.34375 149.644531 C 211.347656 149.636719 211.351562 149.628906 211.351562 149.621094 C 211.480469 149.304688 211.65625 148.996094 211.875 148.703125 C 211.878906 148.699219 211.882812 148.695312 211.886719 148.691406 C 211.886719 148.6875 211.890625 148.6875 211.890625 148.683594 C 211.894531 148.683594 211.894531 148.679688 211.894531 148.679688 C 211.898438 148.675781 211.898438 148.675781 211.898438 148.671875 C 211.902344 148.671875 211.902344 148.667969 211.902344 148.667969 C 211.90625 148.667969 211.90625 148.667969 211.90625 148.667969 C 212.136719 148.363281 212.414062 148.074219 212.734375 147.808594 C 212.242188 148.582031 212.042969 149.433594 212.234375 150.261719 C 212.625 151.941406 214.503906 153.003906 216.769531 153.003906 C 217.332031 153.003906 217.917969 152.9375 218.511719 152.800781 C 219.675781 152.53125 220.695312 152.019531 221.476562 151.367188 C 221.304688 151.636719 221.097656 151.894531 220.859375 152.140625 C 220.855469 152.140625 220.855469 152.144531 220.851562 152.144531 C 220.851562 152.148438 220.851562 152.148438 220.851562 152.148438 C 220.035156 152.980469 218.851562 153.644531 217.464844 153.96875 C 216.871094 154.105469 216.285156 154.171875 215.722656 154.171875 " fill-opacity="1" fill-rule="nonzero"/><path fill="#4eb86a" d="M 219.867188 148.640625 C 219.695312 148.640625 219.511719 148.613281 219.328125 148.558594 C 218.671875 148.359375 218.242188 147.859375 218.367188 147.449219 C 218.457031 147.15625 218.804688 146.984375 219.238281 146.984375 C 219.410156 146.984375 219.59375 147.011719 219.78125 147.066406 C 220.4375 147.265625 220.867188 147.761719 220.742188 148.175781 C 220.652344 148.46875 220.300781 148.640625 219.867188 148.640625 " fill-opacity="1" fill-rule="nonzero"/><path fill="#e51884" d="M 211.101562 158.121094 C 209.117188 158.949219 208.464844 161.914062 209.640625 164.742188 C 210.816406 167.566406 213.378906 169.1875 215.363281 168.359375 C 217.347656 167.53125 218 164.570312 216.824219 161.742188 C 215.648438 158.914062 213.085938 157.292969 211.101562 158.121094 " fill-opacity="1" fill-rule="nonzero"/><path fill="#f3671a" d="M 212.265625 167.960938 L 212.265625 167.960938 M 212.253906 167.957031 C 212.253906 167.957031 212.25 167.953125 212.25 167.953125 C 212.25 167.953125 212.253906 167.957031 212.253906 167.957031 M 212.25 167.953125 C 211.191406 167.300781 210.238281 166.175781 209.640625 164.742188 C 209.035156 163.289062 208.914062 161.800781 209.210938 160.585938 C 208.914062 161.800781 209.039062 163.289062 209.640625 164.742188 C 210.238281 166.175781 211.191406 167.300781 212.25 167.953125 M 214.875 159.007812 C 214.039062 158.304688 213.101562 157.90625 212.199219 157.90625 C 212.160156 157.90625 212.121094 157.90625 212.085938 157.90625 C 212.121094 157.90625 212.160156 157.90625 212.199219 157.90625 C 213.101562 157.90625 214.039062 158.304688 214.875 159.007812 " fill-opacity="1" fill-rule="nonzero"/><path fill="#d41e27" d="M 212.867188 168.273438 C 212.664062 168.1875 212.464844 168.082031 212.265625 167.960938 C 212.261719 167.960938 212.257812 167.957031 212.253906 167.957031 C 212.253906 167.957031 212.25 167.953125 212.25 167.953125 C 211.191406 167.300781 210.238281 166.175781 209.640625 164.742188 C 209.039062 163.289062 208.914062 161.800781 209.210938 160.585938 C 209.488281 159.433594 210.136719 158.523438 211.101562 158.121094 C 211.417969 157.992188 211.75 157.921875 212.085938 157.90625 C 212.121094 157.90625 212.160156 157.90625 212.199219 157.90625 C 213.101562 157.90625 214.039062 158.304688 214.875 159.007812 C 214.890625 159.023438 214.90625 159.035156 214.921875 159.050781 C 214.457031 158.851562 213.984375 158.746094 213.523438 158.746094 C 213.144531 158.746094 212.773438 158.816406 212.425781 158.960938 C 210.441406 159.789062 209.789062 162.753906 210.964844 165.582031 C 211.425781 166.6875 212.097656 167.609375 212.867188 168.273438 " fill-opacity="1" fill-rule="nonzero"/><path fill="#ed4eab" d="M 215.953125 167.023438 C 215.933594 167.023438 215.910156 167.019531 215.890625 167.015625 C 215.464844 166.960938 215.1875 166.363281 215.277344 165.683594 C 215.363281 165.039062 215.742188 164.546875 216.144531 164.546875 C 216.164062 164.546875 216.1875 164.546875 216.207031 164.550781 C 216.636719 164.605469 216.910156 165.203125 216.820312 165.882812 C 216.738281 166.53125 216.355469 167.023438 215.953125 167.023438 " fill-opacity="1" fill-rule="nonzero"/><path fill="#faba97" d="M 201.296875 167.339844 C 200.558594 168.519531 201.53125 170.027344 202.902344 171.375 C 195.597656 170.679688 194.984375 165.542969 195.1875 162.796875 C 198.464844 162.511719 203.6875 161.984375 205.214844 161.441406 C 207.5 160.628906 207.148438 161.445312 207.148438 161.445312 C 208.203125 163.886719 201.296875 167.339844 201.296875 167.339844 " fill-opacity="1" fill-rule="nonzero"/><path fill="#a91c25" d="M 139.128906 16.234375 C 139.128906 16.234375 134.332031 8.816406 130.417969 11.289062 C 126.503906 13.761719 132.632812 17.582031 132.632812 17.582031 L 139.128906 16.234375 " fill-opacity="1" fill-rule="nonzero"/><path fill="#a91c25" d="M 102.394531 50.097656 C 102.394531 50.097656 104.085938 53.246094 107.128906 53.246094 C 110.171875 53.246094 137.101562 46.726562 159.488281 50.097656 C 181.875 53.46875 177.578125 44.707031 177.578125 44.707031 C 177.578125 44.707031 123.363281 44.257812 102.394531 50.097656 " fill-opacity="1" fill-rule="nonzero"/><path fill="#c2212b" d="M 93.261719 53.332031 C 93.261719 53.332031 101.476562 55.035156 107.695312 51.976562 C 113.910156 48.917969 139.9375 44.347656 147.859375 46.269531 C 155.78125 48.195312 177.992188 48.195312 183.808594 43.113281 C 189.621094 38.035156 188.164062 28.671875 182.371094 24.492188 C 175.996094 19.894531 171.839844 12.15625 151.765625 12.882812 C 131.691406 13.609375 109.746094 22.796875 98.636719 31.023438 C 87.527344 39.246094 82.652344 47.828125 93.261719 53.332031 " fill-opacity="1" fill-rule="nonzero"/></svg>