<svg xmlns="http://www.w3.org/2000/svg" xmlns:xlink="http://www.w3.org/1999/xlink" width="380" zoomAndPan="magnify" viewBox="0 0 285 284.999983" height="380" preserveAspectRatio="xMidYMid meet" version="1.0"><path fill="#15193b" d="M 104.953125 264.851562 C 112.660156 263.804688 115.535156 269.121094 113.570312 281.011719 C 106.773438 281.152344 103.0625 280.3125 102.359375 278.492188 C 103.203125 273.175781 104.042969 268.628906 104.953125 264.851562 Z M 104.953125 264.851562 " fill-opacity="1" fill-rule="evenodd"/><path fill="#15193b" d="M 123.171875 270.238281 C 132 178.316406 121.070312 136.902344 90.378906 145.996094 C 87.644531 173 91.007812 213.15625 100.609375 266.390625 C 102.359375 268.492188 109.929688 269.75 123.171875 270.238281 Z M 123.171875 270.238281 " fill-opacity="1" fill-rule="evenodd"/><path fill="#ffcc99" d="M 90.796875 145.859375 C 90.660156 145.929688 90.519531 145.929688 90.378906 145.996094 C 87.644531 173 91.007812 213.15625 100.609375 266.390625 C 101.519531 267.441406 103.761719 268.28125 107.40625 268.910156 C 100.46875 236.730469 96.683594 196.507812 96.125 148.304688 C 94.300781 147.046875 92.480469 146.277344 90.796875 145.859375 Z M 90.796875 145.859375 " fill-opacity="0.2" fill-rule="evenodd"/><path fill="#cc6699" d="M 92.480469 52.816406 C 99.90625 78.28125 103.691406 91.011719 103.691406 91.011719 C 119.738281 90.59375 129.476562 78.769531 132.839844 55.476562 C 124.292969 48.269531 114.203125 45.121094 102.78125 46.03125 C 95.914062 50.578125 92.480469 52.816406 92.480469 52.816406 Z M 92.480469 52.816406 " fill-opacity="1" fill-rule="evenodd"/><path fill="#d97856" d="M 193.59375 54.984375 C 191.628906 58.414062 188.617188 60.09375 184.625 60.09375 C 188.757812 52.398438 191.910156 48.410156 194.082031 47.917969 C 194.921875 48.828125 194.785156 51.136719 193.59375 54.984375 Z M 193.59375 54.984375 " fill-opacity="1" fill-rule="evenodd"/><path fill="#15193b" d="M 193.59375 54.984375 C 191.628906 58.414062 188.617188 60.09375 184.625 60.09375 C 188.757812 52.398438 191.910156 48.410156 194.082031 47.917969 C 194.921875 48.828125 194.785156 51.136719 193.59375 54.984375 Z M 193.59375 54.984375 " fill-opacity="0.2" fill-rule="evenodd"/><path fill="#d97856" d="M 183.363281 61.632812 C 185.113281 65.269531 187.285156 66.949219 190.019531 66.667969 C 197.234375 61.699219 201.300781 58.554688 202.140625 57.292969 C 203.683594 51.066406 204.03125 46.730469 203.261719 46.101562 C 200.25 45.332031 190.789062 51.976562 183.363281 61.632812 Z M 183.363281 61.632812 " fill-opacity="1" fill-rule="evenodd"/><path fill="#ffffff" d="M 188.476562 74.152344 C 183.570312 71.355469 180.699219 67.4375 179.789062 62.402344 C 181.539062 60.929688 182.730469 59.953125 183.433594 59.53125 C 186.726562 60.929688 189.527344 63.378906 191.910156 66.738281 C 191.839844 67.4375 190.648438 69.886719 188.476562 74.152344 Z M 188.476562 74.152344 " fill-opacity="1" fill-rule="evenodd"/><path fill="#15193b" d="M 149.449219 89.613281 C 168.789062 91.570312 178.527344 92.550781 178.527344 92.550781 C 187.707031 79.820312 192.191406 72.195312 192.050781 69.816406 C 189.246094 66.25 183.363281 61.699219 179.859375 60.929688 C 177.546875 61.351562 167.386719 70.933594 149.449219 89.613281 Z M 149.449219 89.613281 " fill-opacity="1" fill-rule="evenodd"/><path fill="#15193b" d="M 86.734375 97.9375 C 113.222656 102.765625 123.453125 122.492188 112.03125 155.230469 C 100.1875 155.929688 81.128906 151.804688 80.636719 148.445312 C 80.636719 148.375 82.671875 131.585938 86.734375 97.9375 Z M 86.734375 97.9375 " fill-opacity="1" fill-rule="evenodd"/><path fill="#cc6699" d="M 86.734375 97.9375 C 90.308594 98.566406 93.601562 99.546875 96.542969 100.738281 C 96.335938 102.066406 96.195312 103.464844 95.984375 104.863281 C 91.921875 131.9375 90.660156 142.988281 94.023438 153.691406 C 86.804688 152.292969 80.847656 150.195312 80.636719 148.375 C 80.636719 148.375 82.671875 131.585938 86.734375 97.9375 Z M 86.734375 97.9375 " fill-opacity="0.2" fill-rule="evenodd"/><path fill="#15193b" d="M 156.105469 94.230469 C 131.371094 120.464844 109.578125 121.375 90.660156 97.027344 C 95.632812 87.304688 94.511719 72.542969 87.226562 52.746094 C 92.761719 50.578125 96.964844 48.621094 99.839844 46.730469 C 100.117188 58.761719 104.253906 72.542969 113.222656 89.125 C 122.75 75.832031 126.605469 62.75 124.851562 49.808594 C 124.152344 49.320312 123.800781 49.039062 123.800781 49.039062 C 127.445312 50.507812 130.808594 51.628906 133.753906 52.46875 C 140.058594 55.335938 147.554688 69.257812 156.105469 94.230469 Z M 156.105469 94.230469 " fill-opacity="1" fill-rule="evenodd"/><path fill="#15193b" d="M 130.320312 28.613281 C 113.992188 32.949219 105.863281 35.117188 105.863281 35.117188 C 99.066406 30.78125 95.421875 14.339844 98.15625 8.394531 C 102.851562 0.140625 125.132812 0 130.527344 5.386719 C 132.140625 7.414062 131.859375 18.46875 130.320312 28.613281 Z M 130.320312 28.613281 " fill-opacity="1" fill-rule="evenodd"/><path fill="#cc6699" d="M 137.183594 91.851562 C 133.683594 93.25 131.929688 93.878906 131.929688 93.878906 C 132.632812 83.945312 132.5625 74.011719 131.789062 64.148438 C 134.171875 73.734375 135.996094 82.898438 137.183594 91.851562 Z M 137.183594 91.851562 " fill-opacity="0.2" fill-rule="evenodd"/><path fill="#d97856" d="M 113.292969 89.195312 C 120.296875 93.601562 127.515625 92.691406 135.011719 86.535156 C 129.898438 82.339844 122.679688 83.246094 113.292969 89.195312 Z M 113.292969 89.195312 " fill-opacity="1" fill-rule="evenodd"/><path fill="#ffcc99" d="M 107.476562 167.894531 L 113.011719 165.097656 L 151.691406 147.1875 L 140.269531 109.550781 L 102.851562 127.53125 L 100.1875 154.882812 Z M 107.476562 167.894531 " fill-opacity="1" fill-rule="evenodd"/><path fill="#d97856" d="M 107.476562 167.894531 L 113.011719 165.097656 L 151.691406 147.1875 L 140.269531 109.550781 L 102.851562 127.53125 L 100.1875 154.882812 Z M 107.476562 167.894531 " fill-opacity="0.502" fill-rule="evenodd"/><path fill="#ffcc99" d="M 175.023438 126.058594 L 125.902344 133.546875 L 135.152344 148.585938 L 166.265625 157.609375 L 204.664062 148.585938 L 213.914062 133.546875 Z M 175.023438 126.058594 " fill-opacity="1" fill-rule="evenodd"/><path fill="#d97856" d="M 175.023438 126.058594 L 125.902344 133.546875 L 135.152344 148.585938 L 166.265625 157.609375 L 204.664062 148.585938 L 213.914062 133.546875 Z M 175.023438 126.058594 " fill-opacity="0.2" fill-rule="evenodd"/><path fill="#ffcc99" d="M 107.476562 167.894531 L 135.152344 148.585938 L 154.140625 165.585938 L 154.140625 285 L 107.476562 285 Z M 107.476562 167.894531 " fill-opacity="1" fill-rule="evenodd"/><path fill="#d97856" d="M 107.476562 167.894531 L 135.152344 148.585938 L 154.140625 165.585938 L 154.140625 285 L 107.476562 285 Z M 107.476562 167.894531 " fill-opacity="0.749" fill-rule="evenodd"/><path fill="#ffcc99" d="M 135.152344 148.585938 L 204.664062 148.585938 L 204.664062 285 L 135.152344 285 Z M 135.152344 148.585938 " fill-opacity="1" fill-rule="evenodd"/><path fill="#d97856" d="M 149.867188 165.863281 L 190.019531 165.863281 C 190.859375 165.863281 191.558594 167.402344 191.558594 169.292969 L 191.558594 213.363281 C 191.558594 215.253906 190.859375 216.792969 190.019531 216.792969 L 149.867188 216.792969 C 149.027344 216.792969 148.328125 215.253906 148.328125 213.363281 L 148.328125 169.292969 C 148.328125 167.402344 149.027344 165.863281 149.867188 165.863281 Z M 149.867188 165.863281 " fill-opacity="1" fill-rule="evenodd"/><path fill="#d97856" d="M 102.289062 47.011719 C 103.132812 50.996094 106.773438 55.054688 113.992188 60.300781 C 117.566406 56.945312 119.597656 53.9375 120.929688 49.25 C 120.019531 46.242188 119.667969 43.511719 119.878906 41.0625 C 115.882812 34.976562 110.488281 30.640625 103.691406 27.980469 C 105.792969 35.398438 105.375 41.695312 102.289062 47.011719 Z M 102.289062 47.011719 " fill-opacity="1" fill-rule="evenodd"/><path fill="#15193b" d="M 120.160156 46.449219 C 119.808594 44.5625 119.667969 42.742188 119.738281 41.0625 C 115.742188 34.976562 110.347656 30.640625 103.550781 27.980469 C 104.53125 31.269531 104.953125 34.417969 104.882812 37.285156 C 106.703125 44.492188 114.550781 49.179688 120.160156 46.449219 Z M 120.160156 46.449219 " fill-opacity="0.2" fill-rule="evenodd"/><path fill="#15193b" d="M 120.578125 85.347656 C 116.65625 92.902344 112.378906 92.621094 107.6875 84.507812 C 107.6875 84.507812 109.507812 77.371094 113.222656 63.101562 C 112.308594 60.792969 111.75 58.972656 111.679688 57.503906 C 113.5 57.574219 115.113281 57.574219 116.515625 57.503906 C 116.933594 58.132812 116.863281 60.230469 116.164062 63.171875 C 119.246094 78.210938 120.578125 85.347656 120.578125 85.347656 Z M 120.578125 85.347656 " fill-opacity="1" fill-rule="evenodd"/><path fill="#d97856" d="M 124.851562 12.3125 L 115.882812 12.3125 C 111.398438 12.3125 104.8125 19.585938 105.933594 24.835938 L 107.40625 31.691406 C 108.527344 36.726562 113.5 40.855469 118.6875 41.132812 C 119.738281 41.203125 121.140625 41.203125 122.191406 40.992188 C 126.605469 40.15625 130.179688 35.957031 130.25 31.621094 L 130.386719 25.605469 L 130.386719 24.765625 L 130.527344 17.839844 C 130.597656 14.832031 128.007812 12.3125 124.851562 12.3125 Z M 124.851562 12.3125 " fill-opacity="1" fill-rule="evenodd"/><path fill="#15193b" d="M 127.90625 21.726562 C 128.027344 21.734375 128.140625 21.773438 128.246094 21.847656 C 128.351562 21.917969 128.445312 22.015625 128.519531 22.140625 C 128.597656 22.265625 128.652344 22.40625 128.6875 22.5625 C 128.722656 22.71875 128.734375 22.882812 128.722656 23.046875 C 128.710938 23.214844 128.675781 23.371094 128.617188 23.523438 C 128.558594 23.671875 128.484375 23.804688 128.390625 23.917969 C 128.296875 24.027344 128.191406 24.109375 128.074219 24.167969 C 127.957031 24.222656 127.839844 24.246094 127.71875 24.238281 C 127.597656 24.226562 127.484375 24.1875 127.378906 24.113281 C 127.273438 24.042969 127.179688 23.945312 127.105469 23.820312 C 127.027344 23.695312 126.972656 23.554688 126.9375 23.398438 C 126.902344 23.242188 126.890625 23.082031 126.90625 22.914062 C 126.917969 22.746094 126.953125 22.589844 127.007812 22.4375 C 127.066406 22.289062 127.144531 22.15625 127.238281 22.046875 C 127.332031 21.933594 127.433594 21.851562 127.550781 21.792969 C 127.667969 21.738281 127.785156 21.714844 127.90625 21.726562 Z M 127.90625 21.726562 " fill-opacity="1" fill-rule="nonzero"/><path fill="#15193b" d="M 121.488281 29.941406 C 121 29.730469 120.507812 29.453125 120.648438 29.101562 C 120.71875 28.960938 121.140625 29.03125 121.558594 29.101562 C 122.261719 29.171875 122.609375 29.171875 123.3125 29.101562 C 123.730469 29.03125 124.152344 28.960938 124.222656 29.101562 C 124.292969 29.382812 123.800781 29.730469 123.242188 29.941406 C 122.46875 30.222656 122.191406 30.222656 121.488281 29.941406 Z M 121.488281 29.941406 " fill-opacity="0.2" fill-rule="evenodd"/><path fill="#15193b" d="M 130.878906 20.777344 C 130.738281 20.777344 130.457031 20.636719 130.109375 20.425781 C 129.6875 20.21875 129.128906 20.007812 128.707031 19.9375 C 127.796875 19.796875 127.09375 20.078125 126.253906 20.078125 C 125.835938 20.078125 125.625 20.007812 125.554688 19.867188 C 125.414062 19.519531 126.464844 18.75 127.726562 18.816406 C 128.636719 18.816406 129.546875 19.167969 130.179688 19.726562 C 130.386719 19.796875 131.371094 20.707031 130.878906 20.777344 Z M 130.878906 20.777344 " fill-opacity="1" fill-rule="evenodd"/><path fill="#15193b" d="M 116.136719 21.53125 C 116.257812 21.539062 116.371094 21.582031 116.476562 21.652344 C 116.585938 21.722656 116.675781 21.820312 116.753906 21.945312 C 116.828125 22.070312 116.882812 22.210938 116.917969 22.367188 C 116.953125 22.527344 116.964844 22.6875 116.953125 22.855469 C 116.941406 23.019531 116.90625 23.179688 116.847656 23.328125 C 116.789062 23.480469 116.714844 23.609375 116.621094 23.722656 C 116.527344 23.832031 116.421875 23.917969 116.304688 23.972656 C 116.191406 24.027344 116.070312 24.050781 115.949219 24.042969 C 115.832031 24.035156 115.71875 23.992188 115.609375 23.921875 C 115.503906 23.847656 115.414062 23.75 115.335938 23.628906 C 115.257812 23.503906 115.203125 23.363281 115.167969 23.207031 C 115.132812 23.046875 115.125 22.886719 115.136719 22.71875 C 115.148438 22.554688 115.183594 22.394531 115.242188 22.246094 C 115.296875 22.09375 115.375 21.960938 115.46875 21.851562 C 115.5625 21.738281 115.667969 21.65625 115.78125 21.601562 C 115.898438 21.546875 116.015625 21.523438 116.136719 21.53125 Z M 116.136719 21.53125 " fill-opacity="1" fill-rule="nonzero"/><path fill="#15193b" d="M 112.800781 20.566406 C 112.941406 20.566406 113.222656 20.425781 113.640625 20.21875 C 114.132812 20.007812 114.691406 19.796875 115.183594 19.726562 C 116.164062 19.585938 116.863281 19.867188 117.777344 19.867188 C 118.195312 19.867188 118.476562 19.796875 118.546875 19.65625 C 118.757812 19.308594 117.636719 18.539062 116.375 18.609375 C 115.394531 18.609375 114.484375 18.957031 113.640625 19.519531 C 113.429688 19.585938 112.308594 20.496094 112.800781 20.566406 Z M 112.800781 20.566406 " fill-opacity="1" fill-rule="evenodd"/><path fill="#ffffff" d="M 123.660156 33.789062 C 123.589844 34.769531 122.191406 35.539062 120.507812 35.539062 C 118.828125 35.539062 117.425781 34.769531 117.425781 33.859375 C 117.425781 33.648438 117.636719 33.4375 117.847656 33.4375 L 123.242188 33.4375 C 123.453125 33.367188 123.660156 33.507812 123.660156 33.789062 Z M 123.660156 33.789062 " fill-opacity="1" fill-rule="evenodd"/><path fill="#d97856" d="M 107.476562 25.042969 C 107.894531 29.171875 108.105469 31.269531 108.105469 31.269531 C 103.972656 30.429688 101.519531 28.121094 100.679688 25.8125 C 98.226562 19.238281 105.511719 17.699219 107.476562 25.042969 Z M 107.476562 25.042969 " fill-opacity="1" fill-rule="evenodd"/><path fill="#15193b" d="M 106.566406 25.953125 C 106.84375 28.472656 106.984375 29.660156 106.984375 29.660156 C 104.460938 29.171875 103.0625 27.773438 102.5 26.375 C 101.027344 22.386719 105.445312 21.546875 106.566406 25.953125 Z M 106.566406 25.953125 " fill-opacity="0.2" fill-rule="evenodd"/><path fill="#ffffff" d="M 123.800781 89.542969 C 122.050781 91.433594 121.140625 92.339844 121.140625 92.339844 C 120.226562 90.242188 118.898438 88.144531 117.144531 86.1875 C 119.039062 85.207031 120.019531 84.785156 120.019531 84.785156 C 121.699219 85.765625 123.03125 87.304688 123.800781 89.542969 Z M 123.800781 89.542969 " fill-opacity="1" fill-rule="evenodd"/><path fill="#15193b" d="M 93.25 97.027344 C 99.136719 74.222656 96.542969 54.707031 87.226562 52.746094 C 84.210938 53.726562 81.757812 57.433594 80.007812 63.941406 C 76.503906 76.671875 71.320312 116.617188 83.300781 123.332031 C 94.441406 129.558594 115.464844 101.785156 123.871094 93.460938 C 122.679688 89.054688 120.789062 86.1875 118.054688 84.855469 C 101.519531 92.972656 93.25 97.027344 93.25 97.027344 Z M 93.25 97.027344 " fill-opacity="1" fill-rule="evenodd"/><path fill="#cc6699" d="M 87.296875 52.746094 C 84.210938 53.726562 81.757812 57.433594 80.007812 63.941406 C 76.503906 76.671875 71.320312 116.617188 83.300781 123.332031 C 88.488281 126.199219 95.703125 121.863281 102.851562 115.496094 C 102.429688 115.355469 101.941406 115.148438 101.378906 115.007812 C 94.371094 120.394531 88.488281 122.074219 84.984375 119.554688 C 71.949219 110.179688 82.039062 55.753906 87.296875 52.746094 Z M 87.296875 52.746094 " fill-opacity="0.2" fill-rule="evenodd"/><path fill="#cc6699" d="M 157.996094 56.59375 L 184.972656 70.445312 C 185.253906 70.585938 185.394531 70.863281 185.464844 71.144531 L 190.578125 95.769531 L 188.6875 96.1875 L 183.710938 71.984375 L 157.015625 58.273438 C 155.824219 59.53125 153.933594 59.953125 152.25 59.253906 L 145.664062 56.453125 C 143.492188 55.542969 142.511719 53.027344 143.421875 50.859375 C 144.332031 48.6875 146.855469 47.710938 149.027344 48.621094 L 155.613281 51.417969 C 157.644531 52.328125 158.628906 54.566406 157.996094 56.59375 Z M 157.996094 56.59375 " fill-opacity="1" fill-rule="nonzero"/><path fill="#ffffff" d="M 114.34375 57.433594 C 113.011719 59.601562 110.699219 61.210938 107.753906 62.46875 C 103.761719 57.433594 100.820312 52.257812 98.855469 46.941406 C 98.855469 46.941406 100.46875 45.960938 103.621094 44.070312 C 108.105469 51.558594 111.75 56.105469 114.34375 57.433594 Z M 114.34375 57.433594 " fill-opacity="1" fill-rule="evenodd"/><path fill="#ffffff" d="M 113.851562 57.574219 C 115.8125 59.324219 117.003906 60.863281 120.296875 61.910156 C 123.242188 58.832031 124.574219 53.238281 124.921875 48.96875 C 124.921875 48.96875 124.011719 48.6875 120.296875 47.148438 C 118.054688 53.027344 116.023438 56.453125 113.851562 57.574219 Z M 113.851562 57.574219 " fill-opacity="1" fill-rule="evenodd"/><path fill="#ffcc99" d="M 125.902344 86.464844 L 100.1875 107.800781 L 100.1875 154.882812 L 125.902344 133.546875 L 129.828125 106.542969 Z M 125.902344 86.464844 " fill-opacity="1" fill-rule="evenodd"/><path fill="#d97856" d="M 125.902344 86.464844 L 100.1875 107.800781 L 100.1875 154.882812 L 125.902344 133.546875 L 129.828125 106.542969 Z M 125.902344 86.464844 " fill-opacity="0.749" fill-rule="evenodd"/><path fill="#ffcc99" d="M 125.902344 86.464844 L 213.914062 86.464844 L 213.914062 133.546875 L 125.902344 133.546875 Z M 125.902344 86.464844 " fill-opacity="1" fill-rule="evenodd"/></svg>