<svg xmlns="http://www.w3.org/2000/svg" xmlns:xlink="http://www.w3.org/1999/xlink" width="380" zoomAndPan="magnify" viewBox="0 0 285 284.999983" height="380" preserveAspectRatio="xMidYMid meet" version="1.0"><defs><clipPath id="36bcd3fff0"><path d="M 170 16.183594 L 278.941406 16.183594 L 278.941406 125 L 170 125 Z M 170 16.183594 " clip-rule="nonzero"/></clipPath><clipPath id="ce2b1c3f86"><path d="M 5.941406 200 L 187 200 L 187 268.933594 L 5.941406 268.933594 Z M 5.941406 200 " clip-rule="nonzero"/></clipPath><clipPath id="b172059759"><path d="M 47 251 L 53 251 L 53 268.933594 L 47 268.933594 Z M 47 251 " clip-rule="nonzero"/></clipPath><clipPath id="c6bb112e80"><path d="M 139 251 L 146 251 L 146 268.933594 L 139 268.933594 Z M 139 251 " clip-rule="nonzero"/></clipPath></defs><g clip-path="url(#36bcd3fff0)"><path fill="#ebf1ff" d="M 278.941406 70.445312 C 278.941406 72.21875 278.855469 73.988281 278.683594 75.75 C 278.507812 77.515625 278.25 79.269531 277.902344 81.007812 C 277.558594 82.746094 277.128906 84.464844 276.613281 86.160156 C 276.097656 87.855469 275.503906 89.523438 274.824219 91.160156 C 274.148438 92.800781 273.390625 94.402344 272.554688 95.964844 C 271.722656 97.527344 270.8125 99.046875 269.828125 100.519531 C 268.84375 101.996094 267.789062 103.417969 266.664062 104.789062 C 265.542969 106.15625 264.355469 107.46875 263.101562 108.722656 C 261.847656 109.976562 260.539062 111.167969 259.167969 112.292969 C 257.800781 113.417969 256.378906 114.472656 254.90625 115.457031 C 253.433594 116.441406 251.914062 117.351562 250.351562 118.1875 C 248.789062 119.023438 247.191406 119.78125 245.554688 120.457031 C 243.917969 121.136719 242.253906 121.734375 240.558594 122.25 C 238.863281 122.761719 237.144531 123.191406 235.410156 123.539062 C 233.671875 123.886719 231.921875 124.144531 230.160156 124.320312 C 228.394531 124.492188 226.628906 124.578125 224.855469 124.578125 C 223.085938 124.578125 221.320312 124.492188 219.554688 124.320312 C 217.792969 124.144531 216.042969 123.886719 214.304688 123.539062 C 212.570312 123.191406 210.851562 122.761719 209.15625 122.25 C 207.460938 121.734375 205.796875 121.136719 204.160156 120.457031 C 202.523438 119.78125 200.925781 119.023438 199.363281 118.1875 C 197.800781 117.351562 196.28125 116.441406 194.808594 115.457031 C 193.335938 114.472656 191.914062 113.417969 190.546875 112.292969 C 189.175781 111.167969 187.867188 109.976562 186.613281 108.722656 C 185.359375 107.46875 184.171875 106.15625 183.050781 104.789062 C 181.925781 103.417969 180.871094 101.996094 179.886719 100.519531 C 178.902344 99.046875 177.992188 97.527344 177.160156 95.964844 C 176.324219 94.402344 175.566406 92.800781 174.890625 91.160156 C 174.210938 89.523438 173.617188 87.855469 173.101562 86.160156 C 172.585938 84.464844 172.15625 82.746094 171.8125 81.007812 C 171.464844 79.269531 171.207031 77.515625 171.03125 75.75 C 170.859375 73.988281 170.773438 72.21875 170.773438 70.445312 C 170.773438 68.671875 170.859375 66.902344 171.03125 65.140625 C 171.207031 63.375 171.464844 61.625 171.8125 59.886719 C 172.15625 58.144531 172.585938 56.429688 173.101562 54.730469 C 173.617188 53.035156 174.210938 51.367188 174.890625 49.730469 C 175.566406 48.089844 176.324219 46.492188 177.160156 44.925781 C 177.992188 43.363281 178.902344 41.84375 179.886719 40.371094 C 180.871094 38.898438 181.925781 37.472656 183.050781 36.105469 C 184.171875 34.734375 185.359375 33.421875 186.613281 32.167969 C 187.867188 30.914062 189.175781 29.726562 190.546875 28.601562 C 191.914062 27.476562 193.335938 26.421875 194.808594 25.433594 C 196.28125 24.449219 197.800781 23.539062 199.363281 22.703125 C 200.925781 21.867188 202.523438 21.113281 204.160156 20.433594 C 205.796875 19.753906 207.460938 19.15625 209.15625 18.644531 C 210.851562 18.128906 212.570312 17.699219 214.304688 17.351562 C 216.042969 17.007812 217.792969 16.746094 219.554688 16.574219 C 221.320312 16.398438 223.085938 16.3125 224.855469 16.3125 C 226.628906 16.3125 228.394531 16.398438 230.160156 16.574219 C 231.921875 16.746094 233.671875 17.007812 235.410156 17.351562 C 237.144531 17.699219 238.863281 18.128906 240.558594 18.644531 C 242.253906 19.15625 243.917969 19.753906 245.554688 20.433594 C 247.191406 21.113281 248.789062 21.867188 250.351562 22.703125 C 251.914062 23.539062 253.433594 24.449219 254.90625 25.433594 C 256.378906 26.421875 257.800781 27.476562 259.167969 28.601562 C 260.539062 29.726562 261.847656 30.914062 263.101562 32.167969 C 264.355469 33.421875 265.542969 34.734375 266.664062 36.105469 C 267.789062 37.472656 268.84375 38.898438 269.828125 40.371094 C 270.8125 41.84375 271.722656 43.363281 272.554688 44.925781 C 273.390625 46.492188 274.148438 48.089844 274.824219 49.730469 C 275.503906 51.367188 276.097656 53.035156 276.613281 54.730469 C 277.128906 56.429688 277.558594 58.144531 277.902344 59.886719 C 278.25 61.625 278.507812 63.375 278.683594 65.140625 C 278.855469 66.902344 278.941406 68.671875 278.941406 70.445312 Z M 278.941406 70.445312 " fill-opacity="1" fill-rule="nonzero"/></g><path fill="#003333" d="M 236.0625 37.0625 C 235.289062 36.804688 234.386719 36.933594 233.742188 37.449219 C 233.097656 37.964844 232.710938 38.738281 232.710938 39.511719 L 232.710938 63.484375 C 232.710938 67.738281 229.234375 71.21875 224.984375 71.21875 C 220.738281 71.21875 217.257812 67.738281 217.257812 63.484375 L 217.257812 39.511719 C 217.257812 38.738281 216.875 37.835938 216.230469 37.449219 C 215.585938 36.933594 214.683594 36.804688 213.910156 37.0625 C 204.382812 40.414062 196.914062 47.890625 193.566406 57.429688 C 187.640625 74.3125 196.011719 92.742188 212.238281 99.574219 L 212.238281 120.96875 C 212.238281 122.257812 213.140625 123.289062 214.296875 123.546875 C 217.902344 124.320312 221.507812 124.578125 225.113281 124.578125 C 228.71875 124.578125 232.328125 124.191406 235.933594 123.546875 C 237.089844 123.289062 237.992188 122.257812 237.992188 120.96875 L 237.992188 99.574219 C 250.355469 94.417969 258.597656 82.175781 258.597656 68.640625 C 258.339844 54.464844 249.324219 41.832031 236.0625 37.0625 Z M 236.0625 37.0625 " fill-opacity="1" fill-rule="nonzero"/><path fill="#9fc2cc" d="M 227.433594 142.625 C 227.433594 142.964844 227.367188 143.292969 227.238281 143.609375 C 227.105469 143.925781 226.921875 144.203125 226.679688 144.445312 C 226.4375 144.6875 226.160156 144.875 225.84375 145.003906 C 225.527344 145.136719 225.199219 145.203125 224.855469 145.203125 C 224.515625 145.203125 224.1875 145.136719 223.871094 145.003906 C 223.554688 144.875 223.277344 144.6875 223.035156 144.445312 C 222.792969 144.203125 222.609375 143.925781 222.476562 143.609375 C 222.347656 143.292969 222.28125 142.964844 222.28125 142.625 C 222.28125 142.28125 222.347656 141.953125 222.476562 141.636719 C 222.609375 141.320312 222.792969 141.042969 223.035156 140.800781 C 223.277344 140.558594 223.554688 140.371094 223.871094 140.242188 C 224.1875 140.109375 224.515625 140.046875 224.855469 140.046875 C 225.199219 140.046875 225.527344 140.109375 225.84375 140.242188 C 226.160156 140.371094 226.4375 140.558594 226.679688 140.800781 C 226.921875 141.042969 227.105469 141.320312 227.238281 141.636719 C 227.367188 141.953125 227.433594 142.28125 227.433594 142.625 Z M 227.433594 142.625 " fill-opacity="1" fill-rule="nonzero"/><path fill="#9fc2cc" d="M 227.433594 163.246094 C 227.433594 163.585938 227.367188 163.917969 227.238281 164.230469 C 227.105469 164.546875 226.921875 164.828125 226.679688 165.070312 C 226.4375 165.308594 226.160156 165.496094 225.84375 165.628906 C 225.527344 165.757812 225.199219 165.824219 224.855469 165.824219 C 224.515625 165.824219 224.1875 165.757812 223.871094 165.628906 C 223.554688 165.496094 223.277344 165.308594 223.035156 165.070312 C 222.792969 164.828125 222.609375 164.546875 222.476562 164.230469 C 222.347656 163.917969 222.28125 163.585938 222.28125 163.246094 C 222.28125 162.902344 222.347656 162.574219 222.476562 162.257812 C 222.609375 161.945312 222.792969 161.664062 223.035156 161.421875 C 223.277344 161.179688 223.554688 160.996094 223.871094 160.863281 C 224.1875 160.734375 224.515625 160.667969 224.855469 160.667969 C 225.199219 160.667969 225.527344 160.734375 225.84375 160.863281 C 226.160156 160.996094 226.4375 161.179688 226.679688 161.421875 C 226.921875 161.664062 227.105469 161.945312 227.238281 162.257812 C 227.367188 162.574219 227.433594 162.902344 227.433594 163.246094 Z M 227.433594 163.246094 " fill-opacity="1" fill-rule="nonzero"/><path fill="#9fc2cc" d="M 227.433594 183.867188 C 227.433594 184.210938 227.367188 184.539062 227.238281 184.855469 C 227.105469 185.171875 226.921875 185.449219 226.679688 185.691406 C 226.4375 185.933594 226.160156 186.117188 225.84375 186.25 C 225.527344 186.378906 225.199219 186.445312 224.855469 186.445312 C 224.515625 186.445312 224.1875 186.378906 223.871094 186.25 C 223.554688 186.117188 223.277344 185.933594 223.035156 185.691406 C 222.792969 185.449219 222.609375 185.171875 222.476562 184.855469 C 222.347656 184.539062 222.28125 184.210938 222.28125 183.867188 C 222.28125 183.527344 222.347656 183.199219 222.476562 182.882812 C 222.609375 182.566406 222.792969 182.285156 223.035156 182.046875 C 223.277344 181.804688 223.554688 181.617188 223.871094 181.488281 C 224.1875 181.355469 224.515625 181.289062 224.855469 181.289062 C 225.199219 181.289062 225.527344 181.355469 225.84375 181.488281 C 226.160156 181.617188 226.4375 181.804688 226.679688 182.046875 C 226.921875 182.285156 227.105469 182.566406 227.238281 182.882812 C 227.367188 183.199219 227.433594 183.527344 227.433594 183.867188 Z M 227.433594 183.867188 " fill-opacity="1" fill-rule="nonzero"/><path fill="#9fc2cc" d="M 206.828125 183.867188 C 206.828125 184.210938 206.765625 184.539062 206.632812 184.855469 C 206.503906 185.171875 206.316406 185.449219 206.074219 185.691406 C 205.832031 185.933594 205.554688 186.117188 205.238281 186.25 C 204.921875 186.378906 204.59375 186.445312 204.253906 186.445312 C 203.910156 186.445312 203.582031 186.378906 203.269531 186.25 C 202.953125 186.117188 202.675781 185.933594 202.433594 185.691406 C 202.191406 185.449219 202.003906 185.171875 201.875 184.855469 C 201.742188 184.539062 201.679688 184.210938 201.679688 183.867188 C 201.679688 183.527344 201.742188 183.199219 201.875 182.882812 C 202.003906 182.566406 202.191406 182.285156 202.433594 182.046875 C 202.675781 181.804688 202.953125 181.617188 203.269531 181.488281 C 203.582031 181.355469 203.910156 181.289062 204.253906 181.289062 C 204.59375 181.289062 204.921875 181.355469 205.238281 181.488281 C 205.554688 181.617188 205.832031 181.804688 206.074219 182.046875 C 206.316406 182.285156 206.503906 182.566406 206.632812 182.882812 C 206.765625 183.199219 206.828125 183.527344 206.828125 183.867188 Z M 206.828125 183.867188 " fill-opacity="1" fill-rule="nonzero"/><path fill="#9fc2cc" d="M 186.226562 183.867188 C 186.226562 184.210938 186.160156 184.539062 186.027344 184.855469 C 185.898438 185.171875 185.710938 185.449219 185.472656 185.691406 C 185.230469 185.933594 184.949219 186.117188 184.636719 186.25 C 184.320312 186.378906 183.992188 186.445312 183.648438 186.445312 C 183.308594 186.445312 182.980469 186.378906 182.664062 186.25 C 182.347656 186.117188 182.070312 185.933594 181.828125 185.691406 C 181.585938 185.449219 181.402344 185.171875 181.269531 184.855469 C 181.140625 184.539062 181.074219 184.210938 181.074219 183.867188 C 181.074219 183.527344 181.140625 183.199219 181.269531 182.882812 C 181.402344 182.566406 181.585938 182.285156 181.828125 182.046875 C 182.070312 181.804688 182.347656 181.617188 182.664062 181.488281 C 182.980469 181.355469 183.308594 181.289062 183.648438 181.289062 C 183.992188 181.289062 184.320312 181.355469 184.636719 181.488281 C 184.949219 181.617188 185.230469 181.804688 185.472656 182.046875 C 185.710938 182.285156 185.898438 182.566406 186.027344 182.882812 C 186.160156 183.199219 186.226562 183.527344 186.226562 183.867188 Z M 186.226562 183.867188 " fill-opacity="1" fill-rule="nonzero"/><path fill="#9fc2cc" d="M 165.621094 183.867188 C 165.621094 184.210938 165.554688 184.539062 165.425781 184.855469 C 165.292969 185.171875 165.109375 185.449219 164.867188 185.691406 C 164.625 185.933594 164.347656 186.117188 164.03125 186.25 C 163.714844 186.378906 163.386719 186.445312 163.046875 186.445312 C 162.703125 186.445312 162.375 186.378906 162.058594 186.25 C 161.746094 186.117188 161.464844 185.933594 161.226562 185.691406 C 160.984375 185.449219 160.796875 185.171875 160.667969 184.855469 C 160.535156 184.539062 160.46875 184.210938 160.46875 183.867188 C 160.46875 183.527344 160.535156 183.199219 160.667969 182.882812 C 160.796875 182.566406 160.984375 182.285156 161.226562 182.046875 C 161.464844 181.804688 161.746094 181.617188 162.058594 181.488281 C 162.375 181.355469 162.703125 181.289062 163.046875 181.289062 C 163.386719 181.289062 163.714844 181.355469 164.03125 181.488281 C 164.347656 181.617188 164.625 181.804688 164.867188 182.046875 C 165.109375 182.285156 165.292969 182.566406 165.425781 182.882812 C 165.554688 183.199219 165.621094 183.527344 165.621094 183.867188 Z M 165.621094 183.867188 " fill-opacity="1" fill-rule="nonzero"/><path fill="#9fc2cc" d="M 145.019531 183.867188 C 145.019531 184.210938 144.953125 184.539062 144.820312 184.855469 C 144.691406 185.171875 144.503906 185.449219 144.261719 185.691406 C 144.023438 185.933594 143.742188 186.117188 143.429688 186.25 C 143.113281 186.378906 142.785156 186.445312 142.441406 186.445312 C 142.101562 186.445312 141.773438 186.378906 141.457031 186.25 C 141.140625 186.117188 140.863281 185.933594 140.621094 185.691406 C 140.378906 185.449219 140.195312 185.171875 140.0625 184.855469 C 139.933594 184.539062 139.867188 184.210938 139.867188 183.867188 C 139.867188 183.527344 139.933594 183.199219 140.0625 182.882812 C 140.195312 182.566406 140.378906 182.285156 140.621094 182.046875 C 140.863281 181.804688 141.140625 181.617188 141.457031 181.488281 C 141.773438 181.355469 142.101562 181.289062 142.441406 181.289062 C 142.785156 181.289062 143.113281 181.355469 143.429688 181.488281 C 143.742188 181.617188 144.023438 181.804688 144.261719 182.046875 C 144.503906 182.285156 144.691406 182.566406 144.820312 182.882812 C 144.953125 183.199219 145.019531 183.527344 145.019531 183.867188 Z M 145.019531 183.867188 " fill-opacity="1" fill-rule="nonzero"/><path fill="#9fc2cc" d="M 83.207031 60.132812 C 83.207031 60.476562 83.140625 60.804688 83.011719 61.121094 C 82.878906 61.4375 82.695312 61.714844 82.453125 61.957031 C 82.210938 62.199219 81.933594 62.386719 81.617188 62.515625 C 81.300781 62.648438 80.972656 62.710938 80.632812 62.710938 C 80.289062 62.710938 79.960938 62.648438 79.644531 62.515625 C 79.328125 62.386719 79.050781 62.199219 78.808594 61.957031 C 78.566406 61.714844 78.382812 61.4375 78.25 61.121094 C 78.121094 60.804688 78.054688 60.476562 78.054688 60.132812 C 78.054688 59.792969 78.121094 59.464844 78.25 59.148438 C 78.382812 58.832031 78.566406 58.554688 78.808594 58.3125 C 79.050781 58.070312 79.328125 57.882812 79.644531 57.753906 C 79.960938 57.621094 80.289062 57.558594 80.632812 57.558594 C 80.972656 57.558594 81.300781 57.621094 81.617188 57.753906 C 81.933594 57.882812 82.210938 58.070312 82.453125 58.3125 C 82.695312 58.554688 82.878906 58.832031 83.011719 59.148438 C 83.140625 59.464844 83.207031 59.792969 83.207031 60.132812 Z M 83.207031 60.132812 " fill-opacity="1" fill-rule="nonzero"/><path fill="#9fc2cc" d="M 83.207031 39.511719 C 83.207031 39.855469 83.140625 40.183594 83.011719 40.5 C 82.878906 40.816406 82.695312 41.09375 82.453125 41.335938 C 82.210938 41.578125 81.933594 41.761719 81.617188 41.894531 C 81.300781 42.023438 80.972656 42.089844 80.632812 42.089844 C 80.289062 42.089844 79.960938 42.023438 79.644531 41.894531 C 79.328125 41.761719 79.050781 41.578125 78.808594 41.335938 C 78.566406 41.09375 78.382812 40.816406 78.25 40.5 C 78.121094 40.183594 78.054688 39.855469 78.054688 39.511719 C 78.054688 39.171875 78.121094 38.839844 78.25 38.527344 C 78.382812 38.210938 78.566406 37.929688 78.808594 37.691406 C 79.050781 37.449219 79.328125 37.261719 79.644531 37.128906 C 79.960938 37 80.289062 36.933594 80.632812 36.933594 C 80.972656 36.933594 81.300781 37 81.617188 37.128906 C 81.933594 37.261719 82.210938 37.449219 82.453125 37.691406 C 82.695312 37.929688 82.878906 38.210938 83.011719 38.527344 C 83.140625 38.839844 83.207031 39.171875 83.207031 39.511719 Z M 83.207031 39.511719 " fill-opacity="1" fill-rule="nonzero"/><path fill="#9fc2cc" d="M 103.808594 39.511719 C 103.808594 39.855469 103.746094 40.183594 103.613281 40.5 C 103.484375 40.816406 103.296875 41.09375 103.054688 41.335938 C 102.8125 41.578125 102.535156 41.761719 102.21875 41.894531 C 101.90625 42.023438 101.578125 42.089844 101.234375 42.089844 C 100.894531 42.089844 100.566406 42.023438 100.25 41.894531 C 99.933594 41.761719 99.65625 41.578125 99.414062 41.335938 C 99.171875 41.09375 98.984375 40.816406 98.855469 40.5 C 98.722656 40.183594 98.660156 39.855469 98.660156 39.511719 C 98.660156 39.171875 98.722656 38.839844 98.855469 38.527344 C 98.984375 38.210938 99.171875 37.929688 99.414062 37.691406 C 99.65625 37.449219 99.933594 37.261719 100.25 37.128906 C 100.566406 37 100.894531 36.933594 101.234375 36.933594 C 101.578125 36.933594 101.90625 37 102.21875 37.128906 C 102.535156 37.261719 102.8125 37.449219 103.054688 37.691406 C 103.296875 37.929688 103.484375 38.210938 103.613281 38.527344 C 103.746094 38.839844 103.808594 39.171875 103.808594 39.511719 Z M 103.808594 39.511719 " fill-opacity="1" fill-rule="nonzero"/><path fill="#9fc2cc" d="M 124.414062 39.511719 C 124.414062 39.855469 124.347656 40.183594 124.21875 40.5 C 124.085938 40.816406 123.902344 41.09375 123.660156 41.335938 C 123.417969 41.578125 123.140625 41.761719 122.824219 41.894531 C 122.507812 42.023438 122.179688 42.089844 121.839844 42.089844 C 121.496094 42.089844 121.167969 42.023438 120.851562 41.894531 C 120.539062 41.761719 120.257812 41.578125 120.015625 41.335938 C 119.777344 41.09375 119.589844 40.816406 119.460938 40.5 C 119.328125 40.183594 119.261719 39.855469 119.261719 39.511719 C 119.261719 39.171875 119.328125 38.839844 119.460938 38.527344 C 119.589844 38.210938 119.777344 37.929688 120.015625 37.691406 C 120.257812 37.449219 120.539062 37.261719 120.851562 37.128906 C 121.167969 37 121.496094 36.933594 121.839844 36.933594 C 122.179688 36.933594 122.507812 37 122.824219 37.128906 C 123.140625 37.261719 123.417969 37.449219 123.660156 37.691406 C 123.902344 37.929688 124.085938 38.210938 124.21875 38.527344 C 124.347656 38.839844 124.414062 39.171875 124.414062 39.511719 Z M 124.414062 39.511719 " fill-opacity="1" fill-rule="nonzero"/><path fill="#9fc2cc" d="M 145.019531 39.511719 C 145.019531 39.855469 144.953125 40.183594 144.820312 40.5 C 144.691406 40.816406 144.503906 41.09375 144.261719 41.335938 C 144.023438 41.578125 143.742188 41.761719 143.429688 41.894531 C 143.113281 42.023438 142.785156 42.089844 142.441406 42.089844 C 142.101562 42.089844 141.773438 42.023438 141.457031 41.894531 C 141.140625 41.761719 140.863281 41.578125 140.621094 41.335938 C 140.378906 41.09375 140.195312 40.816406 140.0625 40.5 C 139.933594 40.183594 139.867188 39.855469 139.867188 39.511719 C 139.867188 39.171875 139.933594 38.839844 140.0625 38.527344 C 140.195312 38.210938 140.378906 37.929688 140.621094 37.691406 C 140.863281 37.449219 141.140625 37.261719 141.457031 37.128906 C 141.773438 37 142.101562 36.933594 142.441406 36.933594 C 142.785156 36.933594 143.113281 37 143.429688 37.128906 C 143.742188 37.261719 144.023438 37.449219 144.261719 37.691406 C 144.503906 37.929688 144.691406 38.210938 144.820312 38.527344 C 144.953125 38.839844 145.019531 39.171875 145.019531 39.511719 Z M 145.019531 39.511719 " fill-opacity="1" fill-rule="nonzero"/><path fill="#9fc2cc" d="M 165.621094 39.511719 C 165.621094 39.855469 165.554688 40.183594 165.425781 40.5 C 165.292969 40.816406 165.109375 41.09375 164.867188 41.335938 C 164.625 41.578125 164.347656 41.761719 164.03125 41.894531 C 163.714844 42.023438 163.386719 42.089844 163.046875 42.089844 C 162.703125 42.089844 162.375 42.023438 162.058594 41.894531 C 161.746094 41.761719 161.464844 41.578125 161.226562 41.335938 C 160.984375 41.09375 160.796875 40.816406 160.667969 40.5 C 160.535156 40.183594 160.46875 39.855469 160.46875 39.511719 C 160.46875 39.171875 160.535156 38.839844 160.667969 38.527344 C 160.796875 38.210938 160.984375 37.929688 161.226562 37.691406 C 161.464844 37.449219 161.746094 37.261719 162.058594 37.128906 C 162.375 37 162.703125 36.933594 163.046875 36.933594 C 163.386719 36.933594 163.714844 37 164.03125 37.128906 C 164.347656 37.261719 164.625 37.449219 164.867188 37.691406 C 165.109375 37.929688 165.292969 38.210938 165.425781 38.527344 C 165.554688 38.839844 165.621094 39.171875 165.621094 39.511719 Z M 165.621094 39.511719 " fill-opacity="1" fill-rule="nonzero"/><g clip-path="url(#ce2b1c3f86)"><path fill="#37a186" d="M 185.710938 267.773438 C 185.195312 268.417969 184.550781 268.675781 183.648438 268.675781 L 8.519531 268.675781 C 7.101562 268.675781 5.941406 267.515625 5.941406 266.097656 C 5.941406 265.839844 5.941406 265.710938 5.941406 265.453125 L 20.878906 224.46875 C 21.910156 219.699219 25.515625 215.960938 30.152344 214.671875 C 46.890625 210.03125 74.191406 202.300781 78.054688 200.753906 L 114.113281 200.753906 C 117.976562 202.300781 145.148438 210.03125 162.015625 214.671875 C 166.652344 215.960938 170.257812 219.699219 171.289062 224.46875 L 186.226562 265.453125 C 186.355469 266.484375 186.097656 267.257812 185.710938 267.773438 Z M 185.710938 267.773438 " fill-opacity="1" fill-rule="nonzero"/></g><g clip-path="url(#b172059759)"><path fill="#31876d" d="M 49.726562 251.277344 C 48.308594 251.277344 47.148438 252.4375 47.148438 253.855469 L 47.148438 268.804688 L 52.300781 268.804688 L 52.300781 253.855469 C 52.300781 252.4375 51.140625 251.277344 49.726562 251.277344 Z M 49.726562 251.277344 " fill-opacity="1" fill-rule="nonzero"/></g><g clip-path="url(#c6bb112e80)"><path fill="#31876d" d="M 142.441406 251.277344 C 141.027344 251.277344 139.867188 252.4375 139.867188 253.855469 L 139.867188 268.804688 L 145.019531 268.804688 L 145.019531 253.855469 C 145.019531 252.4375 143.859375 251.277344 142.441406 251.277344 Z M 142.441406 251.277344 " fill-opacity="1" fill-rule="nonzero"/></g><path fill="#ffda66" d="M 114.113281 201.011719 L 114.113281 178.710938 C 114.113281 177.421875 113.210938 176.265625 111.921875 176.007812 C 110.507812 175.75 109.21875 176.648438 108.960938 178.066406 C 108.960938 178.195312 108.960938 178.324219 108.960938 178.582031 L 83.207031 178.582031 C 83.207031 177.164062 82.046875 176.007812 80.632812 176.007812 C 80.503906 176.007812 80.375 176.007812 80.117188 176.007812 C 78.828125 176.261719 77.925781 177.421875 77.925781 178.710938 L 77.925781 201.011719 L 75.480469 201.785156 L 91.707031 224.339844 C 93.378906 226.660156 96.597656 227.175781 98.917969 225.5 C 99.304688 225.242188 99.6875 224.726562 100.074219 224.339844 L 116.300781 201.785156 Z M 114.113281 201.011719 " fill-opacity="1" fill-rule="nonzero"/><path fill="#edc85f" d="M 114.113281 181.804688 L 114.113281 192.117188 C 102.78125 198.046875 89.386719 198.046875 78.054688 192.117188 L 78.054688 181.804688 C 89.386719 187.734375 102.78125 187.734375 114.113281 181.804688 Z M 114.113281 181.804688 " fill-opacity="1" fill-rule="nonzero"/><path fill="#003333" d="M 142.441406 119.164062 L 132.140625 119.164062 L 132.140625 155.253906 L 142.441406 155.253906 C 152.359375 155.253906 160.46875 147.132812 160.46875 137.210938 C 160.46875 127.285156 152.359375 119.164062 142.441406 119.164062 Z M 142.441406 119.164062 " fill-opacity="1" fill-rule="nonzero"/><path fill="#003333" d="M 60.027344 119.164062 L 49.726562 119.164062 C 39.808594 119.164062 31.695312 127.285156 31.695312 137.210938 C 31.695312 147.132812 39.808594 155.253906 49.726562 155.253906 L 60.027344 155.253906 Z M 60.027344 119.164062 " fill-opacity="1" fill-rule="nonzero"/><path fill="#ffda66" d="M 134.714844 101.121094 L 57.453125 101.121094 L 57.453125 147.519531 C 57.453125 168.917969 74.707031 186.1875 96.082031 186.1875 C 117.460938 186.1875 134.714844 168.917969 134.714844 147.519531 Z M 134.714844 101.121094 " fill-opacity="1" fill-rule="nonzero"/><path fill="#003333" d="M 90.933594 162.988281 C 89 162.988281 87.328125 164.019531 86.425781 165.695312 C 86.167969 165.566406 86.039062 165.566406 85.78125 165.566406 L 54.875 165.566406 C 50.625 165.566406 47.148438 162.085938 47.148438 157.832031 L 47.148438 152.675781 C 47.148438 151.257812 45.992188 150.097656 44.574219 150.097656 C 43.15625 150.097656 42 151.257812 42 152.675781 L 42 157.832031 C 42 164.921875 47.792969 170.722656 54.875 170.722656 L 85.78125 170.722656 C 86.039062 170.722656 86.296875 170.722656 86.425781 170.59375 C 87.84375 173.042969 90.933594 173.945312 93.378906 172.65625 C 95.828125 171.238281 96.726562 168.144531 95.441406 165.695312 C 94.539062 164.019531 92.863281 162.988281 90.933594 162.988281 Z M 90.933594 162.988281 " fill-opacity="1" fill-rule="nonzero"/><path fill="#e1666d" d="M 134.070312 78.695312 C 133.558594 78.179688 132.914062 77.921875 132.269531 77.921875 L 80.757812 77.921875 C 68.011719 77.921875 57.582031 88.359375 57.582031 101.121094 L 57.582031 129.476562 L 75.480469 129.476562 C 76.898438 129.476562 78.054688 128.316406 78.054688 126.898438 L 78.054688 111.304688 C 78.054688 109.886719 79.214844 108.726562 80.632812 108.726562 L 111.535156 108.726562 C 112.953125 108.726562 114.113281 109.886719 114.113281 111.304688 L 114.113281 127.027344 C 114.113281 128.445312 115.269531 129.605469 116.6875 129.605469 L 134.714844 129.605469 L 134.714844 80.628906 C 134.714844 79.855469 134.457031 79.210938 134.070312 78.695312 Z M 134.070312 78.695312 " fill-opacity="1" fill-rule="nonzero"/></svg>