<svg xmlns="http://www.w3.org/2000/svg" xmlns:xlink="http://www.w3.org/1999/xlink" width="380" zoomAndPan="magnify" viewBox="0 0 285 284.999983" height="380" preserveAspectRatio="xMidYMid meet" version="1.0"><defs><clipPath id="712c840e5c"><path d="M 0.136719 13.996094 L 284.863281 13.996094 L 284.863281 284.742188 L 0.136719 284.742188 Z M 0.136719 13.996094 " clip-rule="nonzero"/></clipPath></defs><g clip-path="url(#712c840e5c)"><path fill="#1f2124" d="M 266.597656 120.613281 L 266.597656 116.367188 C 266.597656 110.441406 262.542969 105.464844 257.054688 104.054688 C 255.222656 99.457031 253.175781 94.964844 250.914062 90.605469 C 247.988281 84.976562 244.710938 79.566406 241.109375 74.417969 C 242.988281 70.21875 242.359375 65.4375 239.425781 61.878906 C 238.414062 60.648438 237.367188 59.421875 236.320312 58.234375 C 211.195312 29.707031 177.667969 13.996094 141.910156 13.996094 C 106.15625 13.996094 72.628906 29.707031 47.507812 58.234375 C 46.460938 59.421875 45.417969 60.648438 44.402344 61.875 C 41.472656 65.433594 40.839844 70.21875 42.71875 74.417969 C 39.117188 79.566406 35.835938 84.976562 32.910156 90.609375 C 30.578125 95.101562 28.476562 99.738281 26.601562 104.488281 C 21.8125 106.308594 18.40625 110.9375 18.40625 116.367188 L 18.40625 120.613281 C 7.578125 126.011719 0.136719 137.199219 0.136719 150.121094 C 0.136719 163.042969 7.578125 174.230469 18.40625 179.628906 L 18.40625 183.875 C 18.40625 190.207031 23.039062 195.457031 29.101562 196.421875 C 34.519531 212.566406 43.546875 227.410156 55.65625 239.730469 C 72.667969 257.042969 94.757812 268.363281 118.582031 272.152344 C 119.425781 279.242188 125.457031 284.742188 132.773438 284.742188 C 140.667969 284.742188 147.070312 278.339844 147.070312 270.441406 C 147.070312 262.550781 140.667969 256.148438 132.773438 256.148438 C 127.070312 256.148438 122.152344 259.484375 119.855469 264.3125 C 81.429688 258.179688 49.746094 230.941406 37.085938 195.089844 C 41.09375 192.953125 43.820312 188.730469 43.820312 183.875 L 43.820312 116.367188 C 43.820312 112.855469 42.398438 109.679688 40.101562 107.378906 C 39.46875 106.75 38.769531 106.1875 38.019531 105.699219 C 41.691406 96.972656 46.144531 88.8125 51.28125 81.328125 C 52.078125 81.488281 52.894531 81.574219 53.734375 81.574219 C 57.347656 81.574219 60.746094 79.964844 63.058594 77.160156 C 75.976562 61.472656 92.277344 49.851562 110.191406 43.550781 C 120.421875 39.9375 131.09375 38.109375 141.910156 38.109375 C 171.519531 38.109375 200.261719 52.359375 220.765625 77.199219 C 223.058594 79.980469 226.445312 81.574219 230.054688 81.574219 L 230.09375 81.574219 C 230.929688 81.574219 231.75 81.488281 232.542969 81.328125 C 237.789062 88.964844 242.335938 97.34375 246.070312 106.355469 C 245.660156 106.671875 245.269531 107.011719 244.902344 107.378906 C 242.605469 109.679688 241.183594 112.855469 241.183594 116.367188 L 241.183594 183.875 C 241.183594 190.890625 246.875 196.582031 253.890625 196.582031 C 260.90625 196.582031 266.597656 190.890625 266.597656 183.875 L 266.597656 179.628906 C 277.425781 174.230469 284.867188 163.042969 284.867188 150.121094 C 284.867188 137.199219 277.425781 126.011719 266.597656 120.613281 " fill-opacity="1" fill-rule="nonzero"/></g><path fill="#1f2124" d="M 71.320312 171.382812 L 71.320312 163.886719 L 77.929688 158.640625 C 87.949219 150.664062 92.652344 146.234375 92.789062 142.007812 C 92.789062 138.738281 90.605469 136.417969 85.765625 136.417969 C 81.679688 136.417969 77.996094 138.53125 75.339844 140.507812 L 71.457031 131.515625 C 75.273438 128.652344 81.339844 126.265625 88.425781 126.265625 C 98.582031 126.265625 105.667969 131.378906 105.667969 140.984375 C 105.667969 147.664062 100.625 153.253906 95.308594 157.207031 L 90.335938 160.886719 L 90.335938 161.023438 L 106.554688 161.023438 L 106.554688 171.382812 L 71.320312 171.382812 " fill-opacity="1" fill-rule="nonzero"/><path fill="#1f2124" d="M 132.789062 152.09375 L 132.789062 144.464844 C 132.789062 141.398438 132.925781 138.328125 133.0625 134.921875 L 132.789062 134.921875 C 131.15625 138.261719 129.792969 141.398438 128.019531 144.734375 L 124.339844 151.957031 L 124.273438 152.09375 Z M 132.789062 171.382812 L 132.789062 161.433594 L 112.277344 161.433594 L 112.277344 153.253906 L 128.019531 127.082031 L 145.128906 127.082031 L 145.128906 152.09375 L 150.238281 152.09375 L 150.238281 161.433594 L 145.128906 161.433594 L 145.128906 171.382812 L 132.789062 171.382812 " fill-opacity="1" fill-rule="nonzero"/><path fill="#1f2124" d="M 154.933594 174.109375 L 166.316406 124.628906 L 174.5625 124.628906 L 163.183594 174.109375 L 154.933594 174.109375 " fill-opacity="1" fill-rule="nonzero"/><path fill="#1f2124" d="M 213.683594 127.082031 L 213.683594 134.921875 L 194.53125 171.382812 L 180.492188 171.382812 L 199.847656 137.578125 L 199.847656 137.441406 L 178.445312 137.441406 L 178.445312 127.082031 L 213.683594 127.082031 " fill-opacity="1" fill-rule="nonzero"/></svg>