<svg xmlns="http://www.w3.org/2000/svg" xmlns:xlink="http://www.w3.org/1999/xlink" width="380" zoomAndPan="magnify" viewBox="0 0 285 284.999983" height="380" preserveAspectRatio="xMidYMid meet" version="1.0"><defs><clipPath id="b3d01904bb"><path d="M 47 14.25 L 238 14.25 L 238 136 L 47 136 Z M 47 14.25 " clip-rule="nonzero"/></clipPath><clipPath id="ecb91e5ec5"><path d="M 126 238 L 164 238 L 164 270.75 L 126 270.75 Z M 126 238 " clip-rule="nonzero"/></clipPath><clipPath id="93089066bb"><path d="M 9.078125 129 L 64 129 L 64 198 L 9.078125 198 Z M 9.078125 129 " clip-rule="nonzero"/></clipPath><clipPath id="ba6b7c3170"><path d="M 221 129 L 276.078125 129 L 276.078125 198 L 221 198 Z M 221 129 " clip-rule="nonzero"/></clipPath></defs><g clip-path="url(#b3d01904bb)"><path fill="#e1e4fb" d="M 234.359375 135.726562 C 232.273438 135.726562 231.230469 134.160156 231.230469 132.597656 L 231.230469 90.382812 C 231.230469 42.4375 185.339844 20.546875 142.578125 20.546875 C 99.816406 20.546875 53.925781 42.4375 53.925781 90.382812 L 53.925781 132.597656 C 53.925781 134.160156 52.882812 135.726562 50.796875 135.726562 C 49.234375 135.726562 47.667969 134.160156 47.667969 132.597656 L 47.667969 90.382812 C 47.667969 66.410156 58.097656 47.128906 77.914062 33.054688 C 95.125 21.070312 118.070312 14.292969 142.578125 14.292969 C 167.089844 14.292969 190.035156 21.070312 207.242188 33.054688 C 227.058594 47.128906 237.488281 66.410156 237.488281 90.382812 L 237.488281 132.597656 C 237.488281 134.160156 235.925781 135.726562 234.359375 135.726562 Z M 234.359375 135.726562 " fill-opacity="1" fill-rule="evenodd"/></g><path fill="#e1e4fb" d="M 160.832031 258.199219 C 159.265625 258.199219 158.222656 256.636719 158.222656 255.070312 C 157.703125 253.507812 159.265625 251.945312 160.832031 251.945312 C 197.855469 248.816406 221.324219 194.09375 221.84375 193.574219 C 222.367188 192.011719 223.929688 190.96875 225.496094 191.488281 C 227.058594 192.53125 228.101562 194.09375 227.582031 195.660156 C 227.058594 196.179688 221.324219 210.773438 209.851562 225.363281 C 195.25 245.167969 178.5625 256.636719 161.351562 258.199219 C 161.351562 258.199219 161.351562 258.199219 160.832031 258.199219 Z M 160.832031 258.199219 " fill-opacity="1" fill-rule="evenodd"/><g clip-path="url(#ecb91e5ec5)"><path fill="#e1e4fb" d="M 145.1875 270.707031 C 134.757812 270.707031 126.414062 263.410156 126.414062 255.070312 C 126.414062 246.210938 134.757812 238.914062 145.1875 238.914062 C 155.617188 238.914062 163.960938 246.210938 163.960938 255.070312 C 163.960938 263.410156 155.617188 270.707031 145.1875 270.707031 Z M 145.1875 270.707031 " fill-opacity="1" fill-rule="evenodd"/></g><g clip-path="url(#93089066bb)"><path fill="#e1e4fb" d="M 60.707031 197.742188 L 43.496094 197.742188 C 24.203125 197.742188 9.078125 182.628906 9.078125 163.347656 C 9.078125 144.585938 24.203125 129.472656 43.496094 129.472656 L 60.707031 129.472656 C 62.269531 129.472656 63.835938 130.511719 63.835938 132.597656 L 63.835938 194.617188 C 63.835938 196.179688 62.269531 197.742188 60.707031 197.742188 Z M 60.707031 197.742188 " fill-opacity="1" fill-rule="evenodd"/></g><g clip-path="url(#ba6b7c3170)"><path fill="#e1e4fb" d="M 241.660156 197.742188 L 224.453125 197.742188 C 222.886719 197.742188 221.324219 196.179688 221.324219 194.617188 L 221.324219 132.597656 C 221.324219 130.511719 222.886719 129.472656 224.453125 129.472656 L 241.660156 129.472656 C 251.046875 129.472656 259.390625 133.117188 266.171875 139.371094 C 272.429688 145.628906 276.078125 154.488281 276.078125 163.347656 C 276.078125 182.628906 260.957031 197.742188 241.660156 197.742188 Z M 241.660156 197.742188 " fill-opacity="1" fill-rule="evenodd"/></g><path fill="#ffc850" d="M 156.136719 192.011719 C 123.285156 192.011719 149.878906 161.78125 157.179688 159.175781 C 174.910156 153.445312 186.382812 136.765625 186.382812 118.003906 C 186.382812 93.511719 167.089844 73.707031 142.578125 73.707031 C 118.070312 73.707031 98.773438 93.511719 98.773438 118.003906 C 98.773438 136.765625 110.246094 153.445312 127.976562 159.175781 C 128.5 159.699219 129.019531 159.699219 129.019531 159.699219 C 130.0625 159.699219 130.585938 159.175781 131.105469 159.175781 C 134.757812 156.050781 132.148438 181.585938 132.148438 188.882812 C 132.148438 190.445312 131.105469 192.011719 129.019531 192.011719 C 127.457031 192.011719 125.890625 190.445312 125.890625 188.882812 L 125.890625 176.375 C 121.199219 175.332031 117.027344 173.25 112.855469 171.164062 L 103.988281 179.503906 C 102.945312 181.066406 100.859375 181.066406 99.816406 179.503906 L 80.523438 160.742188 C 80 160.21875 80 159.175781 80 158.136719 C 80 157.613281 80 156.570312 80.523438 156.050781 L 89.386719 147.710938 C 86.78125 143.542969 85.214844 138.851562 83.652344 134.683594 L 71.65625 134.683594 C 70.09375 134.683594 68.527344 133.117188 68.527344 131.554688 L 68.527344 104.453125 C 68.527344 102.371094 70.09375 101.328125 71.65625 101.328125 L 83.652344 101.328125 C 85.214844 96.636719 86.78125 91.945312 89.386719 87.777344 L 80.523438 79.4375 C 80 78.917969 80 77.875 80 77.355469 C 80 76.3125 80 75.789062 80.523438 75.269531 L 99.816406 55.988281 C 100.339844 55.464844 101.382812 54.945312 101.902344 54.945312 C 102.945312 54.945312 103.46875 55.464844 103.988281 55.988281 L 112.855469 64.324219 C 117.027344 62.242188 121.199219 60.15625 125.890625 59.113281 L 125.890625 47.128906 C 125.890625 45.042969 127.457031 44 129.019531 44 L 156.136719 44 C 157.703125 44 159.265625 45.042969 159.265625 47.128906 L 159.265625 59.113281 C 163.960938 60.15625 168.132812 62.242188 172.304688 64.324219 L 181.167969 55.988281 C 182.210938 54.945312 184.296875 54.945312 185.339844 55.988281 L 204.636719 75.269531 C 205.679688 76.3125 205.679688 78.398438 204.636719 79.4375 L 195.769531 87.777344 C 198.378906 91.945312 199.941406 96.636719 201.507812 101.328125 L 213.5 101.328125 C 215.066406 101.328125 216.628906 102.371094 216.628906 104.453125 L 216.628906 131.554688 C 216.628906 133.117188 215.066406 134.683594 213.5 134.683594 L 201.507812 134.683594 C 199.941406 138.851562 198.378906 143.542969 195.769531 147.710938 L 204.636719 156.050781 C 205.15625 156.570312 205.15625 157.613281 205.15625 158.136719 C 205.15625 159.175781 205.15625 160.21875 204.636719 160.742188 L 185.339844 179.503906 C 184.820312 180.023438 183.777344 180.546875 183.253906 180.546875 C 182.210938 180.546875 181.691406 180.023438 181.167969 179.503906 L 172.304688 171.164062 C 168.132812 173.25 163.960938 175.332031 159.265625 176.375 L 159.265625 188.882812 C 159.265625 190.445312 157.703125 192.011719 156.136719 192.011719 Z M 156.136719 192.011719 " fill-opacity="1" fill-rule="evenodd"/><path fill="#e5e3e5" d="M 142.578125 229.535156 C 133.714844 229.535156 125.890625 222.757812 125.890625 214.421875 L 125.890625 142.5 C 117.027344 137.289062 111.289062 128.429688 111.289062 118.527344 C 111.289062 109.144531 116.503906 100.285156 125.371094 95.074219 C 126.414062 94.554688 127.457031 94.554688 128.5 95.074219 C 129.542969 95.59375 130.0625 96.636719 130.0625 97.679688 L 130.0625 112.273438 L 142.578125 122.695312 L 155.09375 112.273438 L 155.09375 97.679688 C 155.09375 96.636719 155.617188 95.59375 156.660156 95.074219 C 157.703125 94.554688 158.746094 94.554688 159.789062 95.074219 C 168.652344 100.285156 173.867188 109.144531 173.867188 118.527344 C 173.867188 128.429688 168.132812 137.289062 159.265625 142.5 L 159.265625 214.421875 C 159.265625 222.757812 151.445312 229.535156 142.578125 229.535156 Z M 142.578125 229.535156 " fill-opacity="1" fill-rule="evenodd"/></svg>