<svg xmlns="http://www.w3.org/2000/svg" xmlns:xlink="http://www.w3.org/1999/xlink" width="380" zoomAndPan="magnify" viewBox="0 0 285 284.999983" height="380" preserveAspectRatio="xMidYMid meet" version="1.0"><defs><clipPath id="c3ecec802a"><path d="M 41 5.582031 L 244 5.582031 L 244 136 L 41 136 Z M 41 5.582031 " clip-rule="nonzero"/></clipPath><clipPath id="ef7e1dcf65"><path d="M 125 245 L 166 245 L 166 279.332031 L 125 279.332031 Z M 125 245 " clip-rule="nonzero"/></clipPath></defs><g clip-path="url(#c3ecec802a)"><path fill="#000000" d="M 240.457031 135.222656 C 238.230469 135.222656 237.117188 133.554688 237.117188 131.882812 L 237.117188 86.816406 C 237.117188 35.628906 188.140625 12.257812 142.5 12.257812 C 96.863281 12.257812 47.882812 35.628906 47.882812 86.816406 L 47.882812 131.882812 C 47.882812 133.554688 46.769531 135.222656 44.542969 135.222656 C 42.875 135.222656 41.203125 133.554688 41.203125 131.882812 L 41.203125 86.816406 C 41.203125 61.222656 52.335938 40.632812 73.484375 25.613281 C 91.851562 12.816406 116.339844 5.582031 142.5 5.582031 C 168.660156 5.582031 193.148438 12.816406 211.515625 25.613281 C 232.664062 40.632812 243.796875 61.222656 243.796875 86.816406 L 243.796875 131.882812 C 243.796875 133.554688 242.125 135.222656 240.457031 135.222656 Z M 240.457031 135.222656 " fill-opacity="1" fill-rule="evenodd"/></g><path fill="#000000" d="M 161.980469 265.976562 C 160.308594 265.976562 159.195312 264.308594 159.195312 262.640625 C 158.640625 260.96875 160.308594 259.300781 161.980469 259.300781 C 201.496094 255.960938 226.542969 197.539062 227.097656 196.984375 C 227.65625 195.316406 229.324219 194.203125 230.996094 194.757812 C 232.664062 195.871094 233.777344 197.539062 233.222656 199.210938 C 232.664062 199.765625 226.542969 215.34375 214.296875 230.925781 C 198.714844 252.066406 180.902344 264.308594 162.535156 265.976562 C 162.535156 265.976562 162.535156 265.976562 161.980469 265.976562 Z M 161.980469 265.976562 " fill-opacity="1" fill-rule="evenodd"/><g clip-path="url(#ef7e1dcf65)"><path fill="#000000" d="M 145.28125 279.332031 C 134.152344 279.332031 125.246094 271.542969 125.246094 262.640625 C 125.246094 253.179688 134.152344 245.390625 145.28125 245.390625 C 156.414062 245.390625 165.320312 253.179688 165.320312 262.640625 C 165.320312 271.542969 156.414062 279.332031 145.28125 279.332031 Z M 145.28125 279.332031 " fill-opacity="1" fill-rule="evenodd"/></g><path fill="#000000" d="M 55.117188 201.433594 L 36.75 201.433594 C 16.160156 201.433594 0.0195312 185.300781 0.0195312 164.710938 C 0.0195312 144.683594 16.160156 128.546875 36.75 128.546875 L 55.117188 128.546875 C 56.789062 128.546875 58.457031 129.660156 58.457031 131.882812 L 58.457031 198.097656 C 58.457031 199.765625 56.789062 201.433594 55.117188 201.433594 Z M 55.117188 201.433594 " fill-opacity="1" fill-rule="evenodd"/><path fill="#000000" d="M 248.25 201.433594 L 229.882812 201.433594 C 228.210938 201.433594 226.542969 199.765625 226.542969 198.097656 L 226.542969 131.882812 C 226.542969 129.660156 228.210938 128.546875 229.882812 128.546875 L 248.25 128.546875 C 258.265625 128.546875 267.171875 132.441406 274.40625 139.117188 C 281.085938 145.792969 284.980469 155.253906 284.980469 164.710938 C 284.980469 185.300781 268.839844 201.433594 248.25 201.433594 Z M 248.25 201.433594 " fill-opacity="1" fill-rule="evenodd"/><path fill="#000000" d="M 166.988281 156.367188 C 180.902344 148.019531 189.25 132.996094 189.25 116.304688 C 189.25 90.15625 168.660156 69.011719 142.5 69.011719 C 116.339844 69.011719 95.75 90.15625 95.75 116.304688 C 95.75 132.996094 104.097656 148.019531 118.011719 156.367188 L 118.011719 176.398438 C 115.785156 175.839844 113 174.171875 110.777344 173.058594 L 101.3125 181.960938 C 100.199219 183.628906 97.972656 183.628906 96.863281 181.960938 L 76.269531 161.929688 C 75.710938 161.375 75.710938 160.261719 75.710938 159.148438 C 75.710938 158.59375 75.710938 157.480469 76.269531 156.921875 L 85.730469 148.019531 C 82.945312 143.570312 81.277344 138.5625 79.609375 134.109375 L 66.804688 134.109375 C 65.136719 134.109375 63.46875 132.441406 63.46875 130.773438 L 63.46875 101.839844 C 63.46875 99.613281 65.136719 98.5 66.804688 98.5 L 79.609375 98.5 C 81.277344 93.492188 82.945312 88.484375 85.730469 84.035156 L 76.269531 75.132812 C 75.710938 74.574219 75.710938 73.460938 75.710938 72.90625 C 75.710938 71.792969 75.710938 71.238281 76.269531 70.679688 L 96.863281 50.09375 C 97.417969 49.535156 98.53125 48.980469 99.085938 48.980469 C 100.199219 48.980469 100.757812 49.535156 101.3125 50.09375 L 110.777344 58.996094 C 115.226562 56.769531 119.679688 54.542969 124.691406 53.433594 L 124.691406 40.632812 C 124.691406 38.410156 126.359375 37.296875 128.027344 37.296875 L 156.972656 37.296875 C 158.640625 37.296875 160.308594 38.410156 160.308594 40.632812 L 160.308594 53.433594 C 165.320312 54.542969 169.773438 56.769531 174.222656 58.996094 L 183.6875 50.09375 C 184.800781 48.980469 187.027344 48.980469 188.140625 50.09375 L 208.730469 70.679688 C 209.84375 71.792969 209.84375 74.019531 208.730469 75.132812 L 199.269531 84.035156 C 202.054688 88.484375 203.722656 93.492188 205.390625 98.5 L 218.195312 98.5 C 219.863281 98.5 221.53125 99.613281 221.53125 101.839844 L 221.53125 130.773438 C 221.53125 132.441406 219.863281 134.109375 218.195312 134.109375 L 205.390625 134.109375 C 203.722656 138.5625 202.054688 143.570312 199.269531 148.019531 L 208.730469 156.921875 C 209.289062 157.480469 209.289062 158.59375 209.289062 159.148438 C 209.289062 160.261719 209.289062 161.375 208.730469 161.929688 L 188.140625 181.960938 C 187.582031 182.515625 186.46875 183.074219 185.914062 183.074219 C 184.800781 183.074219 184.242188 182.515625 183.6875 181.960938 L 174.222656 173.058594 C 172 174.171875 169.214844 175.839844 166.988281 176.398438 Z M 166.988281 156.367188 " fill-opacity="1" fill-rule="evenodd"/><path fill="#000000" d="M 142.5 235.375 C 133.039062 235.375 124.691406 228.140625 124.691406 219.238281 L 124.691406 142.457031 C 115.226562 136.890625 109.105469 127.433594 109.105469 116.863281 C 109.105469 106.847656 114.671875 97.386719 124.132812 91.824219 C 125.246094 91.265625 126.359375 91.265625 127.472656 91.824219 C 128.585938 92.378906 129.140625 93.492188 129.140625 94.605469 L 129.140625 110.183594 L 142.5 121.3125 L 155.859375 110.183594 L 155.859375 94.605469 C 155.859375 93.492188 156.414062 92.378906 157.527344 91.824219 C 158.640625 91.265625 159.753906 91.265625 160.867188 91.824219 C 170.328125 97.386719 175.894531 106.847656 175.894531 116.863281 C 175.894531 127.433594 169.773438 136.890625 160.308594 142.457031 L 160.308594 219.238281 C 160.308594 228.140625 151.960938 235.375 142.5 235.375 Z M 142.5 235.375 " fill-opacity="1" fill-rule="evenodd"/></svg>