<svg xmlns="http://www.w3.org/2000/svg" xmlns:xlink="http://www.w3.org/1999/xlink" width="380" zoomAndPan="magnify" viewBox="0 0 285 284.999983" height="380" preserveAspectRatio="xMidYMid meet" version="1.0"><defs><clipPath id="290b1a85e6"><path d="M 134 276.144531 L 184.742188 276.144531 L 184.742188 284.785156 L 134 284.785156 Z M 134 276.144531 " clip-rule="nonzero"/></clipPath><clipPath id="771236d996"><path d="M 132.328125 256 L 176 256 L 176 284.785156 L 132.328125 284.785156 Z M 132.328125 256 " clip-rule="nonzero"/></clipPath><clipPath id="d4050ee1d8"><path d="M 182 140 L 239 140 L 239 284.785156 L 182 284.785156 Z M 182 140 " clip-rule="nonzero"/></clipPath><clipPath id="81fa92318f"><path d="M 203.15625 163.566406 L 217 163.566406 L 217 284.785156 L 203.15625 284.785156 Z M 203.15625 163.566406 " clip-rule="nonzero"/></clipPath><clipPath id="83c183d935"><path d="M 155.703125 116.125 L 213 116.125 L 213 284.785156 L 155.703125 284.785156 Z M 155.703125 116.125 " clip-rule="nonzero"/></clipPath><clipPath id="7e6793b503"><path d="M 158.535156 200.382812 L 170.574219 200.382812 L 170.574219 284.785156 L 158.535156 284.785156 Z M 158.535156 200.382812 " clip-rule="nonzero"/></clipPath><clipPath id="6fe6b89d53"><path d="M 80 114 L 166 114 L 166 284.785156 L 80 284.785156 Z M 80 114 " clip-rule="nonzero"/></clipPath><clipPath id="34f9ba6345"><path d="M 95 206.046875 L 125.953125 206.046875 L 125.953125 284.785156 L 95 284.785156 Z M 95 206.046875 " clip-rule="nonzero"/></clipPath><clipPath id="7526bb377b"><path d="M 45.777344 143.03125 L 102.582031 143.03125 L 102.582031 284.785156 L 45.777344 284.785156 Z M 45.777344 143.03125 " clip-rule="nonzero"/></clipPath><clipPath id="e08e5429ea"><path d="M 45.777344 143.03125 L 89 143.03125 L 89 284.785156 L 45.777344 284.785156 Z M 45.777344 143.03125 " clip-rule="nonzero"/></clipPath></defs><g clip-path="url(#290b1a85e6)"><path fill="#6a4b32" d="M 184.519531 284.785156 C 183.175781 281.109375 181.875 278.164062 180.671875 276.324219 L 134.433594 276.324219 L 134.550781 284.785156 L 184.519531 284.785156 " fill-opacity="1" fill-rule="nonzero"/></g><g clip-path="url(#771236d996)"><path fill="#6a4b32" d="M 175.574219 284.785156 C 175.675781 269.789062 170.433594 253.660156 162.453125 256.46875 C 155.050781 259.074219 143.675781 271.257812 132.792969 284.785156 L 175.574219 284.785156 " fill-opacity="1" fill-rule="nonzero"/></g><g clip-path="url(#d4050ee1d8)"><path fill="#6a4b32" d="M 227.125 284.785156 C 234.835938 272.796875 238.730469 248.695312 238.730469 248.695312 C 239.53125 242.042969 232.011719 228.046875 232.011719 228.046875 C 239.40625 223.78125 230.847656 221.898438 230.847656 221.898438 L 233.007812 217.199219 C 235.777344 192.300781 216.476562 145.105469 216.476562 145.105469 L 201.386719 140.191406 L 182.613281 231.140625 L 189.777344 284.785156 L 227.125 284.785156 " fill-opacity="1" fill-rule="nonzero"/></g><g clip-path="url(#81fa92318f)"><path fill="#483120" d="M 212.378906 284.785156 L 208.964844 284.785156 C 206.65625 277.414062 204.066406 268.296875 203.492188 262.816406 C 203.492188 262.816406 213.03125 227.402344 207.5625 213.210938 L 209.933594 204.480469 L 209.933594 195.203125 L 212.738281 172.703125 C 212.738281 172.703125 212.929688 169.011719 212.84375 163.746094 C 213.089844 165.808594 213.234375 167.960938 213.226562 170.140625 C 213.226562 170.140625 214.261719 195.085938 214.917969 198.542969 C 214.917969 198.542969 218.9375 220.960938 214.917969 222.753906 L 215.015625 225.121094 L 216.703125 230.832031 C 216.703125 230.832031 217.691406 262.96875 213.226562 273.539062 L 213.226562 281.488281 C 213.226562 281.488281 212.917969 282.746094 212.378906 284.785156 " fill-opacity="1" fill-rule="nonzero"/></g><path fill="#161111" d="M 190.160156 58.339844 C 190.160156 58.339844 193.089844 27.859375 180.152344 21.976562 C 180.152344 21.976562 177.785156 0.195312 131.335938 25.09375 C 131.335938 25.09375 114.105469 35.246094 124.054688 71.152344 L 190.160156 58.339844 " fill-opacity="1" fill-rule="nonzero"/><g clip-path="url(#83c183d935)"><path fill="#6a4b32" d="M 164.25 284.785156 L 208.964844 284.785156 C 206.65625 277.414062 204.066406 268.296875 203.492188 262.816406 C 203.492188 262.816406 213.03125 227.402344 207.5625 213.210938 L 209.933594 204.480469 L 209.933594 195.203125 L 212.738281 172.703125 C 212.738281 172.703125 213.695312 154.050781 210.339844 140.6875 L 183.167969 131.34375 L 177.109375 119.21875 L 172.125 116.625 L 155.953125 141.925781 L 161.902344 268.015625 C 161.902344 268.015625 162.953125 276.539062 164.25 284.785156 " fill-opacity="1" fill-rule="nonzero"/></g><path fill="#a7a5a6" d="M 159.179688 210.289062 L 156.457031 200.746094 C 156.453125 200.734375 156.453125 200.730469 156.453125 200.730469 L 158.730469 200.730469 L 159.179688 210.289062 " fill-opacity="1" fill-rule="nonzero"/><g clip-path="url(#7e6793b503)"><path fill="#483120" d="M 167.421875 284.785156 L 164.578125 284.785156 C 168.640625 260.636719 159.5625 255.023438 163.25 224.558594 L 159.179688 210.289062 L 158.730469 200.730469 L 168.910156 200.730469 C 171.800781 229.265625 169.824219 266.574219 167.421875 284.785156 " fill-opacity="1" fill-rule="nonzero"/></g><g clip-path="url(#6fe6b89d53)"><path fill="#6a4b32" d="M 95.566406 225.640625 L 95.050781 244.953125 C 95.050781 244.953125 95.457031 250.273438 99.140625 253.550781 L 97.914062 260.644531 L 101.601562 264.738281 C 101.601562 264.738281 100.746094 274.765625 99.902344 284.785156 L 164.578125 284.785156 C 168.640625 260.636719 159.5625 255.023438 163.25 224.558594 L 131.863281 114.539062 L 129.207031 114.539062 C 129.207031 114.539062 123.007812 123.414062 120.960938 127.09375 C 120.960938 127.09375 94.875 135.328125 85.871094 139.828125 C 85.871094 139.828125 76.296875 147.75 82.460938 177.273438 C 86.59375 197.039062 95.566406 225.640625 95.566406 225.640625 " fill-opacity="1" fill-rule="nonzero"/></g><g clip-path="url(#34f9ba6345)"><path fill="#483120" d="M 119.363281 284.785156 L 99.902344 284.785156 C 100.746094 274.765625 101.601562 264.738281 101.601562 264.738281 L 97.914062 260.644531 L 99.140625 253.550781 C 95.457031 250.273438 95.050781 244.953125 95.050781 244.953125 L 95.550781 226.253906 C 98.441406 222.636719 101.296875 217.574219 101.628906 211.464844 C 101.628906 211.464844 101.863281 209.644531 102.019531 206.527344 C 107.574219 224.6875 114.839844 244.542969 117.300781 244.539062 C 117.808594 244.539062 118.109375 243.691406 118.152344 241.800781 C 118.152344 241.800781 122.65625 245.480469 121.019531 251.214844 L 125.523438 260.632812 C 125.523438 260.632812 121.835938 272.515625 122.65625 274.351562 C 122.65625 274.351562 120.832031 279.125 119.363281 284.785156 " fill-opacity="1" fill-rule="nonzero"/></g><path fill="#e09e6e" d="M 129.207031 82.242188 C 129.207031 82.242188 132.675781 105.574219 131.863281 116.625 L 158.882812 133.683594 L 171.578125 120.308594 C 171.578125 120.308594 172.804688 97.796875 171.578125 84.289062 L 129.207031 82.242188 " fill-opacity="1" fill-rule="nonzero"/><path fill="#d5a585" d="M 142.113281 123.097656 L 132.585938 117.085938 L 142.113281 123.097656 " fill-opacity="1" fill-rule="nonzero"/><path fill="#a77251" d="M 132.585938 117.085938 L 131.863281 116.625 L 132.585938 117.085938 " fill-opacity="1" fill-rule="nonzero"/><path fill="#d5a585" d="M 171.871094 113.382812 C 171.886719 112.925781 171.902344 112.453125 171.917969 111.964844 C 171.902344 112.453125 171.886719 112.925781 171.871094 113.382812 " fill-opacity="1" fill-rule="nonzero"/><path fill="#cd8c63" d="M 142.914062 123.175781 L 142.113281 123.097656 L 132.585938 117.085938 L 131.863281 116.625 C 131.945312 115.460938 131.984375 114.160156 131.984375 112.761719 C 131.984375 104.953125 130.777344 94.183594 129.957031 87.746094 C 130.222656 87.660156 130.378906 87.582031 130.378906 87.582031 L 136.835938 99.296875 C 136.847656 99.3125 136.859375 99.324219 136.867188 99.332031 C 136.875 99.335938 136.878906 99.339844 136.882812 99.347656 C 136.890625 99.351562 136.898438 99.359375 136.902344 99.367188 C 136.90625 99.371094 136.914062 99.378906 136.917969 99.382812 C 136.925781 99.386719 136.929688 99.390625 136.933594 99.398438 C 136.949219 99.410156 136.964844 99.425781 136.980469 99.441406 C 136.980469 99.445312 136.980469 99.445312 136.980469 99.445312 C 136.988281 99.453125 136.996094 99.460938 137.003906 99.46875 C 137.007812 99.472656 137.007812 99.472656 137.011719 99.472656 C 137.019531 99.484375 137.03125 99.492188 137.035156 99.503906 L 137.039062 99.503906 C 149.789062 112.421875 159.09375 114.535156 163.824219 114.535156 C 166.125 114.535156 167.34375 114.035156 167.34375 114.035156 C 168.980469 113.449219 170.503906 112.753906 171.917969 111.964844 C 171.902344 112.453125 171.886719 112.925781 171.871094 113.382812 C 171.855469 113.753906 171.84375 114.117188 171.832031 114.464844 C 168.023438 116.339844 161.582031 119.34375 158.339844 119.898438 C 158.339844 119.898438 145.984375 114.574219 140.871094 110.28125 C 140.871094 110.28125 141.6875 119.285156 142.914062 123.175781 " fill-opacity="1" fill-rule="nonzero"/><path fill="#fabc87" d="M 191.648438 61.636719 L 190.066406 79.851562 C 190.066406 79.851562 188.679688 106.433594 167.34375 114.035156 C 167.34375 114.035156 155.917969 118.742188 136.835938 99.296875 L 130.378906 87.582031 C 130.378906 87.582031 121.886719 91.929688 120.265625 70.417969 C 120.265625 70.417969 123.867188 55.117188 131.878906 66.496094 C 131.878906 66.496094 129.25 43.121094 140.882812 39.722656 C 140.882812 39.722656 187.511719 10.671875 191.648438 61.636719 " fill-opacity="1" fill-rule="nonzero"/><path fill="#eda672" d="M 131.878906 66.496094 C 131.878906 66.496094 129.25 43.121094 140.882812 39.722656 C 140.882812 39.722656 179.855469 15.449219 189.695312 50.238281 C 186.824219 48.417969 182.816406 46.25 179.765625 46.09375 C 179.765625 46.09375 163.742188 48.417969 154.894531 46.09375 C 154.894531 46.09375 143.183594 53.589844 145.101562 58.085938 C 145.101562 58.085938 143.734375 69.503906 142.503906 73.007812 C 142.503906 73.007812 138.875 87.335938 142.503906 97.390625 C 142.503906 97.390625 156.230469 107.925781 159.546875 114.023438 C 154.300781 112.839844 146.566406 109.214844 136.835938 99.296875 L 130.378906 87.582031 C 130.378906 87.582031 121.886719 91.929688 120.265625 70.417969 C 120.265625 70.417969 123.867188 55.117188 131.878906 66.496094 " fill-opacity="1" fill-rule="nonzero"/><path fill="#161111" d="M 190.425781 53.132812 C 190.425781 53.132812 187.164062 38.09375 180.613281 34.40625 C 180.613281 34.40625 181.058594 31.488281 159.828125 40.226562 C 159.828125 40.226562 149.320312 44.722656 144.390625 43.511719 C 144.390625 43.511719 144.820312 53.175781 139.496094 57.070312 C 139.496094 57.070312 136.425781 62.796875 137.449219 65.046875 C 137.449219 65.046875 138.875 68.730469 137.238281 69.550781 C 137.238281 69.550781 133.09375 74.871094 131.582031 66.089844 C 131.582031 66.089844 130.488281 62.421875 129.207031 61.597656 L 130.488281 42.945312 L 139.296875 31.886719 L 163.65625 25.953125 L 176.757812 24.523438 L 184.742188 27.183594 L 189.859375 41.714844 C 189.859375 41.714844 190.566406 47.398438 190.425781 53.132812 " fill-opacity="1" fill-rule="nonzero"/><path fill="#fef2dc" d="M 131.863281 116.625 C 131.863281 116.625 139.832031 147.589844 142.046875 193.984375 L 163.25 224.558594 C 163.25 224.558594 179.355469 171.34375 172.125 116.625 L 158.339844 127.132812 L 131.863281 116.625 " fill-opacity="1" fill-rule="nonzero"/><path fill="#151b1d" d="M 160.425781 139.132812 C 160.425781 139.132812 168.828125 176.578125 169.804688 194.816406 C 169.804688 194.816406 166.203125 220.550781 163.25 225.515625 L 150.664062 206.414062 C 150.664062 206.414062 155.273438 141.601562 154.894531 138.734375 L 160.425781 139.132812 " fill-opacity="1" fill-rule="nonzero"/><path fill="#0c0f10" d="M 154.695312 145.105469 C 154.855469 141.988281 154.9375 139.816406 154.90625 139.015625 C 154.90625 138.894531 154.902344 138.800781 154.894531 138.734375 L 160.425781 139.132812 C 160.425781 139.132812 160.84375 140.984375 161.5 144.050781 C 159.796875 144.464844 157.042969 145.03125 154.695312 145.105469 " fill-opacity="1" fill-rule="nonzero"/><path fill="#ead4b4" d="M 173.960938 142.410156 C 170.910156 140.589844 159.808594 133.667969 158.339844 128.292969 C 158.339844 128.292969 148.132812 142.875 138.019531 150.332031 C 137.453125 146.503906 136.375 139.378906 135.832031 136.210938 L 158.339844 127.132812 L 173.816406 136.878906 C 173.886719 138.734375 173.933594 140.570312 173.960938 142.410156 " fill-opacity="1" fill-rule="nonzero"/><path fill="#151b1d" d="M 158.339844 127.132812 L 166.121094 130.679688 C 166.121094 130.679688 163.519531 138.183594 161.203125 141.597656 C 161.203125 141.597656 157.109375 143.640625 153.972656 142.550781 L 149.195312 132.183594 C 149.195312 132.183594 157.140625 126.589844 158.339844 127.132812 " fill-opacity="1" fill-rule="nonzero"/><path fill="#fef2dc" d="M 158.339844 127.132812 C 158.339844 127.132812 142.414062 146.179688 137.410156 146.070312 C 137.410156 146.070312 131.832031 124.675781 131.863281 116.625 C 131.863281 116.625 156.699219 125.769531 158.339844 127.132812 " fill-opacity="1" fill-rule="nonzero"/><path fill="#fef2dc" d="M 172.125 116.625 C 172.125 116.625 161.824219 123.128906 158.339844 127.132812 C 158.339844 127.132812 166.507812 135.304688 173.890625 139.132812 C 173.890625 139.132812 174.167969 128.769531 172.125 116.625 " fill-opacity="1" fill-rule="nonzero"/><path fill="#d18f64" d="M 127.050781 84.496094 C 127.050781 84.496094 129.195312 81.832031 127.050781 77.945312 C 127.050781 77.945312 128.097656 73.628906 129.207031 72.753906 C 129.207031 72.753906 128.109375 72.269531 127.015625 72.269531 C 126.46875 72.269531 125.921875 72.386719 125.511719 72.753906 C 125.511719 72.753906 126.609375 69.59375 128.171875 69.550781 C 128.171875 69.550781 127.554688 68.148438 125.820312 68.148438 C 125.238281 68.148438 124.527344 68.308594 123.667969 68.730469 C 123.667969 68.730469 125.015625 65.652344 127.339844 65.652344 C 127.414062 65.652344 127.484375 65.65625 127.558594 65.660156 C 127.558594 65.660156 130.222656 68.480469 130.425781 73.007812 L 130.425781 74.953125 C 130.425781 74.953125 127.988281 77.945312 129.207031 79.375 C 129.207031 79.375 130.125 83.992188 127.050781 84.496094 " fill-opacity="1" fill-rule="nonzero"/><g clip-path="url(#7526bb377b)"><path fill="#6a4b32" d="M 85.15625 284.785156 L 83.46875 273.714844 C 83.46875 273.714844 84.539062 261.738281 84.019531 254.902344 L 86.789062 249.542969 L 85.921875 242.800781 L 90.398438 235.363281 L 89.175781 232.457031 C 89.175781 232.457031 100.9375 224.261719 101.628906 211.464844 C 101.628906 211.464844 107.03125 169.335938 83.46875 143.257812 L 77.933594 146.027344 C 77.933594 146.027344 63.75 160.46875 62.714844 183.8125 C 62.714844 183.8125 57.523438 203.078125 57.007812 207.210938 L 52.332031 213.792969 L 54.929688 219.128906 L 52.332031 221.726562 L 52.332031 227.257812 C 52.332031 227.257812 46.335938 233.039062 45.8125 256.898438 C 45.8125 256.898438 48.460938 268.832031 52.707031 284.785156 L 85.15625 284.785156 " fill-opacity="1" fill-rule="nonzero"/></g><g clip-path="url(#e08e5429ea)"><path fill="#483120" d="M 64.511719 284.785156 L 52.707031 284.785156 C 48.460938 268.832031 45.8125 256.898438 45.8125 256.898438 C 46.335938 233.039062 52.332031 227.257812 52.332031 227.257812 L 52.332031 221.726562 L 54.929688 219.128906 L 52.332031 213.792969 L 57.007812 207.210938 C 57.523438 203.078125 62.714844 183.8125 62.714844 183.8125 C 63.75 160.46875 77.933594 146.027344 77.933594 146.027344 L 83.46875 143.257812 C 85.335938 145.855469 87.011719 148.605469 88.515625 151.441406 C 82.914062 161.546875 74.488281 178.503906 73.726562 190.195312 C 73.726562 190.195312 70.496094 210.429688 66.863281 218.207031 C 66.863281 218.207031 67.902344 228.292969 64.785156 228.953125 C 64.785156 228.953125 65.824219 236.878906 59.597656 239.996094 C 59.597656 239.996094 55.964844 254 59.597656 270.601562 C 59.597656 270.601562 61.496094 276.285156 64.511719 284.785156 " fill-opacity="1" fill-rule="nonzero"/></g></svg>