<svg xmlns="http://www.w3.org/2000/svg" xmlns:xlink="http://www.w3.org/1999/xlink" width="380" zoomAndPan="magnify" viewBox="0 0 285 284.999983" height="380" preserveAspectRatio="xMidYMid meet" version="1.0"><defs><clipPath id="ba05747e53"><path d="M 27.746094 2.183594 L 256.496094 2.183594 L 256.496094 282.683594 L 27.746094 282.683594 Z M 27.746094 2.183594 " clip-rule="nonzero"/></clipPath></defs><g clip-path="url(#ba05747e53)"><path fill="#000000" d="M 51.289062 282.144531 C 50.964844 281.804688 50.871094 281.433594 50.984375 280.9375 C 51.078125 280.542969 51.265625 279.078125 51.40625 277.679688 C 51.542969 276.28125 51.839844 273.992188 52.0625 272.597656 C 52.285156 271.199219 52.472656 269.011719 52.476562 267.738281 C 52.484375 265.53125 52.425781 265.292969 51.253906 262.78125 C 49.347656 258.695312 48.988281 257.554688 48.667969 254.617188 C 48.449219 252.597656 48.453125 251.140625 48.679688 249.011719 C 49.191406 244.226562 49.117188 243.089844 48.21875 242.007812 C 46.566406 240.023438 45.941406 238.066406 45.476562 233.460938 C 45.289062 231.589844 44.96875 229.972656 44.652344 229.285156 C 44.367188 228.667969 43.949219 227.179688 43.722656 225.980469 C 43.148438 222.929688 42.886719 222.265625 41.699219 220.785156 C 40.695312 219.53125 39.84375 217.703125 39.84375 216.800781 C 39.84375 216.5625 39.523438 215.695312 39.132812 214.875 C 38.195312 212.90625 37.339844 210.65625 34.453125 202.582031 C 33.132812 198.878906 31.902344 195.617188 31.722656 195.339844 C 31.539062 195.058594 31.347656 193.609375 31.285156 192.097656 C 31.203125 189.984375 31.09375 189.367188 30.804688 189.367188 C 30.601562 189.367188 30.429688 189.335938 30.425781 189.304688 C 30.207031 187.460938 29.628906 178.714844 29.621094 177.167969 C 29.617188 175.910156 29.382812 174.105469 29.066406 172.847656 C 27.78125 167.777344 27.742188 167.378906 27.742188 159.707031 C 27.742188 152.089844 27.980469 148.484375 28.703125 145.148438 C 30.203125 138.199219 32.023438 135.359375 37.960938 130.683594 C 40.046875 129.042969 43.941406 126.59375 44.472656 126.59375 C 44.675781 126.59375 44.960938 126.496094 45.101562 126.375 C 45.242188 126.253906 45.960938 125.945312 46.703125 125.695312 C 47.441406 125.441406 48.167969 125.15625 48.316406 125.054688 C 49.183594 124.46875 53.300781 123.179688 56.070312 122.628906 C 58.621094 122.117188 59.984375 121.667969 62.625 120.460938 C 64.460938 119.621094 66.410156 118.867188 66.957031 118.78125 C 67.5 118.699219 68.070312 118.496094 68.21875 118.332031 C 68.363281 118.164062 69.210938 117.765625 70.101562 117.4375 C 70.988281 117.113281 72.34375 116.472656 73.117188 116.011719 C 73.886719 115.550781 75.144531 114.878906 75.90625 114.511719 C 76.667969 114.148438 77.851562 113.484375 78.539062 113.042969 C 79.222656 112.597656 80.660156 111.835938 81.726562 111.347656 C 83.175781 110.683594 83.671875 110.328125 83.675781 109.949219 C 83.679688 109.625 83.980469 109.3125 84.492188 109.097656 C 85.941406 108.492188 91.15625 102.09375 93.09375 98.550781 C 93.777344 97.296875 95.015625 96.097656 95.625 96.097656 C 95.882812 96.097656 95.902344 96.40625 95.703125 97.445312 C 95.476562 98.613281 95.523438 98.964844 96.03125 100.050781 C 96.867188 101.835938 100.425781 106.730469 102.652344 109.15625 C 103.695312 110.289062 105.132812 111.941406 105.84375 112.824219 C 106.554688 113.707031 107.425781 114.738281 107.777344 115.113281 C 108.125 115.488281 108.507812 115.90625 108.625 116.046875 C 110.828125 118.691406 111.519531 119.507812 112.253906 120.332031 C 112.734375 120.871094 113.277344 121.636719 113.457031 122.03125 C 113.851562 122.886719 117.082031 127.414062 118.078125 128.503906 C 118.460938 128.925781 119.261719 129.980469 119.851562 130.851562 C 120.445312 131.722656 121.050781 132.429688 121.195312 132.425781 C 121.34375 132.417969 123.3125 130.390625 125.570312 127.914062 C 127.832031 125.441406 130.703125 122.363281 131.960938 121.074219 C 133.214844 119.789062 134.238281 118.613281 134.238281 118.46875 C 134.238281 118.167969 131.21875 115.296875 130.304688 114.734375 C 129.707031 114.363281 128.058594 114.347656 127.769531 114.710938 C 127.6875 114.816406 126.871094 114.976562 125.957031 115.066406 C 124.699219 115.191406 124.289062 115.152344 124.289062 114.910156 C 124.289062 114.699219 124.171875 114.667969 123.953125 114.816406 C 123.222656 115.308594 120.371094 114.816406 119.910156 114.117188 C 119.695312 113.792969 119.507812 113.734375 119.277344 113.917969 C 119.042969 114.101562 118.769531 114.007812 118.328125 113.59375 C 117.988281 113.269531 117.585938 112.992188 117.4375 112.976562 C 116.496094 112.867188 116 112.53125 116.097656 112.0625 C 116.183594 111.640625 116.132812 111.605469 115.800781 111.867188 C 115.464844 112.128906 115.433594 112.101562 115.59375 111.699219 C 115.75 111.308594 115.710938 111.273438 115.398438 111.5 C 115.09375 111.71875 114.839844 111.585938 114.203125 110.875 C 113.761719 110.378906 113.578125 110.078125 113.800781 110.199219 C 114.023438 110.324219 113.902344 110.125 113.535156 109.761719 C 112.839844 109.066406 112.390625 109.007812 112.988281 109.6875 C 113.507812 110.277344 112.832031 110.175781 112.1875 109.566406 C 111.890625 109.289062 111.648438 108.894531 111.648438 108.695312 C 111.648438 108.496094 111.40625 108.257812 111.113281 108.167969 C 110.816406 108.082031 110.574219 107.894531 110.574219 107.757812 C 110.574219 107.617188 110.453125 107.574219 110.304688 107.660156 C 110.15625 107.75 109.914062 107.523438 109.769531 107.160156 C 109.625 106.800781 109.257812 106.253906 108.957031 105.949219 C 108.65625 105.640625 108.460938 105.265625 108.523438 105.113281 C 108.671875 104.746094 107.984375 103.964844 106.777344 103.125 C 104.078125 101.234375 97.128906 93.835938 97.128906 92.847656 C 97.128906 92.707031 96.65625 91.464844 96.078125 90.089844 C 95.5 88.710938 94.820312 86.726562 94.5625 85.679688 C 94.027344 83.5 93.257812 80.632812 91.9375 75.902344 L 91.015625 72.605469 L 90.449219 73.652344 C 89.6875 75.058594 88.097656 76.277344 87.019531 76.277344 C 85.992188 76.277344 84.757812 75.210938 84.757812 74.328125 C 84.757812 73.992188 84.199219 72.664062 83.515625 71.375 C 82.769531 69.964844 81.96875 67.898438 81.507812 66.183594 C 80.652344 63.003906 79.964844 60.957031 79.167969 59.230469 C 78.695312 58.210938 78.644531 57.648438 78.742188 54.660156 C 78.8125 52.398438 78.964844 51.144531 79.1875 50.933594 C 79.382812 50.75 80.34375 50.59375 81.484375 50.566406 L 83.445312 50.515625 L 83.238281 49.863281 C 83.125 49.503906 83.023438 48.046875 83.015625 46.625 C 83.011719 45.203125 82.921875 43.960938 82.824219 43.867188 C 82.722656 43.773438 82.699219 42.859375 82.773438 41.839844 C 82.855469 40.660156 82.796875 39.917969 82.613281 39.8125 C 82.457031 39.71875 82.394531 39.539062 82.480469 39.410156 C 82.726562 39.03125 82.875 38.148438 82.996094 36.285156 C 83.0625 35.324219 83.179688 34.476562 83.261719 34.398438 C 83.34375 34.320312 83.414062 33.503906 83.417969 32.585938 C 83.421875 30.503906 83.871094 27.496094 84.234375 27.082031 C 84.382812 26.914062 84.480469 26.675781 84.449219 26.554688 C 84.304688 26 85.207031 23.816406 86.582031 21.382812 C 87.414062 19.914062 88.269531 18.351562 88.488281 17.910156 C 88.734375 17.402344 89.136719 17.058594 89.574219 16.96875 C 90.210938 16.84375 92.34375 14.574219 92.738281 13.605469 C 92.816406 13.410156 93.066406 13.25 93.289062 13.25 C 93.511719 13.25 94.472656 12.5625 95.421875 11.722656 C 96.371094 10.886719 97.320312 10.199219 97.53125 10.199219 C 97.742188 10.199219 98.035156 9.984375 98.1875 9.722656 C 98.335938 9.457031 98.914062 9.023438 99.472656 8.757812 C 100.03125 8.488281 101.179688 7.84375 102.023438 7.328125 C 102.867188 6.8125 103.734375 6.386719 103.957031 6.386719 C 104.175781 6.386719 104.429688 6.273438 104.523438 6.132812 C 104.613281 5.992188 104.902344 5.878906 105.164062 5.878906 C 105.425781 5.878906 106.113281 5.539062 106.695312 5.125 C 107.273438 4.707031 107.953125 4.367188 108.203125 4.363281 C 108.453125 4.359375 108.734375 4.238281 108.824219 4.101562 C 108.917969 3.960938 109.257812 3.84375 109.582031 3.84375 C 109.90625 3.84375 110.515625 3.671875 110.941406 3.464844 C 111.363281 3.253906 112.152344 3.082031 112.6875 3.078125 C 113.226562 3.078125 114.632812 2.910156 115.816406 2.707031 C 118.605469 2.230469 120.832031 2.238281 124.15625 2.730469 C 125.632812 2.953125 127.664062 3.175781 128.667969 3.234375 C 129.792969 3.296875 130.765625 3.503906 131.210938 3.78125 C 132.203125 4.394531 133.675781 4.855469 134.667969 4.859375 C 135.15625 4.859375 135.703125 5.074219 135.988281 5.371094 C 136.253906 5.652344 136.613281 5.878906 136.78125 5.878906 C 136.945312 5.878906 137.503906 6.21875 138.015625 6.632812 C 138.527344 7.046875 139.203125 7.386719 139.519531 7.394531 C 139.832031 7.398438 140.242188 7.574219 140.425781 7.785156 C 140.609375 7.996094 140.992188 8.167969 141.277344 8.167969 C 141.5625 8.167969 142.453125 8.796875 143.261719 9.5625 C 144.066406 10.332031 144.828125 10.960938 144.953125 10.960938 C 145.230469 10.960938 148.492188 14.019531 148.492188 14.277344 C 148.492188 14.375 149.160156 14.890625 149.972656 15.421875 C 150.785156 15.949219 151.453125 16.523438 151.453125 16.691406 C 151.453125 16.859375 151.640625 17.148438 151.871094 17.328125 C 152.101562 17.507812 152.71875 18.523438 153.238281 19.582031 C 153.761719 20.640625 154.351562 21.679688 154.542969 21.890625 C 154.738281 22.101562 155.105469 22.898438 155.355469 23.667969 C 155.78125 24.976562 156.167969 26.011719 157.390625 29.132812 C 157.664062 29.832031 157.890625 30.835938 157.898438 31.367188 C 157.902344 31.894531 158.097656 32.601562 158.328125 32.9375 C 158.558594 33.273438 158.800781 34.152344 158.863281 34.898438 C 158.925781 35.640625 159.101562 37.507812 159.257812 39.042969 C 159.410156 40.582031 159.5625 42.40625 159.597656 43.097656 L 159.652344 44.355469 L 161.179688 44.289062 C 162.980469 44.207031 163.015625 44.242188 163.699219 47.054688 C 164.453125 50.136719 164.511719 53.90625 163.84375 56.371094 C 163.535156 57.511719 163.28125 59.167969 163.28125 60.054688 C 163.277344 61.828125 162.820312 63.667969 161.988281 65.222656 C 161.546875 66.046875 161.472656 66.550781 161.59375 67.902344 C 161.738281 69.535156 161.722656 69.582031 160.878906 70.253906 C 159.457031 71.382812 157.996094 71.023438 156.710938 69.234375 L 156.09375 68.378906 L 155.910156 70.992188 C 155.542969 76.214844 154.78125 80.855469 154.023438 82.492188 C 153.824219 82.917969 153.390625 83.988281 153.054688 84.875 C 152.71875 85.761719 152.1875 86.847656 151.871094 87.289062 C 150.953125 88.582031 149.976562 90.230469 148.757812 92.539062 C 148.128906 93.730469 147.472656 94.871094 147.296875 95.082031 C 146.472656 96.074219 145.394531 101.050781 145.628906 102.765625 C 145.894531 104.699219 146.003906 105.644531 145.882812 104.992188 C 145.816406 104.644531 145.636719 104.242188 145.480469 104.105469 C 145.289062 103.925781 145.242188 104.375 145.335938 105.554688 C 145.441406 106.902344 145.34375 107.601562 144.867188 108.894531 C 143.949219 111.378906 141.847656 114.523438 139.71875 116.605469 L 137.804688 118.476562 L 139.316406 119.148438 C 141.402344 120.074219 144.652344 123.164062 145.808594 125.324219 C 146.292969 126.234375 147.46875 128.691406 148.421875 130.789062 C 149.375 132.886719 150.40625 135.144531 150.707031 135.8125 C 151.011719 136.480469 151.308594 136.980469 151.367188 136.921875 C 151.511719 136.789062 149.195312 130.742188 148.234375 128.734375 C 147.011719 126.183594 146.738281 124.742188 146.820312 121.257812 C 146.859375 119.511719 146.757812 116.824219 146.589844 115.285156 C 146.253906 112.175781 146.328125 109.847656 146.734375 110.710938 C 146.867188 110.992188 147.238281 111.621094 147.558594 112.109375 C 147.878906 112.597656 148.714844 114.21875 149.417969 115.714844 C 150.5 118.011719 150.832031 118.488281 151.585938 118.828125 C 152.074219 119.046875 152.605469 119.226562 152.765625 119.226562 C 152.921875 119.226562 153.699219 119.554688 154.488281 119.957031 C 155.277344 120.359375 156.761719 120.984375 157.789062 121.339844 C 158.8125 121.699219 160.5 122.300781 161.535156 122.675781 C 162.570312 123.050781 164.507812 123.695312 165.839844 124.113281 C 167.171875 124.527344 168.503906 124.957031 168.796875 125.070312 C 169.09375 125.1875 170.234375 125.40625 171.335938 125.566406 C 172.433594 125.722656 173.703125 126.003906 174.160156 126.191406 C 174.613281 126.378906 176.796875 126.953125 179.011719 127.472656 C 185.183594 128.910156 195.289062 132.558594 195.289062 133.351562 C 195.289062 133.519531 195.5625 133.664062 195.894531 133.675781 C 196.910156 133.710938 200.203125 134.171875 201.308594 134.4375 C 202.679688 134.765625 205.054688 136.332031 206.160156 137.628906 C 207.492188 139.195312 209.453125 142.820312 210.066406 144.859375 C 210.371094 145.855469 210.863281 147.480469 211.160156 148.46875 C 211.460938 149.457031 211.9375 151.5625 212.21875 153.148438 C 212.503906 154.734375 213.023438 156.644531 213.375 157.386719 C 214.335938 159.414062 214.609375 160.144531 214.925781 161.515625 C 215.082031 162.199219 215.515625 163.101562 215.886719 163.519531 C 217.792969 165.660156 218.375 167.816406 218.535156 173.324219 C 218.648438 177.226562 218.648438 177.234375 219.429688 178.027344 C 221.515625 180.140625 221.410156 179.898438 221.351562 182.367188 L 221.296875 184.648438 L 222.121094 184.847656 C 223.359375 185.152344 224.644531 186.925781 224.570312 188.222656 C 224.539062 188.78125 224.53125 190.410156 224.554688 191.835938 C 224.59375 194.035156 224.664062 194.410156 225.007812 194.289062 C 225.671875 194.046875 226.601562 194.8125 228.476562 197.152344 C 229.664062 198.636719 230.25 199.597656 230.25 200.066406 C 230.25 200.59375 230.394531 200.789062 230.835938 200.847656 C 231.570312 200.953125 231.953125 201.640625 236.304688 210.714844 C 237.007812 212.183594 237.726562 213.554688 237.902344 213.765625 C 238.074219 213.972656 238.621094 215.003906 239.117188 216.050781 C 239.613281 217.101562 240.503906 218.816406 241.097656 219.863281 C 241.6875 220.914062 242.355469 222.113281 242.574219 222.53125 C 242.796875 222.953125 243.304688 223.753906 243.703125 224.3125 C 244.101562 224.871094 244.511719 225.578125 244.613281 225.878906 C 244.742188 226.277344 245.222656 226.554688 246.328125 226.875 C 248.140625 227.398438 249.996094 228.339844 251.015625 229.25 C 251.679688 229.839844 251.75 230.074219 251.757812 231.738281 C 251.761719 232.746094 251.933594 233.945312 252.140625 234.40625 C 252.351562 234.863281 253.167969 237.070312 253.957031 239.304688 L 255.394531 243.371094 L 255.394531 248.492188 C 255.394531 253.007812 255.449219 253.667969 255.867188 254.101562 C 256.480469 254.742188 256.460938 255.328125 255.800781 256.203125 C 255.503906 256.59375 254.433594 258.730469 253.417969 260.945312 C 252.398438 263.160156 250.820312 266.460938 249.910156 268.277344 C 248.445312 271.191406 248.039062 271.769531 246.472656 273.167969 C 245.496094 274.042969 244.480469 274.757812 244.210938 274.757812 C 243.945312 274.757812 243.660156 274.863281 243.574219 274.996094 C 243.488281 275.125 242.722656 275.421875 241.875 275.652344 C 241.027344 275.882812 239.910156 276.289062 239.394531 276.550781 C 237.964844 277.273438 235.375 278.199219 232.71875 278.9375 L 230.324219 279.601562 L 219.460938 279.53125 L 208.601562 279.460938 L 206.179688 278.316406 C 204.847656 277.6875 203.65625 277.132812 203.53125 277.078125 C 203.09375 276.898438 204.449219 281.617188 205.039062 282.316406 C 205.25 282.574219 189.914062 282.636719 128.53125 282.636719 C 52.992188 282.636719 51.75 282.628906 51.289062 282.144531 Z M 161.496094 239.878906 C 161.378906 239.699219 161.472656 239.65625 161.757812 239.757812 C 162.082031 239.875 162.25 239.742188 162.375 239.277344 C 162.496094 238.824219 162.628906 238.710938 162.828125 238.898438 C 163.148438 239.199219 163.851562 237.738281 163.917969 236.636719 C 163.9375 236.285156 164.035156 235.941406 164.128906 235.871094 C 164.347656 235.710938 163.765625 231.285156 163.46875 230.851562 C 163.351562 230.679688 163.3125 230.535156 163.386719 230.535156 C 163.460938 230.535156 163.226562 229.902344 162.867188 229.128906 C 162.503906 228.359375 162.207031 227.605469 162.207031 227.457031 C 162.207031 227.308594 161.574219 226.558594 160.796875 225.785156 C 159.277344 224.277344 157.035156 223.046875 155.335938 222.792969 L 154.273438 222.632812 L 155.132812 223.007812 C 156.550781 223.625 158.386719 225.417969 159.136719 226.914062 C 160.550781 229.742188 160.710938 230.597656 160.71875 235.492188 C 160.726562 238.085938 160.839844 240.140625 160.984375 240.238281 C 161.34375 240.484375 161.71875 240.21875 161.496094 239.878906 Z M 159.949219 233.144531 C 159.859375 233.0625 159.796875 233.210938 159.808594 233.480469 C 159.820312 233.777344 159.886719 233.835938 159.972656 233.632812 C 160.050781 233.449219 160.039062 233.230469 159.949219 233.144531 Z M 152.851562 147.269531 C 152.707031 147.007812 152.585938 146.511719 152.582031 146.160156 C 152.578125 145.523438 151.253906 140.226562 150.492188 137.800781 C 150.113281 136.589844 149.777344 136.230469 149.472656 136.703125 C 149.335938 136.90625 149.84375 139.292969 150.34375 140.796875 C 150.5 141.269531 150.5625 141.761719 150.480469 141.886719 C 150.398438 142.015625 150.453125 142.257812 150.605469 142.433594 C 150.757812 142.605469 150.9375 143.027344 151.003906 143.375 C 151.070312 143.71875 151.246094 144.285156 151.394531 144.636719 C 151.542969 144.984375 151.882812 145.929688 152.148438 146.730469 C 152.433594 147.582031 152.738281 148.097656 152.875 147.964844 C 153.015625 147.835938 153.003906 147.542969 152.851562 147.269531 Z M 130.742188 143.730469 C 130.742188 143.671875 130.621094 143.621094 130.472656 143.621094 C 130.328125 143.621094 130.207031 143.742188 130.207031 143.890625 C 130.207031 144.035156 130.328125 144.085938 130.472656 144 C 130.621094 143.914062 130.742188 143.792969 130.742188 143.730469 Z M 129.9375 142.617188 C 129.9375 142.347656 128.664062 140.613281 127.113281 138.765625 C 125.558594 136.921875 124.289062 135.597656 124.289062 135.824219 C 124.289062 136.304688 129.480469 143.082031 129.867188 143.105469 C 129.90625 143.109375 129.9375 142.890625 129.9375 142.617188 Z M 123.75 134.859375 C 123.75 134.65625 123.507812 134.367188 123.214844 134.21875 C 122.714844 133.964844 122.699219 133.992188 122.988281 134.589844 C 123.328125 135.296875 123.75 135.445312 123.75 134.859375 Z M 136.929688 118.460938 C 137.152344 118.324219 137.210938 118.214844 137.0625 118.214844 C 136.914062 118.214844 136.613281 118.324219 136.390625 118.460938 C 136.167969 118.59375 136.109375 118.707031 136.257812 118.707031 C 136.40625 118.707031 136.707031 118.59375 136.929688 118.460938 Z M 112.589844 108.804688 C 112.683594 108.660156 112.574219 108.617188 112.335938 108.707031 C 111.871094 108.875 111.785156 109.058594 112.171875 109.058594 C 112.308594 109.058594 112.496094 108.945312 112.589844 108.804688 Z M 146.160156 107.53125 C 146.160156 106.625 146.207031 106.25 146.265625 106.707031 C 146.328125 107.160156 146.328125 107.902344 146.265625 108.359375 C 146.207031 108.8125 146.160156 108.441406 146.160156 107.53125 Z M 146.160156 107.53125 " fill-opacity="1" fill-rule="nonzero"/></g></svg>