<svg xmlns="http://www.w3.org/2000/svg" xmlns:xlink="http://www.w3.org/1999/xlink" width="380" zoomAndPan="magnify" viewBox="0 0 285 284.999983" height="380" preserveAspectRatio="xMidYMid meet" version="1.0"><defs><clipPath id="454445e33a"><path d="M 23.691406 0 L 261.441406 0 L 261.441406 285 L 23.691406 285 Z M 23.691406 0 " clip-rule="nonzero"/></clipPath></defs><path fill="#ec1d27" d="M 171.082031 204.25 L 180.589844 166.25 L 166.328125 166.25 L 142.566406 183.523438 L 171.082031 204.25 " fill-opacity="1" fill-rule="nonzero"/><path fill="#da1d29" d="M 142.566406 183.523438 L 122.589844 198.050781 L 133.058594 213.75 L 152.070312 213.75 L 161.816406 197.515625 L 142.566406 183.523438 " fill-opacity="1" fill-rule="nonzero"/><path fill="#f4f6f5" d="M 114.046875 204.25 L 104.542969 166.25 L 90.285156 166.25 L 114.046875 280.25 L 123.554688 280.25 L 133.058594 213.75 L 122.589844 198.050781 L 114.046875 204.25 " fill-opacity="1" fill-rule="nonzero"/><path fill="#f4f6f5" d="M 180.589844 166.25 L 171.082031 204.25 L 161.816406 197.515625 L 152.070312 213.75 L 161.578125 280.25 L 171.082031 280.25 L 194.847656 166.25 L 180.589844 166.25 " fill-opacity="1" fill-rule="nonzero"/><path fill="#ec1d27" d="M 133.058594 213.75 L 123.554688 280.25 L 161.578125 280.25 L 152.070312 213.75 L 133.058594 213.75 " fill-opacity="1" fill-rule="nonzero"/><path fill="#ec1d27" d="M 142.566406 183.523438 L 118.800781 166.25 L 104.542969 166.25 L 114.046875 204.25 L 142.566406 183.523438 " fill-opacity="1" fill-rule="nonzero"/><path fill="#fcd69b" d="M 166.328125 166.25 L 166.328125 147.25 L 118.800781 147.25 L 118.800781 166.25 L 142.566406 183.523438 L 166.328125 166.25 " fill-opacity="1" fill-rule="nonzero"/><path fill="#505256" d="M 199.597656 166.25 L 194.847656 166.25 L 171.082031 280.25 L 256.632812 280.25 L 256.632812 223.25 C 256.632812 191.761719 231.105469 166.25 199.597656 166.25 " fill-opacity="1" fill-rule="nonzero"/><path fill="#505256" d="M 90.285156 166.25 L 85.53125 166.25 C 54.027344 166.25 28.5 191.761719 28.5 223.25 L 28.5 280.25 L 114.046875 280.25 L 90.285156 166.25 " fill-opacity="1" fill-rule="nonzero"/><path fill="#fbed81" d="M 42.757812 33.25 L 42.757812 137.75 C 42.757812 143 47.007812 147.25 52.261719 147.25 L 232.867188 147.25 C 238.125 147.25 242.375 143 242.375 137.75 L 242.375 33.25 L 42.757812 33.25 " fill-opacity="1" fill-rule="nonzero"/><path fill="#2b4da7" d="M 232.867188 4.75 L 52.261719 4.75 C 47.007812 4.75 42.757812 9 42.757812 14.25 L 42.757812 33.25 L 242.375 33.25 L 242.375 14.25 C 242.375 9 238.125 4.75 232.867188 4.75 " fill-opacity="1" fill-rule="nonzero"/><path fill="#fade38" d="M 42.757812 57 L 42.757812 137.75 C 42.757812 143 47.007812 147.25 52.261719 147.25 L 142.566406 147.25 C 87.40625 147.25 42.757812 106.894531 42.757812 57 " fill-opacity="1" fill-rule="nonzero"/><g clip-path="url(#454445e33a)"><path fill="#211d1d" d="M 251.878906 275.5 L 213.859375 275.5 L 213.859375 223.25 C 213.859375 220.632812 211.722656 218.5 209.105469 218.5 C 206.488281 218.5 204.351562 220.632812 204.351562 223.25 L 204.351562 275.5 L 176.929688 275.5 L 198.707031 171 L 199.597656 171 C 228.433594 171 251.878906 194.433594 251.878906 223.25 Z M 33.25 223.25 C 33.25 194.433594 56.699219 171 85.53125 171 L 86.421875 171 L 108.199219 275.5 L 80.777344 275.5 L 80.777344 218.5 C 80.777344 215.882812 78.644531 213.75 76.027344 213.75 C 73.410156 213.75 71.273438 215.882812 71.273438 218.5 L 71.273438 275.5 L 33.25 275.5 Z M 109.445312 205.398438 C 109.816406 206.941406 110.929688 208.183594 112.414062 208.722656 C 113.898438 209.242188 115.570312 209.019531 116.851562 208.089844 L 121.382812 204.789062 L 128.101562 214.882812 L 119.433594 275.5 L 117.910156 275.5 L 96.132812 171 L 100.828125 171 Z M 117.261719 171 L 134.488281 183.523438 L 116.945312 196.269531 L 110.632812 171 Z M 161.578125 152 L 161.578125 163.835938 L 142.566406 177.640625 L 123.554688 163.835938 L 123.554688 152 Z M 47.507812 137.75 L 47.507812 38 L 237.621094 38 L 237.621094 137.75 C 237.621094 140.367188 235.488281 142.5 232.867188 142.5 L 52.261719 142.5 C 49.644531 142.5 47.507812 140.367188 47.507812 137.75 Z M 52.261719 9.5 L 232.867188 9.5 C 235.488281 9.5 237.621094 11.632812 237.621094 14.25 L 237.621094 28.5 L 47.507812 28.5 L 47.507812 14.25 C 47.507812 11.632812 49.644531 9.5 52.261719 9.5 Z M 168.1875 196.269531 L 150.640625 183.523438 L 167.871094 171 L 174.5 171 Z M 137.179688 218.5 L 147.949219 218.5 L 156.101562 275.5 L 129.03125 275.5 Z M 149.527344 209 L 135.601562 209 L 129.070312 199.203125 L 142.566406 189.386719 L 156.0625 199.203125 Z M 175.6875 205.398438 L 184.300781 171 L 189 171 L 167.222656 275.5 L 165.699219 275.5 L 157.027344 214.882812 L 163.75 204.789062 L 168.277344 208.089844 C 169.558594 209.019531 171.230469 209.242188 172.714844 208.722656 C 174.203125 208.183594 175.316406 206.941406 175.6875 205.398438 Z M 199.597656 161.5 L 180.679688 161.5 C 180.625 161.5 180.550781 161.5 180.476562 161.5 L 171.082031 161.5 L 171.082031 152 L 232.867188 152 C 240.742188 152 247.128906 145.617188 247.128906 137.75 L 247.128906 14.25 C 247.128906 6.382812 240.742188 0 232.867188 0 L 52.261719 0 C 44.390625 0 38.003906 6.382812 38.003906 14.25 L 38.003906 137.75 C 38.003906 145.617188 44.390625 152 52.261719 152 L 114.046875 152 L 114.046875 161.5 L 104.65625 161.5 C 104.582031 161.5 104.507812 161.5 104.449219 161.5 L 85.53125 161.5 C 51.464844 161.5 23.746094 189.203125 23.746094 223.25 L 23.746094 280.25 C 23.746094 282.867188 25.878906 285 28.5 285 L 256.632812 285 C 259.25 285 261.386719 282.867188 261.386719 280.25 L 261.386719 223.25 C 261.386719 189.203125 233.667969 161.5 199.597656 161.5 " fill-opacity="1" fill-rule="nonzero"/></g><path fill="#211d1d" d="M 71.273438 57 C 68.65625 57 66.519531 59.132812 66.519531 61.75 L 66.519531 128.25 C 66.519531 130.867188 68.65625 133 71.273438 133 C 73.890625 133 76.027344 130.867188 76.027344 128.25 L 76.027344 61.75 C 76.027344 59.132812 73.890625 57 71.273438 57 " fill-opacity="1" fill-rule="nonzero"/><path fill="#211d1d" d="M 87.648438 70.453125 L 101.90625 79.953125 C 102.722656 80.488281 103.632812 80.75 104.542969 80.75 C 106.085938 80.75 107.589844 80.007812 108.496094 78.632812 C 109.964844 76.445312 109.371094 73.496094 107.179688 72.046875 L 98.84375 66.5 L 107.179688 60.953125 C 109.371094 59.503906 109.964844 56.554688 108.496094 54.363281 C 107.050781 52.175781 104.097656 51.582031 101.90625 53.046875 L 87.648438 62.546875 C 86.332031 63.417969 85.53125 64.902344 85.53125 66.5 C 85.53125 68.09375 86.332031 69.578125 87.648438 70.453125 " fill-opacity="1" fill-rule="nonzero"/><path fill="#211d1d" d="M 138.609375 78.632812 C 139.519531 80.007812 141.023438 80.75 142.566406 80.75 C 143.476562 80.75 144.386719 80.488281 145.203125 79.953125 L 159.460938 70.453125 C 160.777344 69.578125 161.578125 68.09375 161.578125 66.5 C 161.578125 64.902344 160.777344 63.417969 159.460938 62.546875 L 145.203125 53.046875 C 143.011719 51.582031 140.058594 52.175781 138.609375 54.363281 C 137.144531 56.554688 137.738281 59.503906 139.929688 60.953125 L 148.265625 66.5 L 139.929688 72.046875 C 137.738281 73.496094 137.144531 76.445312 138.609375 78.632812 " fill-opacity="1" fill-rule="nonzero"/><path fill="#211d1d" d="M 117.296875 85.257812 C 117.800781 85.425781 118.300781 85.5 118.800781 85.5 C 120.789062 85.5 122.644531 84.238281 123.3125 82.253906 L 132.820312 53.753906 C 133.636719 51.265625 132.296875 48.574219 129.8125 47.742188 C 127.304688 46.90625 124.632812 48.261719 123.796875 50.746094 L 114.289062 79.246094 C 113.472656 81.734375 114.808594 84.421875 117.296875 85.257812 " fill-opacity="1" fill-rule="nonzero"/><path fill="#211d1d" d="M 114.046875 95 L 85.53125 95 L 85.53125 104.5 L 114.046875 104.5 L 114.046875 95 " fill-opacity="1" fill-rule="nonzero"/><path fill="#211d1d" d="M 123.554688 104.5 L 133.058594 104.5 L 133.058594 95 L 123.554688 95 L 123.554688 104.5 " fill-opacity="1" fill-rule="nonzero"/><path fill="#211d1d" d="M 99.789062 118.75 L 156.824219 118.75 L 156.824219 109.25 L 99.789062 109.25 L 99.789062 118.75 " fill-opacity="1" fill-rule="nonzero"/><path fill="#211d1d" d="M 185.339844 118.75 L 218.609375 118.75 L 218.609375 109.25 L 185.339844 109.25 L 185.339844 118.75 " fill-opacity="1" fill-rule="nonzero"/><path fill="#211d1d" d="M 99.789062 133 L 109.296875 133 L 109.296875 123.5 L 99.789062 123.5 L 99.789062 133 " fill-opacity="1" fill-rule="nonzero"/><path fill="#211d1d" d="M 118.800781 133 L 175.835938 133 L 175.835938 123.5 L 118.800781 123.5 L 118.800781 133 " fill-opacity="1" fill-rule="nonzero"/><path fill="#211d1d" d="M 185.339844 133 L 204.351562 133 L 204.351562 123.5 L 185.339844 123.5 L 185.339844 133 " fill-opacity="1" fill-rule="nonzero"/><path fill="#211d1d" d="M 166.328125 118.75 L 175.835938 118.75 L 175.835938 109.25 L 166.328125 109.25 L 166.328125 118.75 " fill-opacity="1" fill-rule="nonzero"/><path fill="#211d1d" d="M 66.519531 14.25 L 57.015625 14.25 L 57.015625 23.75 L 66.519531 23.75 L 66.519531 14.25 " fill-opacity="1" fill-rule="nonzero"/><path fill="#211d1d" d="M 85.53125 14.25 L 76.027344 14.25 L 76.027344 23.75 L 85.53125 23.75 L 85.53125 14.25 " fill-opacity="1" fill-rule="nonzero"/><path fill="#211d1d" d="M 104.542969 14.25 L 95.039062 14.25 L 95.039062 23.75 L 104.542969 23.75 L 104.542969 14.25 " fill-opacity="1" fill-rule="nonzero"/></svg>