<svg xmlns="http://www.w3.org/2000/svg" xmlns:xlink="http://www.w3.org/1999/xlink" width="500" zoomAndPan="magnify" viewBox="0 0 375 374.999991" height="500" preserveAspectRatio="xMidYMid meet" version="1.0"><defs><g/><clipPath id="8cea4f1a30"><path d="M 0 180.101562 L 372.457031 180.101562 L 372.457031 195.101562 L 0 195.101562 Z M 0 180.101562 " clip-rule="nonzero"/></clipPath></defs><rect x="-37.5" width="450" fill="#ffffff" y="-37.499999" height="449.999989" fill-opacity="1"/><rect x="-37.5" width="450" fill="#000000" y="-37.499999" height="449.999989" fill-opacity="1"/><g fill="#ff00ff" fill-opacity="1"><g transform="translate(-11.759572, 269.999982)"><g><path d="M 27.121094 0 L 80.160156 0 C 133.679688 0 167.519531 -33.359375 167.519531 -84 C 167.519531 -134.640625 133.679688 -168 80.160156 -168 L 27.121094 -168 Z M 41.761719 -13.921875 L 41.761719 -154.078125 L 79.679688 -154.078125 C 124.558594 -154.078125 152.640625 -126.71875 152.640625 -84 C 152.640625 -41.28125 124.800781 -13.921875 80.160156 -13.921875 Z M 41.761719 -13.921875 "/></g></g></g><g fill="#ff00ff" fill-opacity="1"><g transform="translate(168.720013, 269.999982)"><g><path d="M 27.121094 0 L 41.761719 0 L 41.761719 -141.121094 L 104.640625 -46.800781 L 116.640625 -46.800781 L 179.519531 -141.121094 L 179.519531 0 L 193.921875 0 L 193.921875 -168 L 180.480469 -168 L 110.640625 -62.878906 L 40.800781 -168 L 27.121094 -168 Z M 27.121094 0 "/></g></g></g><g fill="#00ffff" fill-opacity="1"><g transform="translate(-14.759572, 269.999982)"><g><path d="M 27.121094 0 L 80.160156 0 C 133.679688 0 167.519531 -33.359375 167.519531 -84 C 167.519531 -134.640625 133.679688 -168 80.160156 -168 L 27.121094 -168 Z M 41.761719 -13.921875 L 41.761719 -154.078125 L 79.679688 -154.078125 C 124.558594 -154.078125 152.640625 -126.71875 152.640625 -84 C 152.640625 -41.28125 124.800781 -13.921875 80.160156 -13.921875 Z M 41.761719 -13.921875 "/></g></g></g><g fill="#00ffff" fill-opacity="1"><g transform="translate(165.720013, 269.999982)"><g><path d="M 27.121094 0 L 41.761719 0 L 41.761719 -141.121094 L 104.640625 -46.800781 L 116.640625 -46.800781 L 179.519531 -141.121094 L 179.519531 0 L 193.921875 0 L 193.921875 -168 L 180.480469 -168 L 110.640625 -62.878906 L 40.800781 -168 L 27.121094 -168 Z M 27.121094 0 "/></g></g></g><g fill="#ffffff" fill-opacity="1"><g transform="translate(-13.259572, 269.999982)"><g><path d="M 27.121094 0 L 80.160156 0 C 133.679688 0 167.519531 -33.359375 167.519531 -84 C 167.519531 -134.640625 133.679688 -168 80.160156 -168 L 27.121094 -168 Z M 41.761719 -13.921875 L 41.761719 -154.078125 L 79.679688 -154.078125 C 124.558594 -154.078125 152.640625 -126.71875 152.640625 -84 C 152.640625 -41.28125 124.800781 -13.921875 80.160156 -13.921875 Z M 41.761719 -13.921875 "/></g></g></g><g fill="#ffffff" fill-opacity="1"><g transform="translate(167.220013, 269.999982)"><g><path d="M 27.121094 0 L 41.761719 0 L 41.761719 -141.121094 L 104.640625 -46.800781 L 116.640625 -46.800781 L 179.519531 -141.121094 L 179.519531 0 L 193.921875 0 L 193.921875 -168 L 180.480469 -168 L 110.640625 -62.878906 L 40.800781 -168 L 27.121094 -168 Z M 27.121094 0 "/></g></g></g><g clip-path="url(#8cea4f1a30)"><path fill="#000000" d="M -2.480469 180.101562 L 372.394531 180.101562 L 372.394531 195.101562 L -2.480469 195.101562 L -2.480469 180.101562 " fill-opacity="1" fill-rule="nonzero"/></g></svg>