<svg xmlns="http://www.w3.org/2000/svg" xmlns:xlink="http://www.w3.org/1999/xlink" width="500" zoomAndPan="magnify" viewBox="0 0 375 374.999991" height="500" preserveAspectRatio="xMidYMid meet" version="1.0"><defs><g/><clipPath id="e1a43a60af"><path d="M 16.671875 180.914062 L 366.171875 180.914062 L 366.171875 194.414062 L 16.671875 194.414062 Z M 16.671875 180.914062 " clip-rule="nonzero"/></clipPath></defs><rect x="-37.5" width="450" fill="#ffffff" y="-37.499999" height="449.999989" fill-opacity="1"/><rect x="-37.5" width="450" fill="#ffffff" y="-37.499999" height="449.999989" fill-opacity="1"/><rect x="-37.5" width="450" fill="#000000" y="-37.499999" height="449.999989" fill-opacity="1"/><g fill="#ff00ff" fill-opacity="1"><g transform="translate(19.790609, 257.610624)"><g><path d="M 23.089844 0 L 68.25 0 C 113.816406 0 142.628906 -28.402344 142.628906 -71.519531 C 142.628906 -114.632812 113.816406 -143.035156 68.25 -143.035156 L 23.089844 -143.035156 Z M 35.554688 -11.851562 L 35.554688 -131.183594 L 67.839844 -131.183594 C 106.050781 -131.183594 129.957031 -107.890625 129.957031 -71.519531 C 129.957031 -35.144531 106.253906 -11.851562 68.25 -11.851562 Z M 35.554688 -11.851562 "/></g></g></g><g fill="#ff00ff" fill-opacity="1"><g transform="translate(147.704886, 257.610624)"><g/></g></g><g fill="#ff00ff" fill-opacity="1"><g transform="translate(174.676652, 257.610624)"><g><path d="M 23.089844 0 L 35.554688 0 L 35.554688 -120.152344 L 89.089844 -39.847656 L 99.308594 -39.847656 L 152.84375 -120.152344 L 152.84375 0 L 165.105469 0 L 165.105469 -143.035156 L 153.660156 -143.035156 L 94.199219 -53.535156 L 34.738281 -143.035156 L 23.089844 -143.035156 Z M 23.089844 0 "/></g></g></g><g fill="#00ffff" fill-opacity="1"><g transform="translate(12.127757, 257.610624)"><g><path d="M 23.089844 0 L 68.25 0 C 113.816406 0 142.628906 -28.402344 142.628906 -71.519531 C 142.628906 -114.632812 113.816406 -143.035156 68.25 -143.035156 L 23.089844 -143.035156 Z M 35.554688 -11.851562 L 35.554688 -131.183594 L 67.839844 -131.183594 C 106.050781 -131.183594 129.957031 -107.890625 129.957031 -71.519531 C 129.957031 -35.144531 106.253906 -11.851562 68.25 -11.851562 Z M 35.554688 -11.851562 "/></g></g></g><g fill="#00ffff" fill-opacity="1"><g transform="translate(140.042033, 257.610624)"><g/></g></g><g fill="#00ffff" fill-opacity="1"><g transform="translate(167.013799, 257.610624)"><g><path d="M 23.089844 0 L 35.554688 0 L 35.554688 -120.152344 L 89.089844 -39.847656 L 99.308594 -39.847656 L 152.84375 -120.152344 L 152.84375 0 L 165.105469 0 L 165.105469 -143.035156 L 153.660156 -143.035156 L 94.199219 -53.535156 L 34.738281 -143.035156 L 23.089844 -143.035156 Z M 23.089844 0 "/></g></g></g><g fill="#ffffff" fill-opacity="1"><g transform="translate(15.959183, 257.610624)"><g><path d="M 23.089844 0 L 68.25 0 C 113.816406 0 142.628906 -28.402344 142.628906 -71.519531 C 142.628906 -114.632812 113.816406 -143.035156 68.25 -143.035156 L 23.089844 -143.035156 Z M 35.554688 -11.851562 L 35.554688 -131.183594 L 67.839844 -131.183594 C 106.050781 -131.183594 129.957031 -107.890625 129.957031 -71.519531 C 129.957031 -35.144531 106.253906 -11.851562 68.25 -11.851562 Z M 35.554688 -11.851562 "/></g></g></g><g fill="#ffffff" fill-opacity="1"><g transform="translate(143.87346, 257.610624)"><g/></g></g><g fill="#ffffff" fill-opacity="1"><g transform="translate(170.845226, 257.610624)"><g><path d="M 23.089844 0 L 35.554688 0 L 35.554688 -120.152344 L 89.089844 -39.847656 L 99.308594 -39.847656 L 152.84375 -120.152344 L 152.84375 0 L 165.105469 0 L 165.105469 -143.035156 L 153.660156 -143.035156 L 94.199219 -53.535156 L 34.738281 -143.035156 L 23.089844 -143.035156 Z M 23.089844 0 "/></g></g></g><g clip-path="url(#e1a43a60af)"><path fill="#000000" d="M 16.796875 180.914062 L 366.042969 180.914062 L 366.042969 194.414062 L 16.796875 194.414062 L 16.796875 180.914062 " fill-opacity="1" fill-rule="nonzero"/></g></svg>