<svg xmlns="http://www.w3.org/2000/svg" xmlns:xlink="http://www.w3.org/1999/xlink" width="500" zoomAndPan="magnify" viewBox="0 0 375 374.999991" height="500" preserveAspectRatio="xMidYMid meet" version="1.0"><defs><g/></defs><rect x="-37.5" width="450" fill="#ffffff" y="-37.499999" height="449.999989" fill-opacity="1"/><rect x="-37.5" width="450" fill="#000000" y="-37.499999" height="449.999989" fill-opacity="1"/><g fill="#ff00ff" fill-opacity="1"><g transform="translate(11.014477, 258.268541)"><g><path d="M 23.089844 0 L 68.25 0 C 113.816406 0 142.625 -28.402344 142.625 -71.519531 C 142.625 -114.632812 113.816406 -143.035156 68.25 -143.035156 L 23.089844 -143.035156 Z M 35.554688 -11.851562 L 35.554688 -131.183594 L 67.839844 -131.183594 C 106.050781 -131.183594 129.957031 -107.890625 129.957031 -71.519531 C 129.957031 -35.144531 106.253906 -11.851562 68.25 -11.851562 Z M 35.554688 -11.851562 "/></g></g></g><g fill="#ff00ff" fill-opacity="1"><g transform="translate(147.712231, 258.268541)"><g/></g></g><g fill="#ff00ff" fill-opacity="1"><g transform="translate(183.469574, 258.268541)"><g><path d="M 23.089844 0 L 35.554688 0 L 35.554688 -120.148438 L 89.089844 -39.84375 L 99.308594 -39.84375 L 152.84375 -120.148438 L 152.84375 0 L 165.105469 0 L 165.105469 -143.035156 L 153.660156 -143.035156 L 94.199219 -53.535156 L 34.738281 -143.035156 L 23.089844 -143.035156 Z M 23.089844 0 "/></g></g></g><g fill="#00ffff" fill-opacity="1"><g transform="translate(3.351631, 258.268541)"><g><path d="M 23.089844 0 L 68.25 0 C 113.816406 0 142.625 -28.402344 142.625 -71.519531 C 142.625 -114.632812 113.816406 -143.035156 68.25 -143.035156 L 23.089844 -143.035156 Z M 35.554688 -11.851562 L 35.554688 -131.183594 L 67.839844 -131.183594 C 106.050781 -131.183594 129.957031 -107.890625 129.957031 -71.519531 C 129.957031 -35.144531 106.253906 -11.851562 68.25 -11.851562 Z M 35.554688 -11.851562 "/></g></g></g><g fill="#00ffff" fill-opacity="1"><g transform="translate(140.049385, 258.268541)"><g/></g></g><g fill="#00ffff" fill-opacity="1"><g transform="translate(175.806728, 258.268541)"><g><path d="M 23.089844 0 L 35.554688 0 L 35.554688 -120.148438 L 89.089844 -39.84375 L 99.308594 -39.84375 L 152.84375 -120.148438 L 152.84375 0 L 165.105469 0 L 165.105469 -143.035156 L 153.660156 -143.035156 L 94.199219 -53.535156 L 34.738281 -143.035156 L 23.089844 -143.035156 Z M 23.089844 0 "/></g></g></g><g fill="#ffffff" fill-opacity="1"><g transform="translate(7.183054, 258.268541)"><g><path d="M 23.089844 0 L 68.25 0 C 113.816406 0 142.625 -28.402344 142.625 -71.519531 C 142.625 -114.632812 113.816406 -143.035156 68.25 -143.035156 L 23.089844 -143.035156 Z M 35.554688 -11.851562 L 35.554688 -131.183594 L 67.839844 -131.183594 C 106.050781 -131.183594 129.957031 -107.890625 129.957031 -71.519531 C 129.957031 -35.144531 106.253906 -11.851562 68.25 -11.851562 Z M 35.554688 -11.851562 "/></g></g></g><g fill="#ffffff" fill-opacity="1"><g transform="translate(143.880808, 258.268541)"><g/></g></g><g fill="#ffffff" fill-opacity="1"><g transform="translate(179.638151, 258.268541)"><g><path d="M 23.089844 0 L 35.554688 0 L 35.554688 -120.148438 L 89.089844 -39.84375 L 99.308594 -39.84375 L 152.84375 -120.148438 L 152.84375 0 L 165.105469 0 L 165.105469 -143.035156 L 153.660156 -143.035156 L 94.199219 -53.535156 L 34.738281 -143.035156 L 23.089844 -143.035156 Z M 23.089844 0 "/></g></g></g></svg>