<svg xmlns="http://www.w3.org/2000/svg" xmlns:xlink="http://www.w3.org/1999/xlink" width="500" zoomAndPan="magnify" viewBox="0 0 375 374.999991" height="500" preserveAspectRatio="xMidYMid meet" version="1.0"><defs><g/><clipPath id="ebcc6acc97"><path d="M 16.671875 178.042969 L 366.171875 178.042969 L 366.171875 196.792969 L 16.671875 196.792969 Z M 16.671875 178.042969 " clip-rule="nonzero"/></clipPath></defs><rect x="-37.5" width="450" fill="#ffffff" y="-37.499999" height="449.999989" fill-opacity="1"/><rect x="-37.5" width="450" fill="#ffffff" y="-37.499999" height="449.999989" fill-opacity="1"/><rect x="-37.5" width="450" fill="#000000" y="-37.499999" height="449.999989" fill-opacity="1"/><g fill="#ff00ff" fill-opacity="1"><g transform="translate(10.079964, 261.374983)"><g><path d="M 24.332031 0 L 71.921875 0 C 119.945312 0 150.308594 -29.933594 150.308594 -75.367188 C 150.308594 -120.804688 119.945312 -150.738281 71.921875 -150.738281 L 24.332031 -150.738281 Z M 37.46875 -12.488281 L 37.46875 -138.25 L 71.492188 -138.25 C 111.761719 -138.25 136.957031 -113.699219 136.957031 -75.367188 C 136.957031 -37.039062 111.976562 -12.488281 71.921875 -12.488281 Z M 37.46875 -12.488281 "/></g></g></g><g fill="#ff00ff" fill-opacity="1"><g transform="translate(144.882496, 261.374983)"><g/></g></g><g fill="#ff00ff" fill-opacity="1"><g transform="translate(173.307294, 261.374983)"><g><path d="M 24.332031 0 L 37.46875 0 L 37.46875 -126.621094 L 93.886719 -41.992188 L 104.65625 -41.992188 L 161.074219 -126.621094 L 161.074219 0 L 173.996094 0 L 173.996094 -150.738281 L 161.9375 -150.738281 L 99.273438 -56.417969 L 36.609375 -150.738281 L 24.332031 -150.738281 Z M 24.332031 0 "/></g></g></g><g fill="#00ffff" fill-opacity="1"><g transform="translate(3.35059, 261.374983)"><g><path d="M 24.332031 0 L 71.921875 0 C 119.945312 0 150.308594 -29.933594 150.308594 -75.367188 C 150.308594 -120.804688 119.945312 -150.738281 71.921875 -150.738281 L 24.332031 -150.738281 Z M 37.46875 -12.488281 L 37.46875 -138.25 L 71.492188 -138.25 C 111.761719 -138.25 136.957031 -113.699219 136.957031 -75.367188 C 136.957031 -37.039062 111.976562 -12.488281 71.921875 -12.488281 Z M 37.46875 -12.488281 "/></g></g></g><g fill="#00ffff" fill-opacity="1"><g transform="translate(138.153121, 261.374983)"><g/></g></g><g fill="#00ffff" fill-opacity="1"><g transform="translate(166.577919, 261.374983)"><g><path d="M 24.332031 0 L 37.46875 0 L 37.46875 -126.621094 L 93.886719 -41.992188 L 104.65625 -41.992188 L 161.074219 -126.621094 L 161.074219 0 L 173.996094 0 L 173.996094 -150.738281 L 161.9375 -150.738281 L 99.273438 -56.417969 L 36.609375 -150.738281 L 24.332031 -150.738281 Z M 24.332031 0 "/></g></g></g><g fill="#ffffff" fill-opacity="1"><g transform="translate(6.715277, 261.374983)"><g><path d="M 24.332031 0 L 71.921875 0 C 119.945312 0 150.308594 -29.933594 150.308594 -75.367188 C 150.308594 -120.804688 119.945312 -150.738281 71.921875 -150.738281 L 24.332031 -150.738281 Z M 37.46875 -12.488281 L 37.46875 -138.25 L 71.492188 -138.25 C 111.761719 -138.25 136.957031 -113.699219 136.957031 -75.367188 C 136.957031 -37.039062 111.976562 -12.488281 71.921875 -12.488281 Z M 37.46875 -12.488281 "/></g></g></g><g fill="#ffffff" fill-opacity="1"><g transform="translate(141.517808, 261.374983)"><g/></g></g><g fill="#ffffff" fill-opacity="1"><g transform="translate(169.942607, 261.374983)"><g><path d="M 24.332031 0 L 37.46875 0 L 37.46875 -126.621094 L 93.886719 -41.992188 L 104.65625 -41.992188 L 161.074219 -126.621094 L 161.074219 0 L 173.996094 0 L 173.996094 -150.738281 L 161.9375 -150.738281 L 99.273438 -56.417969 L 36.609375 -150.738281 L 24.332031 -150.738281 Z M 24.332031 0 "/></g></g></g><g clip-path="url(#ebcc6acc97)"><path fill="#000000" d="M 16.671875 178.042969 L 366.171875 178.042969 L 366.171875 196.792969 L 16.671875 196.792969 L 16.671875 178.042969 " fill-opacity="1" fill-rule="nonzero"/></g></svg>